<?xml version="1.0" encoding="UTF-8" standalone="no"?>
<!DOCTYPE svg PUBLIC "-//W3C//DTD SVG 1.1//EN"
 "http://www.w3.org/Graphics/SVG/1.1/DTD/svg11.dtd">
<!-- Generated by graphviz version 2.40.1 (20161225.0304)
 -->
<!-- Title: meiosistutorial Pages: 1 -->
<svg width="262pt" height="198pt"
 viewBox="0.00 0.00 261.50 198.00" xmlns="http://www.w3.org/2000/svg" xmlns:xlink="http://www.w3.org/1999/xlink">
<g id="graph0" class="graph" transform="scale(1 1) rotate(0) translate(4 194)">
<title>meiosistutorial</title>
<polygon fill="#ffffff" stroke="transparent" points="-4,4 -4,-194 257.5,-194 257.5,4 -4,4"/>
<!-- mrender -->
<g id="node1" class="node">
<title>mrender</title>
<polygon fill="#add8e6" stroke="transparent" points="199,-118 9,-118 9,-82 199,-82 199,-118"/>
<text text-anchor="start" x="16.5947" y="-96.4" font-family="Courier,monospace" font-size="12.00" fill="#000000">m.render(</text>
<text text-anchor="start" x="86.6953" y="-96.4" font-family="Courier,monospace" font-size="12.00" fill="#000000">element,</text>
<text text-anchor="start" x="149.5977" y="-96.4" font-family="Courier,monospace" font-size="12.00" fill="#000000">view</text>
<text text-anchor="start" x="183.8994" y="-96.4" font-family="Courier,monospace" font-size="12.00" fill="#000000">)</text>
</g>
<!-- element -->
<g id="node2" class="node">
<title>element</title>
<polygon fill="#ffff00" stroke="transparent" points="232,-46 0,-46 0,0 232,0 232,-46"/>
<text text-anchor="start" x="7.9824" y="-28.4" font-family="Courier,monospace" font-size="12.00" fill="#000000">document.getElementById(&quot;app&quot;)</text>
<text text-anchor="start" x="43.9883" y="-10.4" font-family="Courier,monospace" font-size="12.00" fill="#000000">&lt;div id=&quot;app&quot;&gt;&lt;/div&gt;</text>
</g>
<!-- mrender&#45;&gt;element -->
<g id="edge1" class="edge">
<title>mrender:element&#45;&gt;element:app</title>
<path fill="none" stroke="#b03060" d="M116,-81.8716C116,-66.5265 116,-59.3194 116,-40"/>
<polygon fill="#b03060" stroke="#b03060" points="112.5001,-82 116,-92 119.5001,-82 112.5001,-82"/>
</g>
<!-- view -->
<g id="node3" class="node">
<title>view</title>
<polygon fill="#ffff00" stroke="transparent" points="253.5,-190 72.5,-190 72.5,-154 253.5,-154 253.5,-190"/>
<text text-anchor="start" x="80.6865" y="-168.4" font-family="Courier,monospace" font-size="12.00" fill="#000000">m(&quot;h1&quot;, &quot;Hello, world&quot;)</text>
</g>
<!-- view&#45;&gt;mrender -->
<g id="edge2" class="edge">
<title>view:mview&#45;&gt;mrender:view</title>
<path fill="none" stroke="#b03060" d="M164,-163.7153C164,-153.5171 164,-135.4115 164,-118.0621"/>
<polygon fill="#b03060" stroke="#b03060" points="167.5001,-118 164,-108 160.5001,-118 167.5001,-118"/>
</g>
</g>
</svg>
