<?xml version="1.0" encoding="UTF-8" standalone="no"?>
<!DOCTYPE svg PUBLIC "-//W3C//DTD SVG 1.1//EN"
 "http://www.w3.org/Graphics/SVG/1.1/DTD/svg11.dtd">
<!-- Generated by graphviz version 2.40.1 (20161225.0304)
 -->
<!-- Title: meiosistutorial Pages: 1 -->
<svg width="334pt" height="198pt"
 viewBox="0.00 0.00 334.00 198.00" xmlns="http://www.w3.org/2000/svg" xmlns:xlink="http://www.w3.org/1999/xlink">
<g id="graph0" class="graph" transform="scale(1 1) rotate(0) translate(4 194)">
<title>meiosistutorial</title>
<polygon fill="#ffffff" stroke="transparent" points="-4,4 -4,-194 330,-194 330,4 -4,4"/>
<!-- mrender -->
<g id="node1" class="node">
<title>mrender</title>
<polygon fill="#add8e6" stroke="transparent" points="256,-118 0,-118 0,-82 256,-82 256,-118"/>
<text text-anchor="start" x="7.8906" y="-96.4" font-family="Courier,monospace" font-size="12.00" fill="#000000">ReactDOM.render(</text>
<text text-anchor="start" x="128.7959" y="-96.4" font-family="Courier,monospace" font-size="12.00" fill="#000000">vnode, </text>
<text text-anchor="start" x="184.7959" y="-96.4" font-family="Courier,monospace" font-size="12.00" fill="#000000">element</text>
<text text-anchor="start" x="240.8994" y="-96.4" font-family="Courier,monospace" font-size="12.00" fill="#000000">)</text>
</g>
<!-- element -->
<g id="node2" class="node">
<title>element</title>
<polygon fill="#ffff00" stroke="transparent" points="326,-46 94,-46 94,0 326,0 326,-46"/>
<text text-anchor="start" x="101.9824" y="-28.4" font-family="Courier,monospace" font-size="12.00" fill="#000000">document.getElementById(&quot;app&quot;)</text>
<text text-anchor="start" x="137.9883" y="-10.4" font-family="Courier,monospace" font-size="12.00" fill="#000000">&lt;div id=&quot;app&quot;&gt;&lt;/div&gt;</text>
</g>
<!-- mrender&#45;&gt;element -->
<g id="edge1" class="edge">
<title>mrender:element&#45;&gt;element</title>
<path fill="none" stroke="#b03060" d="M210,-81.804C210,-69.4835 210,-56.7612 210,-46.3152"/>
<polygon fill="#b03060" stroke="#b03060" points="206.5001,-82 210,-92 213.5001,-82 206.5001,-82"/>
</g>
<!-- view -->
<g id="node3" class="node">
<title>view</title>
<polygon fill="#ffff00" stroke="transparent" points="236.5,-190 69.5,-190 69.5,-154 236.5,-154 236.5,-190"/>
<text text-anchor="start" x="77.8877" y="-168.4" font-family="Courier,monospace" font-size="12.00" fill="#000000">&lt;h1&gt;Hello, world&lt;/h1&gt;</text>
</g>
<!-- view&#45;&gt;mrender -->
<g id="edge2" class="edge">
<title>view:mview&#45;&gt;mrender:view</title>
<path fill="none" stroke="#b03060" d="M154,-163.7153C154,-153.5171 154,-135.4115 154,-118.0621"/>
<polygon fill="#b03060" stroke="#b03060" points="157.5001,-118 154,-108 150.5001,-118 157.5001,-118"/>
</g>
</g>
</svg>
