<?xml version="1.0" encoding="UTF-8" standalone="no"?>
<!DOCTYPE svg PUBLIC "-//W3C//DTD SVG 1.1//EN"
 "http://www.w3.org/Graphics/SVG/1.1/DTD/svg11.dtd">
<!-- Generated by graphviz version 2.40.1 (20161225.0304)
 -->
<!-- Title: meiosistutorial Pages: 1 -->
<svg width="263pt" height="270pt"
 viewBox="0.00 0.00 263.00 270.00" xmlns="http://www.w3.org/2000/svg" xmlns:xlink="http://www.w3.org/1999/xlink">
<g id="graph0" class="graph" transform="scale(1 1) rotate(0) translate(4 266)">
<title>meiosistutorial</title>
<polygon fill="#ffffff" stroke="transparent" points="-4,4 -4,-266 259,-266 259,4 -4,4"/>
<!-- mrender -->
<g id="node1" class="node">
<title>mrender</title>
<polygon fill="#add8e6" stroke="transparent" points="207,-118 9,-118 9,-82 207,-82 207,-118"/>
<text text-anchor="start" x="16.5947" y="-96.4" font-family="Courier,monospace" font-size="12.00" fill="#000000">m.render(</text>
<text text-anchor="start" x="86.6953" y="-96.4" font-family="Courier,monospace" font-size="12.00" fill="#000000">element,</text>
<text text-anchor="start" x="149.9971" y="-96.4" font-family="Courier,monospace" font-size="12.00" fill="#000000">vnode</text>
<text text-anchor="start" x="191.8994" y="-96.4" font-family="Courier,monospace" font-size="12.00" fill="#000000">)</text>
</g>
<!-- element -->
<g id="node2" class="node">
<title>element</title>
<polygon fill="#ffff00" stroke="transparent" points="232,-46 0,-46 0,0 232,0 232,-46"/>
<text text-anchor="start" x="7.9824" y="-28.4" font-family="Courier,monospace" font-size="12.00" fill="#000000">document.getElementById(&quot;app&quot;)</text>
<text text-anchor="start" x="43.9883" y="-10.4" font-family="Courier,monospace" font-size="12.00" fill="#000000">&lt;div id=&quot;app&quot;&gt;&lt;/div&gt;</text>
</g>
<!-- mrender&#45;&gt;element -->
<g id="edge1" class="edge">
<title>mrender:element&#45;&gt;element:app</title>
<path fill="none" stroke="#b03060" d="M116,-81.8716C116,-66.5265 116,-59.3194 116,-40"/>
<polygon fill="#b03060" stroke="#b03060" points="112.5001,-82 116,-92 119.5001,-82 112.5001,-82"/>
</g>
<!-- view -->
<g id="node3" class="node">
<title>view</title>
<polygon fill="#ffff00" stroke="transparent" points="255,-190 81,-190 81,-154 255,-154 255,-190"/>
<text text-anchor="start" x="88.7871" y="-168.4" font-family="Courier,monospace" font-size="12.00" fill="#000000">m(&quot;div&quot;, &quot;Counter: 0&quot;)</text>
</g>
<!-- view&#45;&gt;mrender -->
<g id="edge2" class="edge">
<title>view&#45;&gt;mrender:vnode</title>
<path fill="none" stroke="#b03060" d="M168,-153.7928C168,-143.787 168,-130.8921 168,-118.3649"/>
<polygon fill="#b03060" stroke="#b03060" points="171.5001,-118 168,-108 164.5001,-118 171.5001,-118"/>
</g>
<!-- vfunction -->
<g id="node4" class="node">
<title>vfunction</title>
<polygon fill="#ffa500" stroke="transparent" points="201,-262 135,-262 135,-226 201,-226 201,-262"/>
<text text-anchor="start" x="142.7959" y="-240.4" font-family="Courier,monospace" font-size="12.00" fill="#000000">view(0)</text>
</g>
<!-- vfunction&#45;&gt;view -->
<g id="edge3" class="edge">
<title>vfunction&#45;&gt;view</title>
<path fill="none" stroke="#b03060" d="M168,-225.8314C168,-218.131 168,-208.9743 168,-200.4166"/>
<polygon fill="#b03060" stroke="#b03060" points="171.5001,-200.4132 168,-190.4133 164.5001,-200.4133 171.5001,-200.4132"/>
</g>
</g>
</svg>
