<?xml version="1.0" encoding="UTF-8" standalone="no"?>
<!DOCTYPE svg PUBLIC "-//W3C//DTD SVG 1.1//EN"
 "http://www.w3.org/Graphics/SVG/1.1/DTD/svg11.dtd">
<!-- Generated by graphviz version 2.40.1 (20161225.0304)
 -->
<!-- Title: helloworld01 Pages: 1 -->
<svg width="259pt" height="270pt"
 viewBox="0.00 0.00 259.00 270.00" xmlns="http://www.w3.org/2000/svg" xmlns:xlink="http://www.w3.org/1999/xlink">
<g id="graph0" class="graph" transform="scale(1 1) rotate(0) translate(4 266)">
<title>helloworld01</title>
<polygon fill="#ffffff" stroke="transparent" points="-4,4 -4,-266 255,-266 255,4 -4,4"/>
<!-- mrender -->
<g id="node1" class="node">
<title>mrender</title>
<polygon fill="#add8e6" stroke="transparent" points="199,-118 9,-118 9,-82 199,-82 199,-118"/>
<text text-anchor="start" x="16.5947" y="-96.4" font-family="Courier,monospace" font-size="12.00" fill="#000000">m.render(</text>
<text text-anchor="start" x="86.6953" y="-96.4" font-family="Courier,monospace" font-size="12.00" fill="#000000">element,</text>
<text text-anchor="start" x="149.5977" y="-96.4" font-family="Courier,monospace" font-size="12.00" fill="#000000">view</text>
<text text-anchor="start" x="183.8994" y="-96.4" font-family="Courier,monospace" font-size="12.00" fill="#000000">)</text>
</g>
<!-- element -->
<g id="node2" class="node">
<title>element</title>
<polygon fill="#ffff00" stroke="transparent" points="232,-46 0,-46 0,0 232,0 232,-46"/>
<text text-anchor="start" x="7.9824" y="-28.4" font-family="Courier,monospace" font-size="12.00" fill="#000000">document.getElementById(&quot;app&quot;)</text>
<text text-anchor="start" x="43.9883" y="-10.4" font-family="Courier,monospace" font-size="12.00" fill="#000000">&lt;div id=&quot;app&quot;&gt;&lt;/div&gt;</text>
</g>
<!-- mrender&#45;&gt;element -->
<g id="edge1" class="edge">
<title>mrender:element&#45;&gt;element:app</title>
<path fill="none" stroke="#b03060" d="M116,-81.8716C116,-66.5265 116,-59.3194 116,-40"/>
<polygon fill="#b03060" stroke="#b03060" points="112.5001,-82 116,-92 119.5001,-82 112.5001,-82"/>
</g>
<!-- view -->
<g id="node3" class="node">
<title>view</title>
<polygon fill="#ffff00" stroke="transparent" points="251,-190 77,-190 77,-154 251,-154 251,-190"/>
<text text-anchor="start" x="84.7871" y="-168.4" font-family="Courier,monospace" font-size="12.00" fill="#000000">m(&quot;div&quot;, &quot;Counter: 0&quot;)</text>
</g>
<!-- view&#45;&gt;mrender -->
<g id="edge2" class="edge">
<title>view&#45;&gt;mrender:view</title>
<path fill="none" stroke="#b03060" d="M164,-153.7928C164,-143.787 164,-130.8921 164,-118.3649"/>
<polygon fill="#b03060" stroke="#b03060" points="167.5001,-118 164,-108 160.5001,-118 167.5001,-118"/>
</g>
<!-- vfunction -->
<g id="node4" class="node">
<title>vfunction</title>
<polygon fill="#ffa500" stroke="transparent" points="197,-262 131,-262 131,-226 197,-226 197,-262"/>
<text text-anchor="start" x="138.7959" y="-240.4" font-family="Courier,monospace" font-size="12.00" fill="#000000">view(0)</text>
</g>
<!-- vfunction&#45;&gt;view -->
<g id="edge3" class="edge">
<title>vfunction&#45;&gt;view</title>
<path fill="none" stroke="#b03060" d="M164,-225.8314C164,-218.131 164,-208.9743 164,-200.4166"/>
<polygon fill="#b03060" stroke="#b03060" points="167.5001,-200.4132 164,-190.4133 160.5001,-200.4133 167.5001,-200.4132"/>
</g>
</g>
</svg>
