<?xml version="1.0" encoding="UTF-8" standalone="no"?>
<!DOCTYPE svg PUBLIC "-//W3C//DTD SVG 1.1//EN"
 "http://www.w3.org/Graphics/SVG/1.1/DTD/svg11.dtd">
<!-- Generated by graphviz version 2.40.1 (20161225.0304)
 -->
<!-- Title: meiosistutorial Pages: 1 -->
<svg width="643pt" height="364pt"
 viewBox="0.00 0.00 642.71 364.00" xmlns="http://www.w3.org/2000/svg" xmlns:xlink="http://www.w3.org/1999/xlink">
<g id="graph0" class="graph" transform="scale(1 1) rotate(0) translate(4 360)">
<title>meiosistutorial</title>
<polygon fill="#ffffff" stroke="transparent" points="-4,4 -4,-360 638.7129,-360 638.7129,4 -4,4"/>
<!-- stream -->
<g id="node1" class="node">
<title>stream</title>
<text text-anchor="middle" x="83.2129" y="-261.4" font-family="Courier,monospace" font-size="12.00" fill="#000000">var update = stream();</text>
</g>
<!-- thestream -->
<g id="node6" class="node">
<title>thestream</title>
<polygon fill="#add8e6" stroke="transparent" points="595.7129,-283 206.7129,-283 206.7129,-247 595.7129,-247 595.7129,-283"/>
<text text-anchor="start" x="216.1123" y="-261.4" font-family="Courier,monospace" font-size="12.00" fill="#000000">5</text>
<text text-anchor="start" x="228.8047" y="-261.4" font-family="Courier,monospace" font-size="12.00" fill="#000000">      ...     </text>
<text text-anchor="start" x="335.0117" y="-261.4" font-family="Courier,monospace" font-size="12.00" fill="#000000">&#45;3</text>
<text text-anchor="start" x="354.8047" y="-261.4" font-family="Courier,monospace" font-size="12.00" fill="#000000">      ...     </text>
<text text-anchor="start" x="461.1123" y="-261.4" font-family="Courier,monospace" font-size="12.00" fill="#000000">8</text>
<text text-anchor="start" x="473.8047" y="-261.4" font-family="Courier,monospace" font-size="12.00" fill="#000000">      ...     </text>
<text text-anchor="start" x="580.1123" y="-261.4" font-family="Courier,monospace" font-size="12.00" fill="#000000">2</text>
<polygon fill="none" stroke="#000000" points="210.7129,-254 210.7129,-276 591.7129,-276 591.7129,-254 210.7129,-254"/>
</g>
<!-- stream&#45;&gt;thestream -->
<g id="edge5" class="edge">
<title>stream&#45;&gt;thestream</title>
<path fill="none" stroke="#b03060" d="M166.7636,-265C176.2176,-265 186.1349,-265 196.3273,-265"/>
<polygon fill="#b03060" stroke="#b03060" points="196.6045,-268.5001 206.6045,-265 196.6044,-261.5001 196.6045,-268.5001"/>
<text text-anchor="middle" x="186.5693" y="-270.4" font-family="Helvetica,sans-Serif" font-size="12.00" fill="#000080"> &#160;&#160;&#160;&#160;&#160;&#160;&#160;</text>
</g>
<!-- updateplus1 -->
<g id="node2" class="node">
<title>updateplus1</title>
<polygon fill="#ffff00" stroke="transparent" points="255.5237,-356 182.9021,-356 182.9021,-320 255.5237,-320 255.5237,-356"/>
<text text-anchor="middle" x="219.2129" y="-334.4" font-family="Courier,monospace" font-size="12.00" fill="#000000">update(5)</text>
</g>
<!-- updateplus1&#45;&gt;thestream -->
<g id="edge1" class="edge">
<title>updateplus1&#45;&gt;thestream:plusone</title>
<path fill="none" stroke="#b03060" d="M219.2129,-319.7883C219.2129,-309.5059 219.2129,-296.1556 219.2129,-283.2194"/>
<polygon fill="#b03060" stroke="#b03060" points="222.713,-283 219.2129,-273 215.713,-283 222.713,-283"/>
</g>
<!-- updateplus3 -->
<g id="node3" class="node">
<title>updateplus3</title>
<polygon fill="#ffff00" stroke="transparent" points="382.2246,-356 302.2012,-356 302.2012,-320 382.2246,-320 382.2246,-356"/>
<text text-anchor="middle" x="342.2129" y="-334.4" font-family="Courier,monospace" font-size="12.00" fill="#000000">update(&#45;3)</text>
</g>
<!-- updateplus3&#45;&gt;thestream -->
<g id="edge2" class="edge">
<title>updateplus3&#45;&gt;thestream:plusthree</title>
<path fill="none" stroke="#b03060" d="M342.2129,-319.7883C342.2129,-309.5059 342.2129,-296.1556 342.2129,-283.2194"/>
<polygon fill="#b03060" stroke="#b03060" points="345.713,-283 342.2129,-273 338.713,-283 345.713,-283"/>
</g>
<!-- updateplus4 -->
<g id="node4" class="node">
<title>updateplus4</title>
<polygon fill="#ffff00" stroke="transparent" points="501.5237,-356 428.9021,-356 428.9021,-320 501.5237,-320 501.5237,-356"/>
<text text-anchor="middle" x="465.2129" y="-334.4" font-family="Courier,monospace" font-size="12.00" fill="#000000">update(8)</text>
</g>
<!-- updateplus4&#45;&gt;thestream -->
<g id="edge3" class="edge">
<title>updateplus4&#45;&gt;thestream:plusfour</title>
<path fill="none" stroke="#b03060" d="M465.2129,-319.7883C465.2129,-309.5059 465.2129,-296.1556 465.2129,-283.2194"/>
<polygon fill="#b03060" stroke="#b03060" points="468.713,-283 465.2129,-273 461.713,-283 468.713,-283"/>
</g>
<!-- updateplus2 -->
<g id="node5" class="node">
<title>updateplus2</title>
<polygon fill="#ffff00" stroke="transparent" points="620.5237,-356 547.9021,-356 547.9021,-320 620.5237,-320 620.5237,-356"/>
<text text-anchor="middle" x="584.2129" y="-334.4" font-family="Courier,monospace" font-size="12.00" fill="#000000">update(2)</text>
</g>
<!-- updateplus2&#45;&gt;thestream -->
<g id="edge4" class="edge">
<title>updateplus2&#45;&gt;thestream:plustwo</title>
<path fill="none" stroke="#b03060" d="M584.2129,-319.7883C584.2129,-309.5059 584.2129,-296.1556 584.2129,-283.2194"/>
<polygon fill="#b03060" stroke="#b03060" points="587.713,-283 584.2129,-273 580.713,-283 587.713,-283"/>
</g>
<!-- scan1 -->
<g id="node10" class="node">
<title>scan1</title>
<polygon fill="#ffff00" stroke="transparent" points="255.5237,-210 182.9021,-210 182.9021,-174 255.5237,-174 255.5237,-210"/>
<text text-anchor="middle" x="219.2129" y="-188.4" font-family="Courier,monospace" font-size="12.00" fill="#000000">0 + 5 = 5</text>
</g>
<!-- thestream&#45;&gt;scan1 -->
<g id="edge16" class="edge">
<title>thestream:plusone&#45;&gt;scan1</title>
<path fill="none" stroke="#b03060" d="M219.2129,-246.7806C219.2129,-233.8444 219.2129,-220.4941 219.2129,-210.2117"/>
<polygon fill="#b03060" stroke="#b03060" points="215.713,-247 219.2129,-257 222.713,-247 215.713,-247"/>
</g>
<!-- scan2 -->
<g id="node11" class="node">
<title>scan2</title>
<polygon fill="#ffff00" stroke="transparent" points="382.2246,-210 302.2012,-210 302.2012,-174 382.2246,-174 382.2246,-210"/>
<text text-anchor="middle" x="342.2129" y="-188.4" font-family="Courier,monospace" font-size="12.00" fill="#000000">5 + &#45;3 = 2</text>
</g>
<!-- thestream&#45;&gt;scan2 -->
<g id="edge17" class="edge">
<title>thestream:plusthree&#45;&gt;scan2</title>
<path fill="none" stroke="#b03060" d="M342.2129,-246.7806C342.2129,-233.8444 342.2129,-220.4941 342.2129,-210.2117"/>
<polygon fill="#b03060" stroke="#b03060" points="338.713,-247 342.2129,-257 345.713,-247 338.713,-247"/>
</g>
<!-- scan3 -->
<g id="node12" class="node">
<title>scan3</title>
<polygon fill="#ffff00" stroke="transparent" points="505.2246,-210 425.2012,-210 425.2012,-174 505.2246,-174 505.2246,-210"/>
<text text-anchor="middle" x="465.2129" y="-188.4" font-family="Courier,monospace" font-size="12.00" fill="#000000">2 + 8 = 10</text>
</g>
<!-- thestream&#45;&gt;scan3 -->
<g id="edge18" class="edge">
<title>thestream:plusfour&#45;&gt;scan3</title>
<path fill="none" stroke="#b03060" d="M465.2129,-246.7806C465.2129,-233.8444 465.2129,-220.4941 465.2129,-210.2117"/>
<polygon fill="#b03060" stroke="#b03060" points="461.713,-247 465.2129,-257 468.713,-247 461.713,-247"/>
</g>
<!-- scan4 -->
<g id="node13" class="node">
<title>scan4</title>
<polygon fill="#ffff00" stroke="transparent" points="627.926,-210 540.4997,-210 540.4997,-174 627.926,-174 627.926,-210"/>
<text text-anchor="middle" x="584.2129" y="-188.4" font-family="Courier,monospace" font-size="12.00" fill="#000000">10 + 2 = 12</text>
</g>
<!-- thestream&#45;&gt;scan4 -->
<g id="edge19" class="edge">
<title>thestream:plustwo&#45;&gt;scan4</title>
<path fill="none" stroke="#b03060" d="M584.2129,-246.7806C584.2129,-233.8444 584.2129,-220.4941 584.2129,-210.2117"/>
<polygon fill="#b03060" stroke="#b03060" points="580.713,-247 584.2129,-257 587.713,-247 580.713,-247"/>
</g>
<!-- scan -->
<g id="node7" class="node">
<title>scan</title>
<text text-anchor="start" x="207.9854" y="-46.4" font-family="Courier,monospace" font-size="12.00" fill="#000000">var otherStream = scan(function(latest, next) {</text>
<text text-anchor="start" x="208.2129" y="-28.4" font-family="Courier,monospace" font-size="12.00" fill="#000000"> &#160;&#160;&#160;return latest + next;</text>
<text text-anchor="start" x="208.2129" y="-10.4" font-family="Courier,monospace" font-size="12.00" fill="#000000">}, 0, update);</text>
</g>
<!-- thescanstream -->
<g id="node8" class="node">
<title>thescanstream</title>
<polygon fill="#ffa500" stroke="transparent" points="634.7129,-137 119.7129,-137 119.7129,-101 634.7129,-101 634.7129,-137"/>
<text text-anchor="start" x="129.1123" y="-115.4" font-family="Courier,monospace" font-size="12.00" fill="#000000">0</text>
<text text-anchor="start" x="141.8047" y="-115.4" font-family="Courier,monospace" font-size="12.00" fill="#000000">      ...     </text>
<text text-anchor="start" x="248.1123" y="-115.4" font-family="Courier,monospace" font-size="12.00" fill="#000000">5</text>
<text text-anchor="start" x="260.8047" y="-115.4" font-family="Courier,monospace" font-size="12.00" fill="#000000">      ...     </text>
<text text-anchor="start" x="367.1123" y="-115.4" font-family="Courier,monospace" font-size="12.00" fill="#000000">2</text>
<text text-anchor="start" x="379.8047" y="-115.4" font-family="Courier,monospace" font-size="12.00" fill="#000000">      ...     </text>
<text text-anchor="start" x="486.0117" y="-115.4" font-family="Courier,monospace" font-size="12.00" fill="#000000">10</text>
<text text-anchor="start" x="505.8047" y="-115.4" font-family="Courier,monospace" font-size="12.00" fill="#000000">      ...     </text>
<text text-anchor="start" x="612.0117" y="-115.4" font-family="Courier,monospace" font-size="12.00" fill="#000000">12</text>
<polygon fill="none" stroke="#000000" points="123.7129,-108 123.7129,-130 630.7129,-130 630.7129,-108 123.7129,-108"/>
</g>
<!-- thescanstream&#45;&gt;scan -->
<g id="edge6" class="edge">
<title>thescanstream&#45;&gt;scan</title>
<path fill="none" stroke="#b03060" d="M377.2129,-90.7732C377.2129,-82.2491 377.2129,-72.8287 377.2129,-64.0732"/>
<polygon fill="#b03060" stroke="#b03060" points="373.713,-90.9735 377.2129,-100.9735 380.713,-90.9736 373.713,-90.9735"/>
</g>
<!-- scan0 -->
<g id="node9" class="node">
<title>scan0</title>
<polygon fill="#ffff00" stroke="transparent" points="161.6225,-210 102.8033,-210 102.8033,-174 161.6225,-174 161.6225,-210"/>
<text text-anchor="middle" x="132.2129" y="-188.4" font-family="Courier,monospace" font-size="12.00" fill="#000000">initial</text>
</g>
<!-- scan0&#45;&gt;thescanstream -->
<g id="edge7" class="edge">
<title>scan0&#45;&gt;thescanstream:initial</title>
<path fill="none" stroke="#b03060" d="M132.2129,-173.7883C132.2129,-163.5059 132.2129,-150.1556 132.2129,-137.2194"/>
<polygon fill="#b03060" stroke="#b03060" points="135.713,-137 132.2129,-127 128.713,-137 135.713,-137"/>
</g>
<!-- scan1&#45;&gt;thescanstream -->
<g id="edge8" class="edge">
<title>scan1&#45;&gt;thescanstream:one</title>
<path fill="none" stroke="#b03060" d="M233.7148,-173.819C240.528,-163.811 247.7066,-150.67 250.2508,-137.0053"/>
<polygon fill="#b03060" stroke="#b03060" points="253.7396,-137.2891 251.2129,-127 246.7717,-136.6191 253.7396,-137.2891"/>
</g>
<!-- scan1&#45;&gt;thescanstream -->
<g id="edge12" class="edge">
<title>scan1&#45;&gt;thescanstream:initial</title>
<path fill="none" stroke="#b03060" d="M182.8212,-180.7383C162.1472,-172.1579 139.2715,-158.1808 133.5598,-137.1599"/>
<polygon fill="#b03060" stroke="#b03060" points="136.9969,-136.4533 132.2129,-127 130.0576,-137.3733 136.9969,-136.4533"/>
</g>
<!-- scan2&#45;&gt;thescanstream -->
<g id="edge9" class="edge">
<title>scan2&#45;&gt;thescanstream:four</title>
<path fill="none" stroke="#b03060" d="M354.7388,-173.8342C360.6796,-163.8184 366.9784,-150.7145 369.2922,-137.2862"/>
<polygon fill="#b03060" stroke="#b03060" points="372.8074,-137.2722 370.2129,-127 365.8353,-136.6481 372.8074,-137.2722"/>
</g>
<!-- scan2&#45;&gt;thescanstream -->
<g id="edge13" class="edge">
<title>scan2&#45;&gt;thescanstream:one</title>
<path fill="none" stroke="#b03060" d="M302.0341,-180.3782C280.8941,-171.888 258.2005,-158.1303 252.5454,-137.1532"/>
<polygon fill="#b03060" stroke="#b03060" points="255.9845,-136.4595 251.2129,-127 249.044,-137.3704 255.9845,-136.4595"/>
</g>
<!-- scan3&#45;&gt;thescanstream -->
<g id="edge10" class="edge">
<title>scan3&#45;&gt;thescanstream:eight</title>
<path fill="none" stroke="#b03060" d="M477.7388,-173.8342C483.6796,-163.8184 489.9784,-150.7145 492.2922,-137.2862"/>
<polygon fill="#b03060" stroke="#b03060" points="495.8074,-137.2722 493.2129,-127 488.8353,-136.6481 495.8074,-137.2722"/>
</g>
<!-- scan3&#45;&gt;thescanstream -->
<g id="edge14" class="edge">
<title>scan3&#45;&gt;thescanstream:four</title>
<path fill="none" stroke="#b03060" d="M425.1997,-181.593C402.4822,-173.3336 377.421,-159.3804 371.5107,-137.0774"/>
<polygon fill="#b03060" stroke="#b03060" points="374.9616,-136.471 370.2129,-127 368.019,-137.3652 374.9616,-136.471"/>
</g>
<!-- scan4&#45;&gt;thescanstream -->
<g id="edge11" class="edge">
<title>scan4&#45;&gt;thescanstream:ten</title>
<path fill="none" stroke="#b03060" d="M600.2788,-173.7597C607.6826,-163.8399 615.4312,-150.8106 618.1755,-137.0839"/>
<polygon fill="#b03060" stroke="#b03060" points="621.6711,-137.3057 619.2129,-127 614.7078,-136.5893 621.6711,-137.3057"/>
</g>
<!-- scan4&#45;&gt;thescanstream -->
<g id="edge15" class="edge">
<title>scan4&#45;&gt;thescanstream:eight</title>
<path fill="none" stroke="#b03060" d="M540.5786,-178.9478C520.4171,-170.3457 499.7662,-156.9082 494.4963,-136.9691"/>
<polygon fill="#b03060" stroke="#b03060" points="497.9612,-136.4712 493.2129,-127 491.0185,-137.3651 497.9612,-136.4712"/>
</g>
</g>
</svg>
