<?xml version="1.0" encoding="UTF-8" standalone="no"?>
<!DOCTYPE svg PUBLIC "-//W3C//DTD SVG 1.1//EN"
 "http://www.w3.org/Graphics/SVG/1.1/DTD/svg11.dtd">
<!-- Generated by graphviz version 2.40.1 (20161225.0304)
 -->
<!-- Title: meiosistutorial Pages: 1 -->
<svg width="464pt" height="291pt"
 viewBox="0.00 0.00 463.71 291.00" xmlns="http://www.w3.org/2000/svg" xmlns:xlink="http://www.w3.org/1999/xlink">
<g id="graph0" class="graph" transform="scale(1 1) rotate(0) translate(4 287)">
<title>meiosistutorial</title>
<polygon fill="#ffffff" stroke="transparent" points="-4,4 -4,-287 459.7129,-287 459.7129,4 -4,4"/>
<!-- stream -->
<g id="node1" class="node">
<title>stream</title>
<text text-anchor="middle" x="83.2129" y="-188.4" font-family="Courier,monospace" font-size="12.00" fill="#000000">var update = stream();</text>
</g>
<!-- thestream -->
<g id="node4" class="node">
<title>thestream</title>
<polygon fill="#add8e6" stroke="transparent" points="357.7129,-210 206.7129,-210 206.7129,-174 357.7129,-174 357.7129,-210"/>
<text text-anchor="start" x="216.1123" y="-188.4" font-family="Courier,monospace" font-size="12.00" fill="#000000">1</text>
<text text-anchor="start" x="228.8047" y="-188.4" font-family="Courier,monospace" font-size="12.00" fill="#000000">      ...     </text>
<text text-anchor="start" x="335.0117" y="-188.4" font-family="Courier,monospace" font-size="12.00" fill="#000000">&#45;1</text>
<polygon fill="none" stroke="#000000" points="210.7129,-181 210.7129,-203 353.7129,-203 353.7129,-181 210.7129,-181"/>
</g>
<!-- stream&#45;&gt;thestream -->
<g id="edge3" class="edge">
<title>stream&#45;&gt;thestream</title>
<path fill="none" stroke="#b03060" d="M166.4538,-192C176.3347,-192 186.4355,-192 196.3521,-192"/>
<polygon fill="#b03060" stroke="#b03060" points="196.6027,-195.5001 206.6026,-192 196.6026,-188.5001 196.6027,-195.5001"/>
<text text-anchor="middle" x="186.5693" y="-197.4" font-family="Helvetica,sans-Serif" font-size="12.00" fill="#000080"> &#160;&#160;&#160;&#160;&#160;&#160;&#160;</text>
</g>
<!-- updateplus1 -->
<g id="node2" class="node">
<title>updateplus1</title>
<polygon fill="#ffff00" stroke="transparent" points="255.5237,-283 182.9021,-283 182.9021,-247 255.5237,-247 255.5237,-283"/>
<text text-anchor="middle" x="219.2129" y="-261.4" font-family="Courier,monospace" font-size="12.00" fill="#000000">update(1)</text>
</g>
<!-- updateplus1&#45;&gt;thestream -->
<g id="edge1" class="edge">
<title>updateplus1&#45;&gt;thestream:plusone</title>
<path fill="none" stroke="#b03060" d="M219.2129,-246.7883C219.2129,-236.5059 219.2129,-223.1556 219.2129,-210.2194"/>
<polygon fill="#b03060" stroke="#b03060" points="222.713,-210 219.2129,-200 215.713,-210 222.713,-210"/>
</g>
<!-- updateminus1 -->
<g id="node3" class="node">
<title>updateminus1</title>
<polygon fill="#ffff00" stroke="transparent" points="382.2246,-283 302.2012,-283 302.2012,-247 382.2246,-247 382.2246,-283"/>
<text text-anchor="middle" x="342.2129" y="-261.4" font-family="Courier,monospace" font-size="12.00" fill="#000000">update(&#45;1)</text>
</g>
<!-- updateminus1&#45;&gt;thestream -->
<g id="edge2" class="edge">
<title>updateminus1&#45;&gt;thestream:minusone</title>
<path fill="none" stroke="#b03060" d="M342.2129,-246.7883C342.2129,-236.5059 342.2129,-223.1556 342.2129,-210.2194"/>
<polygon fill="#b03060" stroke="#b03060" points="345.713,-210 342.2129,-200 338.713,-210 345.713,-210"/>
</g>
<!-- map -->
<g id="node5" class="node">
<title>map</title>
<text text-anchor="start" x="117.0859" y="-119.4" font-family="Courier,monospace" font-size="12.00" fill="#000000">var otherStream = update.map(function(value) {</text>
<text text-anchor="start" x="117.2129" y="-101.4" font-family="Courier,monospace" font-size="12.00" fill="#000000"> &#160;&#160;&#160;return value * 10;</text>
<text text-anchor="start" x="117.2129" y="-83.4" font-family="Courier,monospace" font-size="12.00" fill="#000000">});</text>
</g>
<!-- thestream&#45;&gt;map -->
<g id="edge4" class="edge">
<title>thestream&#45;&gt;map</title>
<path fill="none" stroke="#b03060" d="M282.2129,-163.7732C282.2129,-155.2491 282.2129,-145.8287 282.2129,-137.0732"/>
<polygon fill="#b03060" stroke="#b03060" points="278.713,-163.9735 282.2129,-173.9735 285.713,-163.9736 278.713,-163.9735"/>
</g>
<!-- themapstream -->
<g id="node6" class="node">
<title>themapstream</title>
<polygon fill="#ffa500" stroke="transparent" points="364.7129,-36 199.7129,-36 199.7129,0 364.7129,0 364.7129,-36"/>
<text text-anchor="start" x="209.0117" y="-14.4" font-family="Courier,monospace" font-size="12.00" fill="#000000">10</text>
<text text-anchor="start" x="228.8047" y="-14.4" font-family="Courier,monospace" font-size="12.00" fill="#000000">      ...     </text>
<text text-anchor="start" x="334.9111" y="-14.4" font-family="Courier,monospace" font-size="12.00" fill="#000000">&#45;10</text>
<polygon fill="none" stroke="#000000" points="203.7129,-7 203.7129,-29 360.7129,-29 360.7129,-7 203.7129,-7"/>
</g>
<!-- map&#45;&gt;themapstream -->
<g id="edge5" class="edge">
<title>map&#45;&gt;themapstream</title>
<path fill="none" stroke="#b03060" d="M282.2129,-72.6044C282.2129,-63.9084 282.2129,-54.5779 282.2129,-46.1338"/>
<polygon fill="#b03060" stroke="#b03060" points="285.713,-46.0264 282.2129,-36.0265 278.713,-46.0265 285.713,-46.0264"/>
</g>
<!-- otherStream -->
<g id="node7" class="node">
<title>otherStream</title>
<text text-anchor="middle" x="115.2129" y="-14.4" font-family="Courier,monospace" font-size="12.00" fill="#000000">otherStream</text>
</g>
<!-- otherStream&#45;&gt;themapstream -->
<g id="edge6" class="edge">
<title>otherStream&#45;&gt;themapstream</title>
<path fill="none" stroke="#b03060" d="M159.0902,-18C168.5374,-18 178.8656,-18 189.3938,-18"/>
<polygon fill="#b03060" stroke="#b03060" points="189.5271,-21.5001 199.527,-18 189.527,-14.5001 189.5271,-21.5001"/>
<text text-anchor="middle" x="179.2661" y="-23.4" font-family="Helvetica,sans-Serif" font-size="12.00" fill="#000080"> &#160;&#160;&#160;&#160;&#160;&#160;&#160;</text>
</g>
</g>
</svg>
