<?xml version="1.0" encoding="UTF-8" standalone="no"?>
<!DOCTYPE svg PUBLIC "-//W3C//DTD SVG 1.1//EN"
 "http://www.w3.org/Graphics/SVG/1.1/DTD/svg11.dtd">
<!-- Generated by graphviz version 2.43.0 (0)
 -->
<!-- Title: meiosistutorial Pages: 1 -->
<svg width="643pt" height="364pt"
 viewBox="0.00 0.00 642.71 364.00" xmlns="http://www.w3.org/2000/svg" xmlns:xlink="http://www.w3.org/1999/xlink">
<g id="graph0" class="graph" transform="scale(1 1) rotate(0) translate(4 360)">
<title>meiosistutorial</title>
<polygon fill="white" stroke="transparent" points="-4,4 -4,-360 638.71,-360 638.71,4 -4,4"/>
<!-- stream -->
<g id="node1" class="node">
<title>stream</title>
<text text-anchor="middle" x="83.21" y="-261.4" font-family="Courier,monospace" font-size="12.00">var update = stream();</text>
</g>
<!-- thestream -->
<g id="node6" class="node">
<title>thestream</title>
<polygon fill="lightblue" stroke="transparent" points="595.71,-283 206.71,-283 206.71,-247 595.71,-247 595.71,-283"/>
<text text-anchor="start" x="216.11" y="-261.4" font-family="Courier,monospace" font-size="12.00">5</text>
<text text-anchor="start" x="228.8" y="-261.4" font-family="Courier,monospace" font-size="12.00">      ...     </text>
<text text-anchor="start" x="335.01" y="-261.4" font-family="Courier,monospace" font-size="12.00">&#45;3</text>
<text text-anchor="start" x="354.8" y="-261.4" font-family="Courier,monospace" font-size="12.00">      ...     </text>
<text text-anchor="start" x="461.11" y="-261.4" font-family="Courier,monospace" font-size="12.00">8</text>
<text text-anchor="start" x="473.8" y="-261.4" font-family="Courier,monospace" font-size="12.00">      ...     </text>
<text text-anchor="start" x="580.11" y="-261.4" font-family="Courier,monospace" font-size="12.00">2</text>
<polygon fill="none" stroke="black" points="210.71,-254 210.71,-276 591.71,-276 591.71,-254 210.71,-254"/>
</g>
<!-- stream&#45;&gt;thestream -->
<g id="edge5" class="edge">
<title>stream&#45;&gt;thestream</title>
<path fill="none" stroke="maroon" d="M166.76,-265C176.22,-265 186.13,-265 196.33,-265"/>
<polygon fill="maroon" stroke="maroon" points="196.6,-268.5 206.6,-265 196.6,-261.5 196.6,-268.5"/>
<text text-anchor="middle" x="186.57" y="-270.4" font-family="Helvetica,sans-Serif" font-size="12.00" fill="navy"> &#160;&#160;&#160;&#160;&#160;&#160;&#160;</text>
</g>
<!-- updateplus1 -->
<g id="node2" class="node">
<title>updateplus1</title>
<polygon fill="yellow" stroke="transparent" points="255.52,-356 182.9,-356 182.9,-320 255.52,-320 255.52,-356"/>
<text text-anchor="middle" x="219.21" y="-334.4" font-family="Courier,monospace" font-size="12.00">update(5)</text>
</g>
<!-- updateplus1&#45;&gt;thestream -->
<g id="edge1" class="edge">
<title>updateplus1&#45;&gt;thestream:plusone</title>
<path fill="none" stroke="maroon" d="M219.21,-319.89C219.21,-309.89 219.21,-296.77 219.21,-284.05"/>
<polygon fill="maroon" stroke="maroon" points="222.71,-284 219.21,-274 215.71,-284 222.71,-284"/>
</g>
<!-- updateplus3 -->
<g id="node3" class="node">
<title>updateplus3</title>
<polygon fill="yellow" stroke="transparent" points="382.22,-356 302.2,-356 302.2,-320 382.22,-320 382.22,-356"/>
<text text-anchor="middle" x="342.21" y="-334.4" font-family="Courier,monospace" font-size="12.00">update(&#45;3)</text>
</g>
<!-- updateplus3&#45;&gt;thestream -->
<g id="edge2" class="edge">
<title>updateplus3&#45;&gt;thestream:plusthree</title>
<path fill="none" stroke="maroon" d="M342.21,-319.89C342.21,-309.89 342.21,-296.77 342.21,-284.05"/>
<polygon fill="maroon" stroke="maroon" points="345.71,-284 342.21,-274 338.71,-284 345.71,-284"/>
</g>
<!-- updateplus4 -->
<g id="node4" class="node">
<title>updateplus4</title>
<polygon fill="yellow" stroke="transparent" points="501.52,-356 428.9,-356 428.9,-320 501.52,-320 501.52,-356"/>
<text text-anchor="middle" x="465.21" y="-334.4" font-family="Courier,monospace" font-size="12.00">update(8)</text>
</g>
<!-- updateplus4&#45;&gt;thestream -->
<g id="edge3" class="edge">
<title>updateplus4&#45;&gt;thestream:plusfour</title>
<path fill="none" stroke="maroon" d="M465.21,-319.89C465.21,-309.89 465.21,-296.77 465.21,-284.05"/>
<polygon fill="maroon" stroke="maroon" points="468.71,-284 465.21,-274 461.71,-284 468.71,-284"/>
</g>
<!-- updateplus2 -->
<g id="node5" class="node">
<title>updateplus2</title>
<polygon fill="yellow" stroke="transparent" points="620.52,-356 547.9,-356 547.9,-320 620.52,-320 620.52,-356"/>
<text text-anchor="middle" x="584.21" y="-334.4" font-family="Courier,monospace" font-size="12.00">update(2)</text>
</g>
<!-- updateplus2&#45;&gt;thestream -->
<g id="edge4" class="edge">
<title>updateplus2&#45;&gt;thestream:plustwo</title>
<path fill="none" stroke="maroon" d="M584.21,-319.89C584.21,-309.89 584.21,-296.77 584.21,-284.05"/>
<polygon fill="maroon" stroke="maroon" points="587.71,-284 584.21,-274 580.71,-284 587.71,-284"/>
</g>
<!-- scan1 -->
<g id="node10" class="node">
<title>scan1</title>
<polygon fill="yellow" stroke="transparent" points="255.52,-210 182.9,-210 182.9,-174 255.52,-174 255.52,-210"/>
<text text-anchor="middle" x="219.21" y="-188.4" font-family="Courier,monospace" font-size="12.00">0 + 5 = 5</text>
</g>
<!-- thestream&#45;&gt;scan1 -->
<g id="edge16" class="edge">
<title>thestream:plusone&#45;&gt;scan1</title>
<path fill="none" stroke="maroon" d="M219.21,-245.95C219.21,-233.23 219.21,-220.11 219.21,-210.11"/>
<polygon fill="maroon" stroke="maroon" points="215.71,-246 219.21,-256 222.71,-246 215.71,-246"/>
</g>
<!-- scan2 -->
<g id="node11" class="node">
<title>scan2</title>
<polygon fill="yellow" stroke="transparent" points="382.22,-210 302.2,-210 302.2,-174 382.22,-174 382.22,-210"/>
<text text-anchor="middle" x="342.21" y="-188.4" font-family="Courier,monospace" font-size="12.00">5 + &#45;3 = 2</text>
</g>
<!-- thestream&#45;&gt;scan2 -->
<g id="edge17" class="edge">
<title>thestream:plusthree&#45;&gt;scan2</title>
<path fill="none" stroke="maroon" d="M342.21,-245.95C342.21,-233.23 342.21,-220.11 342.21,-210.11"/>
<polygon fill="maroon" stroke="maroon" points="338.71,-246 342.21,-256 345.71,-246 338.71,-246"/>
</g>
<!-- scan3 -->
<g id="node12" class="node">
<title>scan3</title>
<polygon fill="yellow" stroke="transparent" points="505.22,-210 425.2,-210 425.2,-174 505.22,-174 505.22,-210"/>
<text text-anchor="middle" x="465.21" y="-188.4" font-family="Courier,monospace" font-size="12.00">2 + 8 = 10</text>
</g>
<!-- thestream&#45;&gt;scan3 -->
<g id="edge18" class="edge">
<title>thestream:plusfour&#45;&gt;scan3</title>
<path fill="none" stroke="maroon" d="M465.21,-245.95C465.21,-233.23 465.21,-220.11 465.21,-210.11"/>
<polygon fill="maroon" stroke="maroon" points="461.71,-246 465.21,-256 468.71,-246 461.71,-246"/>
</g>
<!-- scan4 -->
<g id="node13" class="node">
<title>scan4</title>
<polygon fill="yellow" stroke="transparent" points="627.93,-210 540.5,-210 540.5,-174 627.93,-174 627.93,-210"/>
<text text-anchor="middle" x="584.21" y="-188.4" font-family="Courier,monospace" font-size="12.00">10 + 2 = 12</text>
</g>
<!-- thestream&#45;&gt;scan4 -->
<g id="edge19" class="edge">
<title>thestream:plustwo&#45;&gt;scan4</title>
<path fill="none" stroke="maroon" d="M584.21,-245.95C584.21,-233.23 584.21,-220.11 584.21,-210.11"/>
<polygon fill="maroon" stroke="maroon" points="580.71,-246 584.21,-256 587.71,-246 580.71,-246"/>
</g>
<!-- scan -->
<g id="node7" class="node">
<title>scan</title>
<text text-anchor="start" x="207.99" y="-46.4" font-family="Courier,monospace" font-size="12.00">var otherStream = scan(function(latest, next) {</text>
<text text-anchor="start" x="208.21" y="-28.4" font-family="Courier,monospace" font-size="12.00"> &#160;&#160;&#160;return latest + next;</text>
<text text-anchor="start" x="208.21" y="-10.4" font-family="Courier,monospace" font-size="12.00">}, 0, update);</text>
</g>
<!-- thescanstream -->
<g id="node8" class="node">
<title>thescanstream</title>
<polygon fill="orange" stroke="transparent" points="634.71,-137 119.71,-137 119.71,-101 634.71,-101 634.71,-137"/>
<text text-anchor="start" x="129.11" y="-115.4" font-family="Courier,monospace" font-size="12.00">0</text>
<text text-anchor="start" x="141.8" y="-115.4" font-family="Courier,monospace" font-size="12.00">      ...     </text>
<text text-anchor="start" x="248.11" y="-115.4" font-family="Courier,monospace" font-size="12.00">5</text>
<text text-anchor="start" x="260.8" y="-115.4" font-family="Courier,monospace" font-size="12.00">      ...     </text>
<text text-anchor="start" x="367.11" y="-115.4" font-family="Courier,monospace" font-size="12.00">2</text>
<text text-anchor="start" x="379.8" y="-115.4" font-family="Courier,monospace" font-size="12.00">      ...     </text>
<text text-anchor="start" x="486.01" y="-115.4" font-family="Courier,monospace" font-size="12.00">10</text>
<text text-anchor="start" x="505.8" y="-115.4" font-family="Courier,monospace" font-size="12.00">      ...     </text>
<text text-anchor="start" x="612.01" y="-115.4" font-family="Courier,monospace" font-size="12.00">12</text>
<polygon fill="none" stroke="black" points="123.71,-108 123.71,-130 630.71,-130 630.71,-108 123.71,-108"/>
</g>
<!-- thescanstream&#45;&gt;scan -->
<g id="edge6" class="edge">
<title>thescanstream&#45;&gt;scan</title>
<path fill="none" stroke="maroon" d="M377.21,-90.73C377.21,-82.3 377.21,-72.95 377.21,-64.27"/>
<polygon fill="maroon" stroke="maroon" points="373.71,-90.8 377.21,-100.8 380.71,-90.8 373.71,-90.8"/>
</g>
<!-- scan0 -->
<g id="node9" class="node">
<title>scan0</title>
<polygon fill="yellow" stroke="transparent" points="161.62,-210 102.8,-210 102.8,-174 161.62,-174 161.62,-210"/>
<text text-anchor="middle" x="132.21" y="-188.4" font-family="Courier,monospace" font-size="12.00">initial</text>
</g>
<!-- scan0&#45;&gt;thescanstream -->
<g id="edge7" class="edge">
<title>scan0&#45;&gt;thescanstream:initial</title>
<path fill="none" stroke="maroon" d="M132.21,-173.89C132.21,-163.89 132.21,-150.77 132.21,-138.05"/>
<polygon fill="maroon" stroke="maroon" points="135.71,-138 132.21,-128 128.71,-138 135.71,-138"/>
</g>
<!-- scan1&#45;&gt;thescanstream -->
<g id="edge8" class="edge">
<title>scan1&#45;&gt;thescanstream:one</title>
<path fill="none" stroke="maroon" d="M233.34,-173.97C240.17,-164.36 247.47,-151.63 250.15,-138.28"/>
<polygon fill="maroon" stroke="maroon" points="253.66,-138.31 251.21,-128 246.7,-137.59 253.66,-138.31"/>
</g>
<!-- scan1&#45;&gt;thescanstream -->
<g id="edge12" class="edge">
<title>scan1&#45;&gt;thescanstream:initial</title>
<path fill="none" stroke="maroon" d="M185.33,-173.92C166.24,-163.39 144.56,-149.65 135.99,-137.61"/>
<polygon fill="maroon" stroke="maroon" points="139.13,-136.03 132.21,-128 132.61,-138.59 139.13,-136.03"/>
</g>
<!-- scan2&#45;&gt;thescanstream -->
<g id="edge9" class="edge">
<title>scan2&#45;&gt;thescanstream:four</title>
<path fill="none" stroke="maroon" d="M354.41,-173.98C360.43,-164.26 366.89,-151.4 369.27,-138.16"/>
<polygon fill="maroon" stroke="maroon" points="372.77,-138.28 370.21,-128 365.8,-137.63 372.77,-138.28"/>
</g>
<!-- scan2&#45;&gt;thescanstream -->
<g id="edge13" class="edge">
<title>scan2&#45;&gt;thescanstream:one</title>
<path fill="none" stroke="maroon" d="M302.03,-180.09C280.89,-171.99 258.2,-158.71 252.55,-138.03"/>
<polygon fill="maroon" stroke="maroon" points="256,-137.45 251.21,-128 249.06,-138.37 256,-137.45"/>
</g>
<!-- scan3&#45;&gt;thescanstream -->
<g id="edge10" class="edge">
<title>scan3&#45;&gt;thescanstream:eight</title>
<path fill="none" stroke="maroon" d="M477.41,-173.98C483.43,-164.26 489.89,-151.4 492.27,-138.16"/>
<polygon fill="maroon" stroke="maroon" points="495.77,-138.28 493.21,-128 488.8,-137.63 495.77,-138.28"/>
</g>
<!-- scan3&#45;&gt;thescanstream -->
<g id="edge14" class="edge">
<title>scan3&#45;&gt;thescanstream:four</title>
<path fill="none" stroke="maroon" d="M425.2,-181.27C402.48,-173.42 377.42,-159.96 371.51,-137.96"/>
<polygon fill="maroon" stroke="maroon" points="374.98,-137.46 370.21,-128 368.03,-138.37 374.98,-137.46"/>
</g>
<!-- scan4&#45;&gt;thescanstream -->
<g id="edge11" class="edge">
<title>scan4&#45;&gt;thescanstream:ten</title>
<path fill="none" stroke="maroon" d="M599.87,-173.93C607.37,-164.31 615.32,-151.53 618.15,-137.97"/>
<polygon fill="maroon" stroke="maroon" points="621.63,-138.32 619.21,-128 614.67,-137.57 621.63,-138.32"/>
</g>
<!-- scan4&#45;&gt;thescanstream -->
<g id="edge15" class="edge">
<title>scan4&#45;&gt;thescanstream:eight</title>
<path fill="none" stroke="maroon" d="M540.58,-178.72C520.51,-170.54 499.95,-157.62 494.57,-138.11"/>
<polygon fill="maroon" stroke="maroon" points="498.01,-137.45 493.21,-128 491.07,-138.38 498.01,-137.45"/>
</g>
</g>
</svg>
