<?xml version="1.0" encoding="UTF-8" standalone="no"?>
<!DOCTYPE svg PUBLIC "-//W3C//DTD SVG 1.1//EN"
 "http://www.w3.org/Graphics/SVG/1.1/DTD/svg11.dtd">
<!-- Generated by graphviz version 2.44.0 (20200408.0750)
 -->
<!-- Title: meiosistutorial Pages: 1 -->
<svg width="482pt" height="294pt"
 viewBox="0.00 0.00 482.00 294.00" xmlns="http://www.w3.org/2000/svg" xmlns:xlink="http://www.w3.org/1999/xlink">
<g id="graph0" class="graph" transform="scale(1 1) rotate(0) translate(4 290)">
<title>meiosistutorial</title>
<polygon fill="white" stroke="transparent" points="-4,4 -4,-290 478,-290 478,4 -4,4"/>
<!-- stream -->
<g id="node1" class="node">
<title>stream</title>
<text text-anchor="middle" x="87" y="-191.9" font-family="Courier,monospace" font-size="12.00">var update = stream();</text>
</g>
<!-- thestream -->
<g id="node4" class="node">
<title>thestream</title>
<polygon fill="lightblue" stroke="transparent" points="373,-213 213,-213 213,-177 373,-177 373,-213"/>
<text text-anchor="start" x="222" y="-191.4" font-family="Courier,monospace" font-size="12.00">1</text>
<text text-anchor="start" x="236" y="-191.4" font-family="Courier,monospace" font-size="12.00">      ...     </text>
<text text-anchor="start" x="348" y="-191.4" font-family="Courier,monospace" font-size="12.00">&#45;1</text>
<polygon fill="none" stroke="black" points="217,-183.5 217,-206.5 369,-206.5 369,-183.5 217,-183.5"/>
</g>
<!-- stream&#45;&gt;thestream -->
<g id="edge3" class="edge">
<title>stream&#45;&gt;thestream</title>
<path fill="none" stroke="maroon" d="M174.06,-195C183.5,-195 193.12,-195 202.59,-195"/>
<polygon fill="maroon" stroke="maroon" points="202.8,-198.5 212.8,-195 202.8,-191.5 202.8,-198.5"/>
<text text-anchor="middle" x="193.5" y="-201.4" font-family="Helvetica,sans-Serif" font-size="12.00" fill="navy"> &#160;&#160;&#160;&#160;&#160;&#160;&#160;</text>
</g>
<!-- updateplus1 -->
<g id="node2" class="node">
<title>updateplus1</title>
<polygon fill="yellow" stroke="transparent" points="264,-286 188,-286 188,-250 264,-250 264,-286"/>
<text text-anchor="middle" x="226" y="-264.9" font-family="Courier,monospace" font-size="12.00">update(1)</text>
</g>
<!-- updateplus1&#45;&gt;thestream -->
<g id="edge1" class="edge">
<title>updateplus1&#45;&gt;thestream:plusone</title>
<path fill="none" stroke="maroon" d="M226,-249.89C226,-239.89 226,-226.77 226,-214.05"/>
<polygon fill="maroon" stroke="maroon" points="229.5,-214 226,-204 222.5,-214 229.5,-214"/>
</g>
<!-- updateminus1 -->
<g id="node3" class="node">
<title>updateminus1</title>
<polygon fill="yellow" stroke="transparent" points="398,-286 314,-286 314,-250 398,-250 398,-286"/>
<text text-anchor="middle" x="356" y="-264.9" font-family="Courier,monospace" font-size="12.00">update(&#45;1)</text>
</g>
<!-- updateminus1&#45;&gt;thestream -->
<g id="edge2" class="edge">
<title>updateminus1&#45;&gt;thestream:minusone</title>
<path fill="none" stroke="maroon" d="M356,-249.89C356,-239.89 356,-226.77 356,-214.05"/>
<polygon fill="maroon" stroke="maroon" points="359.5,-214 356,-204 352.5,-214 359.5,-214"/>
</g>
<!-- map -->
<g id="node5" class="node">
<title>map</title>
<text text-anchor="start" x="120" y="-121.9" font-family="Courier,monospace" font-size="12.00">var otherStream = update.map(function(value) {</text>
<text text-anchor="start" x="120" y="-102.9" font-family="Courier,monospace" font-size="12.00"> &#160;&#160;&#160;return value * 10;</text>
<text text-anchor="start" x="120" y="-83.9" font-family="Courier,monospace" font-size="12.00">});</text>
</g>
<!-- thestream&#45;&gt;map -->
<g id="edge4" class="edge">
<title>thestream&#45;&gt;map</title>
<path fill="none" stroke="maroon" d="M293,-166.87C293,-158.45 293,-149.08 293,-140.31"/>
<polygon fill="maroon" stroke="maroon" points="289.5,-166.91 293,-176.91 296.5,-166.91 289.5,-166.91"/>
</g>
<!-- themapstream -->
<g id="node6" class="node">
<title>themapstream</title>
<polygon fill="orange" stroke="transparent" points="380.5,-36 205.5,-36 205.5,0 380.5,0 380.5,-36"/>
<text text-anchor="start" x="215" y="-14.4" font-family="Courier,monospace" font-size="12.00">10</text>
<text text-anchor="start" x="237" y="-14.4" font-family="Courier,monospace" font-size="12.00">      ...     </text>
<text text-anchor="start" x="349" y="-14.4" font-family="Courier,monospace" font-size="12.00">&#45;10</text>
<polygon fill="none" stroke="black" points="209.5,-6.5 209.5,-29.5 376.5,-29.5 376.5,-6.5 209.5,-6.5"/>
</g>
<!-- map&#45;&gt;themapstream -->
<g id="edge5" class="edge">
<title>map&#45;&gt;themapstream</title>
<path fill="none" stroke="maroon" d="M293,-72.8C293,-64.05 293,-54.69 293,-46.27"/>
<polygon fill="maroon" stroke="maroon" points="296.5,-46.23 293,-36.23 289.5,-46.23 296.5,-46.23"/>
</g>
<!-- otherStream -->
<g id="node7" class="node">
<title>otherStream</title>
<text text-anchor="middle" x="121" y="-14.9" font-family="Courier,monospace" font-size="12.00">otherStream</text>
</g>
<!-- otherStream&#45;&gt;themapstream -->
<g id="edge6" class="edge">
<title>otherStream&#45;&gt;themapstream</title>
<path fill="none" stroke="maroon" d="M166.64,-18C175.51,-18 185.11,-18 194.93,-18"/>
<polygon fill="maroon" stroke="maroon" points="195.21,-21.5 205.21,-18 195.21,-14.5 195.21,-21.5"/>
<text text-anchor="middle" x="186" y="-24.4" font-family="Helvetica,sans-Serif" font-size="12.00" fill="navy"> &#160;&#160;&#160;&#160;&#160;&#160;&#160;</text>
</g>
</g>
</svg>
