<?xml version="1.0" encoding="UTF-8" standalone="no"?>
<!DOCTYPE svg PUBLIC "-//W3C//DTD SVG 1.1//EN"
 "http://www.w3.org/Graphics/SVG/1.1/DTD/svg11.dtd">
<!-- Generated by graphviz version 2.40.1 (20161225.0304)
 -->
<!-- Title: meiosistutorial Pages: 1 -->
<svg width="770pt" height="364pt"
 viewBox="0.00 0.00 769.84 364.00" xmlns="http://www.w3.org/2000/svg" xmlns:xlink="http://www.w3.org/1999/xlink">
<g id="graph0" class="graph" transform="scale(1 1) rotate(0) translate(4 360)">
<title>meiosistutorial</title>
<polygon fill="#ffffff" stroke="transparent" points="-4,4 -4,-360 765.8369,-360 765.8369,4 -4,4"/>
<!-- stream -->
<g id="node1" class="node">
<title>stream</title>
<text text-anchor="middle" x="83.2129" y="-261.4" font-family="Courier,monospace" font-size="12.00" fill="#000000">var update = stream();</text>
</g>
<!-- thestream -->
<g id="node4" class="node">
<title>thestream</title>
<polygon fill="#add8e6" stroke="transparent" points="711.2129,-283 207.2129,-283 207.2129,-247 711.2129,-247 711.2129,-283"/>
<text text-anchor="start" x="216.1982" y="-261.4" font-family="Courier,monospace" font-size="12.00" fill="#000000">{ oper: &quot;add&quot;, value: 1 }</text>
<text text-anchor="start" x="401.8047" y="-261.4" font-family="Courier,monospace" font-size="12.00" fill="#000000">      ...     </text>
<text text-anchor="start" x="507.9971" y="-261.4" font-family="Courier,monospace" font-size="12.00" fill="#000000">{ oper: &quot;times&quot;, value: 2 }</text>
<polygon fill="none" stroke="#000000" points="211.2129,-254 211.2129,-276 707.2129,-276 707.2129,-254 211.2129,-254"/>
</g>
<!-- stream&#45;&gt;thestream -->
<g id="edge3" class="edge">
<title>stream&#45;&gt;thestream</title>
<path fill="none" stroke="#b03060" d="M166.6595,-265C176.2508,-265 186.3746,-265 196.8665,-265"/>
<polygon fill="#b03060" stroke="#b03060" points="197.0334,-268.5001 207.0333,-265 197.0333,-261.5001 197.0334,-268.5001"/>
<text text-anchor="middle" x="186.8193" y="-270.4" font-family="Helvetica,sans-Serif" font-size="12.00" fill="#000080"> &#160;&#160;&#160;&#160;&#160;&#160;&#160;</text>
</g>
<!-- updateplus1 -->
<g id="node2" class="node">
<title>updateplus1</title>
<polygon fill="#ffff00" stroke="transparent" points="428.8518,-356 183.574,-356 183.574,-320 428.8518,-320 428.8518,-356"/>
<text text-anchor="middle" x="306.2129" y="-334.4" font-family="Courier,monospace" font-size="12.00" fill="#000000">update({ oper: &quot;add&quot;, value: 1 })</text>
</g>
<!-- updateplus1&#45;&gt;thestream -->
<g id="edge1" class="edge">
<title>updateplus1&#45;&gt;thestream:plusone</title>
<path fill="none" stroke="#b03060" d="M306.2129,-319.7883C306.2129,-309.5059 306.2129,-296.1556 306.2129,-283.2194"/>
<polygon fill="#b03060" stroke="#b03060" points="309.713,-283 306.2129,-273 302.713,-283 309.713,-283"/>
</g>
<!-- updateplus3 -->
<g id="node3" class="node">
<title>updateplus3</title>
<polygon fill="#ffff00" stroke="transparent" points="735.2539,-356 475.1719,-356 475.1719,-320 735.2539,-320 735.2539,-356"/>
<text text-anchor="middle" x="605.2129" y="-334.4" font-family="Courier,monospace" font-size="12.00" fill="#000000">update({ oper: &quot;times&quot;, value: 2 })</text>
</g>
<!-- updateplus3&#45;&gt;thestream -->
<g id="edge2" class="edge">
<title>updateplus3&#45;&gt;thestream:plusthree</title>
<path fill="none" stroke="#b03060" d="M605.2129,-319.7883C605.2129,-309.5059 605.2129,-296.1556 605.2129,-283.2194"/>
<polygon fill="#b03060" stroke="#b03060" points="608.713,-283 605.2129,-273 601.713,-283 608.713,-283"/>
</g>
<!-- scan1 -->
<g id="node8" class="node">
<title>scan1</title>
<polygon fill="#ffff00" stroke="transparent" points="444.5586,-210 155.8671,-210 155.8671,-174 444.5586,-174 444.5586,-210"/>
<text text-anchor="middle" x="300.2129" y="-194.4" font-family="Courier,monospace" font-size="12.00" fill="#000000">function(10, { oper: &quot;add&quot;, value: 1 })</text>
<text text-anchor="middle" x="300.2129" y="-182.4" font-family="Courier,monospace" font-size="12.00" fill="#000000">return 11;</text>
</g>
<!-- thestream&#45;&gt;scan1 -->
<g id="edge10" class="edge">
<title>thestream:plusone&#45;&gt;scan1</title>
<path fill="none" stroke="#b03060" d="M305.9918,-246.7474C305.4633,-233.7804 304.0754,-220.4373 302.7923,-210.1703"/>
<polygon fill="#b03060" stroke="#b03060" points="302.498,-247.0778 306.2129,-257 309.4964,-246.9268 302.498,-247.0778"/>
</g>
<!-- scan2 -->
<g id="node9" class="node">
<title>scan2</title>
<polygon fill="#ffff00" stroke="transparent" points="761.961,-210 458.4647,-210 458.4647,-174 761.961,-174 761.961,-210"/>
<text text-anchor="middle" x="610.2129" y="-194.4" font-family="Courier,monospace" font-size="12.00" fill="#000000">function(11, { oper: &quot;times&quot;, value: 2 })</text>
<text text-anchor="middle" x="610.2129" y="-182.4" font-family="Courier,monospace" font-size="12.00" fill="#000000">return 22;</text>
</g>
<!-- thestream&#45;&gt;scan2 -->
<g id="edge11" class="edge">
<title>thestream:plusthree&#45;&gt;scan2</title>
<path fill="none" stroke="#b03060" d="M605.3971,-246.7575C605.8375,-233.7999 606.9941,-220.4546 608.0634,-210.1829"/>
<polygon fill="#b03060" stroke="#b03060" points="601.8934,-246.9386 605.2129,-257 608.8923,-247.0646 601.8934,-246.9386"/>
</g>
<!-- scan -->
<g id="node5" class="node">
<title>scan</title>
<text text-anchor="start" x="210.2129" y="-46.4" font-family="Courier,monospace" font-size="12.00" fill="#000000">var otherStream = scan(function(model, obj) {</text>
<text text-anchor="start" x="210.1777" y="-28.4" font-family="Courier,monospace" font-size="12.00" fill="#000000"> &#160;&#160;&#160;// use obj oper and value to update and return the model</text>
<text text-anchor="start" x="210.2129" y="-10.4" font-family="Courier,monospace" font-size="12.00" fill="#000000">}, 10, update);</text>
</g>
<!-- thescanstream -->
<g id="node6" class="node">
<title>thescanstream</title>
<polygon fill="#ffa500" stroke="transparent" points="568.2129,-137 284.2129,-137 284.2129,-101 568.2129,-101 568.2129,-137"/>
<text text-anchor="start" x="293.0117" y="-115.4" font-family="Courier,monospace" font-size="12.00" fill="#000000">10</text>
<text text-anchor="start" x="312.8047" y="-115.4" font-family="Courier,monospace" font-size="12.00" fill="#000000">      ...     </text>
<text text-anchor="start" x="419.0117" y="-115.4" font-family="Courier,monospace" font-size="12.00" fill="#000000">11</text>
<text text-anchor="start" x="438.8047" y="-115.4" font-family="Courier,monospace" font-size="12.00" fill="#000000">      ...     </text>
<text text-anchor="start" x="545.0117" y="-115.4" font-family="Courier,monospace" font-size="12.00" fill="#000000">22</text>
<polygon fill="none" stroke="#000000" points="288.2129,-108 288.2129,-130 564.2129,-130 564.2129,-108 288.2129,-108"/>
</g>
<!-- thescanstream&#45;&gt;scan -->
<g id="edge4" class="edge">
<title>thescanstream&#45;&gt;scan</title>
<path fill="none" stroke="#b03060" d="M426.2129,-90.7732C426.2129,-82.2491 426.2129,-72.8287 426.2129,-64.0732"/>
<polygon fill="#b03060" stroke="#b03060" points="422.713,-90.9735 426.2129,-100.9735 429.713,-90.9736 422.713,-90.9735"/>
</g>
<!-- scan0 -->
<g id="node7" class="node">
<title>scan0</title>
<polygon fill="#ffff00" stroke="transparent" points="141.6225,-210 82.8033,-210 82.8033,-174 141.6225,-174 141.6225,-210"/>
<text text-anchor="middle" x="112.2129" y="-188.4" font-family="Courier,monospace" font-size="12.00" fill="#000000">initial</text>
</g>
<!-- scan0&#45;&gt;thescanstream -->
<g id="edge5" class="edge">
<title>scan0&#45;&gt;thescanstream:initial</title>
<path fill="none" stroke="#b03060" d="M138.1503,-173.9551C169.8454,-153.6043 226.0592,-122.8665 280.9794,-119.3343"/>
<polygon fill="#b03060" stroke="#b03060" points="281.3325,-122.8247 291.2129,-119 281.1039,-115.8285 281.3325,-122.8247"/>
</g>
<!-- scan1&#45;&gt;thescanstream -->
<g id="edge6" class="edge">
<title>scan1&#45;&gt;thescanstream:one</title>
<path fill="none" stroke="#b03060" d="M389.4298,-173.8739C406.8841,-165.7521 421.0707,-153.9994 425.0778,-136.9965"/>
<polygon fill="#b03060" stroke="#b03060" points="428.5623,-137.3311 426.2129,-127 421.6069,-136.5413 428.5623,-137.3311"/>
</g>
<!-- scan1&#45;&gt;thescanstream -->
<g id="edge8" class="edge">
<title>scan1&#45;&gt;thescanstream:initial</title>
<path fill="none" stroke="#b03060" d="M300.2129,-173.7883C300.2129,-163.5059 300.2129,-150.1556 300.2129,-137.2194"/>
<polygon fill="#b03060" stroke="#b03060" points="303.713,-137 300.2129,-127 296.713,-137 303.713,-137"/>
</g>
<!-- scan2&#45;&gt;thescanstream -->
<g id="edge7" class="edge">
<title>scan2&#45;&gt;thescanstream:four</title>
<path fill="none" stroke="#b03060" d="M580.8731,-173.7508C569.0722,-164.4025 557.3463,-151.8571 553.5134,-137.0479"/>
<polygon fill="#b03060" stroke="#b03060" points="556.9676,-136.468 552.2129,-127 550.0255,-137.3666 556.9676,-136.468"/>
</g>
<!-- scan2&#45;&gt;thescanstream -->
<g id="edge9" class="edge">
<title>scan2&#45;&gt;thescanstream:one</title>
<path fill="none" stroke="#b03060" d="M510.6735,-173.9366C474.432,-164.9105 439.7614,-152.499 429.3606,-136.6963"/>
<polygon fill="#b03060" stroke="#b03060" points="432.6296,-135.4307 426.2129,-127 425.9717,-137.5921 432.6296,-135.4307"/>
</g>
</g>
</svg>
