<?xml version="1.0" encoding="UTF-8" standalone="no"?>
<!DOCTYPE svg PUBLIC "-//W3C//DTD SVG 1.1//EN"
 "http://www.w3.org/Graphics/SVG/1.1/DTD/svg11.dtd">
<!-- Generated by graphviz version 2.40.1 (20161225.0304)
 -->
<!-- Title: meiosistutorial Pages: 1 -->
<svg width="146pt" height="216pt"
 viewBox="0.00 0.00 146.00 216.00" xmlns="http://www.w3.org/2000/svg" xmlns:xlink="http://www.w3.org/1999/xlink">
<g id="graph0" class="graph" transform="scale(1 1) rotate(0) translate(4 212)">
<title>meiosistutorial</title>
<polygon fill="#ffffff" stroke="transparent" points="-4,4 -4,-212 142,-212 142,4 -4,4"/>
<!-- onclick -->
<g id="node1" class="node">
<title>onclick</title>
<polygon fill="#add8e6" stroke="transparent" points="102,-36 36,-36 36,0 102,0 102,-36"/>
<text text-anchor="start" x="43.7959" y="-14.4" font-family="Courier,monospace" font-size="12.00" fill="#000000">onclick</text>
</g>
<!-- event -->
<g id="node2" class="node">
<title>event</title>
<polygon fill="#ffa500" stroke="transparent" points="138,-136 0,-136 0,-72 138,-72 138,-136"/>
<text text-anchor="start" x="7.79" y="-118.4" font-family="Courier,monospace" font-size="12.00" fill="#000000">function(event) {</text>
<text text-anchor="start" x="8" y="-100.4" font-family="Courier,monospace" font-size="12.00" fill="#000000"> &#160;&#160;&#160;update(1);</text>
<text text-anchor="start" x="8" y="-82.4" font-family="Courier,monospace" font-size="12.00" fill="#000000">}</text>
</g>
<!-- event&#45;&gt;onclick -->
<g id="edge1" class="edge">
<title>event&#45;&gt;onclick</title>
<path fill="none" stroke="#b03060" d="M69,-71.9768C69,-63.609 69,-54.647 69,-46.4774"/>
<polygon fill="#b03060" stroke="#b03060" points="72.5001,-46.3107 69,-36.3108 65.5001,-46.3108 72.5001,-46.3107"/>
</g>
<!-- increase -->
<g id="node3" class="node">
<title>increase</title>
<polygon fill="#ffff00" stroke="transparent" points="116.5,-208 21.5,-208 21.5,-172 116.5,-172 116.5,-208"/>
<text text-anchor="start" x="29.8936" y="-186.4" font-family="Courier,monospace" font-size="12.00" fill="#000000">increase(1)</text>
</g>
<!-- increase&#45;&gt;event -->
<g id="edge2" class="edge">
<title>increase&#45;&gt;event</title>
<path fill="none" stroke="#b03060" d="M69,-171.7616C69,-164.2386 69,-155.1818 69,-146.1733"/>
<polygon fill="#b03060" stroke="#b03060" points="72.5001,-146.1073 69,-136.1073 65.5001,-146.1073 72.5001,-146.1073"/>
</g>
</g>
</svg>
