<?xml version="1.0" encoding="UTF-8" standalone="no"?>
<!DOCTYPE svg PUBLIC "-//W3C//DTD SVG 1.1//EN"
 "http://www.w3.org/Graphics/SVG/1.1/DTD/svg11.dtd">
<!-- Generated by graphviz version 2.40.1 (20161225.0304)
 -->
<!-- Title: meiosistutorial Pages: 1 -->
<svg width="664pt" height="364pt"
 viewBox="0.00 0.00 663.61 364.00" xmlns="http://www.w3.org/2000/svg" xmlns:xlink="http://www.w3.org/1999/xlink">
<g id="graph0" class="graph" transform="scale(1 1) rotate(0) translate(4 360)">
<title>meiosistutorial</title>
<polygon fill="#ffffff" stroke="transparent" points="-4,4 -4,-360 659.6123,-360 659.6123,4 -4,4"/>
<!-- stream -->
<g id="node1" class="node">
<title>stream</title>
<text text-anchor="middle" x="79.6123" y="-261.4" font-family="Courier,monospace" font-size="12.00" fill="#000000">var update = stream()</text>
</g>
<!-- thestream -->
<g id="node6" class="node">
<title>thestream</title>
<polygon fill="#add8e6" stroke="transparent" points="581.6123,-283 199.6123,-283 199.6123,-247 581.6123,-247 581.6123,-283"/>
<text text-anchor="start" x="208.5117" y="-261.4" font-family="Courier,monospace" font-size="12.00" fill="#000000">1</text>
<text text-anchor="start" x="221.2041" y="-261.4" font-family="Courier,monospace" font-size="12.00" fill="#000000">      ...     </text>
<text text-anchor="start" x="327.5117" y="-261.4" font-family="Courier,monospace" font-size="12.00" fill="#000000">3</text>
<text text-anchor="start" x="340.2041" y="-261.4" font-family="Courier,monospace" font-size="12.00" fill="#000000">      ...     </text>
<text text-anchor="start" x="446.5117" y="-261.4" font-family="Courier,monospace" font-size="12.00" fill="#000000">4</text>
<text text-anchor="start" x="459.2041" y="-261.4" font-family="Courier,monospace" font-size="12.00" fill="#000000">      ...     </text>
<text text-anchor="start" x="565.5117" y="-261.4" font-family="Courier,monospace" font-size="12.00" fill="#000000">2</text>
<polygon fill="none" stroke="#000000" points="203.6123,-254 203.6123,-276 577.6123,-276 577.6123,-254 203.6123,-254"/>
</g>
<!-- stream&#45;&gt;thestream -->
<g id="edge5" class="edge">
<title>stream&#45;&gt;thestream</title>
<path fill="none" stroke="#b03060" d="M159.2987,-265C168.9137,-265 179.0408,-265 189.4684,-265"/>
<polygon fill="#b03060" stroke="#b03060" points="189.5511,-268.5001 199.5511,-265 189.551,-261.5001 189.5511,-268.5001"/>
<text text-anchor="middle" x="179.4185" y="-270.4" font-family="Helvetica,sans-Serif" font-size="12.00" fill="#000080"> &#160;&#160;&#160;&#160;&#160;&#160;&#160;</text>
</g>
<!-- updateplus1 -->
<g id="node2" class="node">
<title>updateplus1</title>
<polygon fill="#ffff00" stroke="transparent" points="247.9231,-356 175.3015,-356 175.3015,-320 247.9231,-320 247.9231,-356"/>
<text text-anchor="middle" x="211.6123" y="-334.4" font-family="Courier,monospace" font-size="12.00" fill="#000000">update(1)</text>
</g>
<!-- updateplus1&#45;&gt;thestream -->
<g id="edge1" class="edge">
<title>updateplus1&#45;&gt;thestream:plusone</title>
<path fill="none" stroke="#b03060" d="M211.6123,-319.7883C211.6123,-309.5059 211.6123,-296.1556 211.6123,-283.2194"/>
<polygon fill="#b03060" stroke="#b03060" points="215.1124,-283 211.6123,-273 208.1124,-283 215.1124,-283"/>
</g>
<!-- updateplus3 -->
<g id="node3" class="node">
<title>updateplus3</title>
<polygon fill="#ffff00" stroke="transparent" points="366.9231,-356 294.3015,-356 294.3015,-320 366.9231,-320 366.9231,-356"/>
<text text-anchor="middle" x="330.6123" y="-334.4" font-family="Courier,monospace" font-size="12.00" fill="#000000">update(3)</text>
</g>
<!-- updateplus3&#45;&gt;thestream -->
<g id="edge2" class="edge">
<title>updateplus3&#45;&gt;thestream:plusthree</title>
<path fill="none" stroke="#b03060" d="M330.6123,-319.7883C330.6123,-309.5059 330.6123,-296.1556 330.6123,-283.2194"/>
<polygon fill="#b03060" stroke="#b03060" points="334.1124,-283 330.6123,-273 327.1124,-283 334.1124,-283"/>
</g>
<!-- updateplus4 -->
<g id="node4" class="node">
<title>updateplus4</title>
<polygon fill="#ffff00" stroke="transparent" points="486.9231,-356 414.3015,-356 414.3015,-320 486.9231,-320 486.9231,-356"/>
<text text-anchor="middle" x="450.6123" y="-334.4" font-family="Courier,monospace" font-size="12.00" fill="#000000">update(4)</text>
</g>
<!-- updateplus4&#45;&gt;thestream -->
<g id="edge3" class="edge">
<title>updateplus4&#45;&gt;thestream:plusfour</title>
<path fill="none" stroke="#b03060" d="M450.6123,-319.7883C450.6123,-309.5059 450.6123,-296.1556 450.6123,-283.2194"/>
<polygon fill="#b03060" stroke="#b03060" points="454.1124,-283 450.6123,-273 447.1124,-283 454.1124,-283"/>
</g>
<!-- updateplus2 -->
<g id="node5" class="node">
<title>updateplus2</title>
<polygon fill="#ffff00" stroke="transparent" points="605.9231,-356 533.3015,-356 533.3015,-320 605.9231,-320 605.9231,-356"/>
<text text-anchor="middle" x="569.6123" y="-334.4" font-family="Courier,monospace" font-size="12.00" fill="#000000">update(2)</text>
</g>
<!-- updateplus2&#45;&gt;thestream -->
<g id="edge4" class="edge">
<title>updateplus2&#45;&gt;thestream:plustwo</title>
<path fill="none" stroke="#b03060" d="M569.6123,-319.7883C569.6123,-309.5059 569.6123,-296.1556 569.6123,-283.2194"/>
<polygon fill="#b03060" stroke="#b03060" points="573.1124,-283 569.6123,-273 566.1124,-283 573.1124,-283"/>
</g>
<!-- scan -->
<g id="node7" class="node">
<title>scan</title>
<text text-anchor="start" x="221.3848" y="-192.4" font-family="Courier,monospace" font-size="12.00" fill="#000000">var otherStream = scan(function(latest, next) {</text>
<text text-anchor="start" x="221.6123" y="-174.4" font-family="Courier,monospace" font-size="12.00" fill="#000000"> &#160;&#160;&#160;return latest + next;</text>
<text text-anchor="start" x="221.6123" y="-156.4" font-family="Courier,monospace" font-size="12.00" fill="#000000">}, 0, update);</text>
</g>
<!-- thestream&#45;&gt;scan -->
<g id="edge6" class="edge">
<title>thestream&#45;&gt;scan</title>
<path fill="none" stroke="#b03060" d="M390.6123,-236.7732C390.6123,-228.2491 390.6123,-218.8287 390.6123,-210.0732"/>
<polygon fill="#b03060" stroke="#b03060" points="387.1124,-236.9735 390.6123,-246.9735 394.1124,-236.9736 387.1124,-236.9735"/>
</g>
<!-- thescanstream -->
<g id="node8" class="node">
<title>thescanstream</title>
<polygon fill="#ffa500" stroke="transparent" points="644.6123,-109 136.6123,-109 136.6123,-73 644.6123,-73 644.6123,-109"/>
<text text-anchor="start" x="145.5117" y="-87.4" font-family="Courier,monospace" font-size="12.00" fill="#000000">0</text>
<text text-anchor="start" x="158.2041" y="-87.4" font-family="Courier,monospace" font-size="12.00" fill="#000000">      ...     </text>
<text text-anchor="start" x="264.5117" y="-87.4" font-family="Courier,monospace" font-size="12.00" fill="#000000">1</text>
<text text-anchor="start" x="277.2041" y="-87.4" font-family="Courier,monospace" font-size="12.00" fill="#000000">      ...     </text>
<text text-anchor="start" x="383.5117" y="-87.4" font-family="Courier,monospace" font-size="12.00" fill="#000000">4</text>
<text text-anchor="start" x="396.2041" y="-87.4" font-family="Courier,monospace" font-size="12.00" fill="#000000">      ...     </text>
<text text-anchor="start" x="502.5117" y="-87.4" font-family="Courier,monospace" font-size="12.00" fill="#000000">8</text>
<text text-anchor="start" x="515.2041" y="-87.4" font-family="Courier,monospace" font-size="12.00" fill="#000000">      ...     </text>
<text text-anchor="start" x="621.4111" y="-87.4" font-family="Courier,monospace" font-size="12.00" fill="#000000">10</text>
<polygon fill="none" stroke="#000000" points="140.6123,-80 140.6123,-102 640.6123,-102 640.6123,-80 140.6123,-80"/>
</g>
<!-- scan&#45;&gt;thescanstream -->
<g id="edge7" class="edge">
<title>scan&#45;&gt;thescanstream</title>
<path fill="none" stroke="#b03060" d="M390.6123,-145.6044C390.6123,-136.9084 390.6123,-127.5779 390.6123,-119.1338"/>
<polygon fill="#b03060" stroke="#b03060" points="394.1124,-119.0264 390.6123,-109.0265 387.1124,-119.0265 394.1124,-119.0264"/>
</g>
<!-- scan0 -->
<g id="node10" class="node">
<title>scan0</title>
<polygon fill="#ffff00" stroke="transparent" points="178.0219,-36 119.2027,-36 119.2027,0 178.0219,0 178.0219,-36"/>
<text text-anchor="middle" x="148.6123" y="-14.4" font-family="Courier,monospace" font-size="12.00" fill="#000000">initial</text>
</g>
<!-- thescanstream&#45;&gt;scan0 -->
<g id="edge9" class="edge">
<title>thescanstream:initial&#45;&gt;scan0</title>
<path fill="none" stroke="#b03060" d="M148.6123,-72.7806C148.6123,-59.8444 148.6123,-46.4941 148.6123,-36.2117"/>
<polygon fill="#b03060" stroke="#b03060" points="145.1124,-73 148.6123,-83 152.1124,-73 145.1124,-73"/>
</g>
<!-- scan1 -->
<g id="node11" class="node">
<title>scan1</title>
<polygon fill="#ffff00" stroke="transparent" points="294.6123,-36 240.6123,-36 240.6123,0 294.6123,0 294.6123,-36"/>
<text text-anchor="middle" x="267.6123" y="-14.4" font-family="Courier,monospace" font-size="12.00" fill="#000000">0 + 1</text>
</g>
<!-- thescanstream&#45;&gt;scan1 -->
<g id="edge10" class="edge">
<title>thescanstream:one&#45;&gt;scan1</title>
<path fill="none" stroke="#b03060" d="M267.6123,-72.7806C267.6123,-59.8444 267.6123,-46.4941 267.6123,-36.2117"/>
<polygon fill="#b03060" stroke="#b03060" points="264.1124,-73 267.6123,-83 271.1124,-73 264.1124,-73"/>
</g>
<!-- scan2 -->
<g id="node12" class="node">
<title>scan2</title>
<polygon fill="#ffff00" stroke="transparent" points="413.6123,-36 359.6123,-36 359.6123,0 413.6123,0 413.6123,-36"/>
<text text-anchor="middle" x="386.6123" y="-14.4" font-family="Courier,monospace" font-size="12.00" fill="#000000">1 + 3</text>
</g>
<!-- thescanstream&#45;&gt;scan2 -->
<g id="edge11" class="edge">
<title>thescanstream:four&#45;&gt;scan2</title>
<path fill="none" stroke="#b03060" d="M386.6123,-72.7806C386.6123,-59.8444 386.6123,-46.4941 386.6123,-36.2117"/>
<polygon fill="#b03060" stroke="#b03060" points="383.1124,-73 386.6123,-83 390.1124,-73 383.1124,-73"/>
</g>
<!-- scan3 -->
<g id="node13" class="node">
<title>scan3</title>
<polygon fill="#ffff00" stroke="transparent" points="533.6123,-36 479.6123,-36 479.6123,0 533.6123,0 533.6123,-36"/>
<text text-anchor="middle" x="506.6123" y="-14.4" font-family="Courier,monospace" font-size="12.00" fill="#000000">4 + 4</text>
</g>
<!-- thescanstream&#45;&gt;scan3 -->
<g id="edge12" class="edge">
<title>thescanstream:eight&#45;&gt;scan3</title>
<path fill="none" stroke="#b03060" d="M506.6123,-72.7806C506.6123,-59.8444 506.6123,-46.4941 506.6123,-36.2117"/>
<polygon fill="#b03060" stroke="#b03060" points="503.1124,-73 506.6123,-83 510.1124,-73 503.1124,-73"/>
</g>
<!-- scan4 -->
<g id="node14" class="node">
<title>scan4</title>
<polygon fill="#ffff00" stroke="transparent" points="655.6123,-36 601.6123,-36 601.6123,0 655.6123,0 655.6123,-36"/>
<text text-anchor="middle" x="628.6123" y="-14.4" font-family="Courier,monospace" font-size="12.00" fill="#000000">8 + 2</text>
</g>
<!-- thescanstream&#45;&gt;scan4 -->
<g id="edge13" class="edge">
<title>thescanstream:ten&#45;&gt;scan4</title>
<path fill="none" stroke="#b03060" d="M628.6123,-72.7806C628.6123,-59.8444 628.6123,-46.4941 628.6123,-36.2117"/>
<polygon fill="#b03060" stroke="#b03060" points="625.1124,-73 628.6123,-83 632.1124,-73 625.1124,-73"/>
</g>
<!-- otherStream -->
<g id="node9" class="node">
<title>otherStream</title>
<text text-anchor="middle" x="52.6123" y="-87.4" font-family="Courier,monospace" font-size="12.00" fill="#000000">otherStream</text>
</g>
<!-- otherStream&#45;&gt;thescanstream -->
<g id="edge8" class="edge">
<title>otherStream&#45;&gt;thescanstream</title>
<path fill="none" stroke="#b03060" d="M96.4534,-91C105.411,-91 115.4359,-91 126.2331,-91"/>
<polygon fill="#b03060" stroke="#b03060" points="126.3575,-94.5001 136.3575,-91 126.3574,-87.5001 126.3575,-94.5001"/>
<text text-anchor="middle" x="116.4155" y="-96.4" font-family="Helvetica,sans-Serif" font-size="12.00" fill="#000080"> &#160;&#160;&#160;&#160;&#160;&#160;&#160;</text>
</g>
</g>
</svg>
