<?xml version="1.0" encoding="UTF-8" standalone="no"?>
<!DOCTYPE svg PUBLIC "-//W3C//DTD SVG 1.1//EN"
 "http://www.w3.org/Graphics/SVG/1.1/DTD/svg11.dtd">
<!-- Generated by graphviz version 2.40.1 (20161225.0304)
 -->
<!-- Title: meiosistutorial Pages: 1 -->
<svg width="536pt" height="288pt"
 viewBox="0.00 0.00 536.00 288.00" xmlns="http://www.w3.org/2000/svg" xmlns:xlink="http://www.w3.org/1999/xlink">
<g id="graph0" class="graph" transform="scale(1 1) rotate(0) translate(4 284)">
<title>meiosistutorial</title>
<polygon fill="#ffffff" stroke="transparent" points="-4,4 -4,-284 532,-284 532,4 -4,4"/>
<!-- nupdate -->
<g id="node1" class="node">
<title>nupdate</title>
<polygon fill="#add8e6" stroke="transparent" points="384,-280 210,-280 210,-244 384,-244 384,-280"/>
<text text-anchor="start" x="217.7871" y="-258.4" font-family="Courier,monospace" font-size="12.00" fill="#000000">nest(update, &quot;water&quot;);</text>
</g>
<!-- fdata -->
<g id="node2" class="node">
<title>fdata</title>
<polygon fill="#ffa500" stroke="transparent" points="456,-208 138,-208 138,-144 456,-144 456,-208"/>
<text text-anchor="start" x="146" y="-190.4" font-family="Courier,monospace" font-size="12.00" fill="#000000">function(data) {</text>
<text text-anchor="start" x="145.7754" y="-172.4" font-family="Courier,monospace" font-size="12.00" fill="#000000"> &#160;&#160;&#160;update({ path: &quot;water&quot;, data: data });</text>
<text text-anchor="start" x="146" y="-154.4" font-family="Courier,monospace" font-size="12.00" fill="#000000">}</text>
</g>
<!-- nupdate&#45;&gt;fdata -->
<g id="edge1" class="edge">
<title>nupdate&#45;&gt;fdata</title>
<path fill="none" stroke="#b03060" d="M297,-243.7616C297,-236.2386 297,-227.1818 297,-218.1733"/>
<polygon fill="#b03060" stroke="#b03060" points="300.5001,-218.1073 297,-208.1073 293.5001,-218.1073 300.5001,-218.1073"/>
</g>
<!-- createtemp -->
<g id="node3" class="node">
<title>createtemp</title>
<polygon fill="#ffff00" stroke="transparent" points="196,-108 0,-108 0,-72 196,-72 196,-108"/>
<text text-anchor="start" x="7.9854" y="-86.4" font-family="Courier,monospace" font-size="12.00" fill="#000000">createTemperature(update)</text>
</g>
<!-- fdata&#45;&gt;createtemp -->
<g id="edge2" class="edge">
<title>fdata&#45;&gt;createtemp</title>
<path fill="none" stroke="#b03060" d="M222.8997,-143.9768C198.34,-133.363 171.5677,-121.7931 149.1313,-112.0969"/>
<polygon fill="#b03060" stroke="#b03060" points="150.3683,-108.8187 139.8003,-108.0644 147.5913,-115.2443 150.3683,-108.8187"/>
</g>
<!-- update -->
<g id="node5" class="node">
<title>update</title>
<polygon fill="#add8e6" stroke="transparent" points="528,-36 174,-36 174,0 528,0 528,-36"/>
<text text-anchor="start" x="181.7725" y="-14.4" font-family="Courier,monospace" font-size="12.00" fill="#000000">update({ path: &quot;water&quot;, data: { value: 23 } });</text>
</g>
<!-- fdata&#45;&gt;update -->
<g id="edge5" class="edge">
<title>fdata&#45;&gt;update</title>
<path fill="none" stroke="#b03060" d="M359.289,-143.7523C372.0389,-134.0706 383.7615,-122.1703 391,-108 401.7924,-86.8724 389.1358,-62.2088 375.2782,-44.0485"/>
<polygon fill="#b03060" stroke="#b03060" points="377.9261,-41.757 368.9066,-36.1983 372.491,-46.1684 377.9261,-41.757"/>
</g>
<!-- water -->
<g id="node4" class="node">
<title>water</title>
<polygon fill="#ffff00" stroke="transparent" points="384,-108 210,-108 210,-72 384,-72 384,-108"/>
<text text-anchor="start" x="217.7871" y="-86.4" font-family="Courier,monospace" font-size="12.00" fill="#000000">update({ value: 23 });</text>
</g>
<!-- createtemp&#45;&gt;water -->
<g id="edge3" class="edge">
<title>createtemp&#45;&gt;water</title>
<path fill="none" stroke="#b03060" d="M196.334,-90C197.4481,-90 198.5623,-90 199.6764,-90"/>
<polygon fill="#b03060" stroke="#b03060" points="199.7037,-93.5001 209.7037,-90 199.7037,-86.5001 199.7037,-93.5001"/>
</g>
<!-- water&#45;&gt;fdata -->
<g id="edge4" class="edge">
<title>water&#45;&gt;fdata</title>
<path fill="none" stroke="#b03060" d="M297,-108.3108C297,-115.8435 297,-124.9052 297,-133.9133"/>
<polygon fill="#b03060" stroke="#b03060" points="293.5001,-133.9767 297,-143.9768 300.5001,-133.9768 293.5001,-133.9767"/>
</g>
<!-- water&#45;&gt;update -->
</g>
</svg>
