<?xml version="1.0" encoding="UTF-8" standalone="no"?>
<!DOCTYPE svg PUBLIC "-//W3C//DTD SVG 1.1//EN"
 "http://www.w3.org/Graphics/SVG/1.1/DTD/svg11.dtd">
<!-- Generated by graphviz version 2.40.1 (20161225.0304)
 -->
<!-- Title: meiosistutorial Pages: 1 -->
<svg width="371pt" height="380pt"
 viewBox="0.00 0.00 371.37 380.00" xmlns="http://www.w3.org/2000/svg" xmlns:xlink="http://www.w3.org/1999/xlink">
<g id="graph0" class="graph" transform="scale(1 1) rotate(0) translate(4 376)">
<title>meiosistutorial</title>
<polygon fill="#ffffff" stroke="transparent" points="-4,4 -4,-376 367.3711,-376 367.3711,4 -4,4"/>
<!-- model -->
<g id="node1" class="node">
<title>model</title>
<polygon fill="#add8e6" stroke="transparent" points="250,-372 196,-372 196,-336 250,-336 250,-372"/>
<text text-anchor="start" x="204.9971" y="-350.4" font-family="Courier,monospace" font-size="12.00" fill="#000000">model</text>
</g>
<!-- view -->
<g id="node2" class="node">
<title>view</title>
<polygon fill="#ffff00" stroke="transparent" points="270.5,-288 175.5,-288 175.5,-252 270.5,-252 270.5,-288"/>
<text text-anchor="start" x="183.8936" y="-266.4" font-family="Courier,monospace" font-size="12.00" fill="#000000">view(model)</text>
</g>
<!-- model&#45;&gt;view -->
<g id="edge1" class="edge">
<title>model&#45;&gt;view</title>
<path fill="none" stroke="#b03060" d="M223,-335.7733C223,-324.8758 223,-310.7946 223,-298.4587"/>
<polygon fill="#b03060" stroke="#b03060" points="226.5001,-298.1911 223,-288.1912 219.5001,-298.1912 226.5001,-298.1911"/>
<text text-anchor="middle" x="250.6855" y="-308.4" font-family="Helvetica,sans-Serif" font-size="12.00" fill="#000080"> passed to</text>
</g>
<!-- render -->
<g id="node3" class="node">
<title>render</title>
<polygon fill="#ffa500" stroke="transparent" points="282,-204 0,-204 0,-168 282,-168 282,-204"/>
<text text-anchor="start" x="7.7783" y="-182.4" font-family="Courier,monospace" font-size="12.00" fill="#000000">ReactDOM.render(view(model), element)</text>
</g>
<!-- view&#45;&gt;render -->
<g id="edge2" class="edge">
<title>view&#45;&gt;render</title>
<path fill="none" stroke="#b03060" d="M205.2072,-251.7733C193.7096,-239.9952 178.5814,-224.4981 165.8977,-211.5049"/>
<polygon fill="#b03060" stroke="#b03060" points="168.248,-208.9021 158.7581,-204.1912 163.2389,-213.7918 168.248,-208.9021"/>
<text text-anchor="middle" x="203.3477" y="-224.4" font-family="Helvetica,sans-Serif" font-size="12.00" fill="#000080">vnode</text>
</g>
<!-- update -->
<g id="node4" class="node">
<title>update</title>
<polygon fill="#00ff00" stroke="transparent" points="258.5,-120 163.5,-120 163.5,-84 258.5,-84 258.5,-120"/>
<text text-anchor="start" x="171.8936" y="-98.4" font-family="Courier,monospace" font-size="12.00" fill="#000000">update(...)</text>
</g>
<!-- render&#45;&gt;update -->
<g id="edge3" class="edge">
<title>render&#45;&gt;update</title>
<path fill="none" stroke="#b03060" d="M156.189,-167.7733C165.8205,-156.2154 178.4366,-141.0761 189.1366,-128.2361"/>
<polygon fill="#b03060" stroke="#b03060" points="192.1276,-130.1141 195.8407,-120.1912 186.75,-125.6328 192.1276,-130.1141"/>
<text text-anchor="middle" x="195.6777" y="-140.4" font-family="Helvetica,sans-Serif" font-size="12.00" fill="#000080">event</text>
</g>
<!-- modelupdate -->
<g id="node5" class="node">
<title>modelupdate</title>
<polygon fill="#add8e6" stroke="transparent" points="348.5,-36 167.5,-36 167.5,0 348.5,0 348.5,-36"/>
<text text-anchor="start" x="175.6865" y="-14.4" font-family="Courier,monospace" font-size="12.00" fill="#000000">model = &lt;updated model&gt;</text>
</g>
<!-- update&#45;&gt;modelupdate -->
<g id="edge4" class="edge">
<title>update&#45;&gt;modelupdate</title>
<path fill="none" stroke="#b03060" d="M221.1983,-83.7733C227.542,-72.4355 235.814,-57.6515 242.9084,-44.9723"/>
<polygon fill="#b03060" stroke="#b03060" points="245.9931,-46.627 247.8216,-36.1912 239.8843,-43.209 245.9931,-46.627"/>
<text text-anchor="middle" x="264.3496" y="-56.4" font-family="Helvetica,sans-Serif" font-size="12.00" fill="#000080"> produces</text>
</g>
<!-- modelupdate&#45;&gt;view -->
<g id="edge5" class="edge">
<title>modelupdate&#45;&gt;view</title>
<path fill="none" stroke="#b03060" d="M280.16,-36.2067C284.9712,-41.4016 289.3956,-47.4493 292,-54 316.6349,-115.9624 315.1853,-142.6767 289,-204 282.1493,-220.0437 269.3885,-234.2656 256.9,-245.3606"/>
<polygon fill="#b03060" stroke="#b03060" points="254.595,-242.726 249.2145,-251.853 259.1123,-248.0734 254.595,-242.726"/>
<text text-anchor="middle" x="335.6855" y="-140.4" font-family="Helvetica,sans-Serif" font-size="12.00" fill="#000080"> passed to</text>
</g>
</g>
</svg>
