<?xml version="1.0" encoding="UTF-8" standalone="no"?>
<!DOCTYPE svg PUBLIC "-//W3C//DTD SVG 1.1//EN"
 "http://www.w3.org/Graphics/SVG/1.1/DTD/svg11.dtd">
<!-- Generated by graphviz version 2.40.1 (20161225.0304)
 -->
<!-- Title: meiosistutorial Pages: 1 -->
<svg width="356pt" height="316pt"
 viewBox="0.00 0.00 356.37 316.00" xmlns="http://www.w3.org/2000/svg" xmlns:xlink="http://www.w3.org/1999/xlink">
<g id="graph0" class="graph" transform="scale(1 1) rotate(0) translate(4 312)">
<title>meiosistutorial</title>
<polygon fill="#ffffff" stroke="transparent" points="-4,4 -4,-312 352.3711,-312 352.3711,4 -4,4"/>
<!-- model -->
<g id="node1" class="node">
<title>model</title>
<polygon fill="#add8e6" stroke="transparent" points="281,-308 93,-308 93,-262 281,-262 281,-308"/>
<text text-anchor="start" x="125.79" y="-290.4" font-family="Courier,monospace" font-size="12.00" fill="#000000">water temperature</text>
<text text-anchor="start" x="100.5859" y="-272.4" font-family="Courier,monospace" font-size="12.00" fill="#000000">update( { value: 85 } );</text>
</g>
<!-- assign -->
<g id="node2" class="node">
<title>assign</title>
<polygon fill="#ffff00" stroke="transparent" points="288,-214 0,-214 0,-130 288,-130 288,-214"/>
<text text-anchor="start" x="8" y="-196.4" font-family="Courier,monospace" font-size="12.00" fill="#000000">{</text>
<text text-anchor="start" x="8" y="-178.4" font-family="Courier,monospace" font-size="12.00" fill="#000000"> &#160;&#160;&#160;&#160;air:</text>
<text text-anchor="start" x="92.8848" y="-178.4" font-family="Courier,monospace" font-size="12.00" fill="#000000">{ value: 22, units: &quot;C&quot; },</text>
<text text-anchor="start" x="7.8936" y="-159.4" font-family="Courier,monospace" font-size="12.00" fill="#000000"> &#160;&#160;&#160;&#160;water:</text>
<polygon fill="none" stroke="#000000" points="91,-154 91,-172 282,-172 282,-154 91,-154"/>
<text text-anchor="start" x="94" y="-159.4" font-family="Courier,monospace" font-size="12.00" fill="#000000">{ value: 84, units: &quot;F&quot; }</text>
<text text-anchor="start" x="8" y="-140.4" font-family="Courier,monospace" font-size="12.00" fill="#000000">}</text>
</g>
<!-- model&#45;&gt;assign -->
<g id="edge1" class="edge">
<title>model&#45;&gt;assign:nest</title>
<path fill="none" stroke="#b03060" d="M234.5532,-261.82C252.887,-250.2061 271.8538,-234.2496 282,-214 290.1707,-197.6929 299.8689,-174.6064 291.535,-166.2103"/>
<polygon fill="#b03060" stroke="#b03060" points="292.5941,-162.8739 282,-163 290.3604,-169.508 292.5941,-162.8739"/>
<text text-anchor="middle" x="308.6855" y="-234.4" font-family="Helvetica,sans-Serif" font-size="12.00" fill="#000080"> &#160;Object.assign</text>
</g>
<!-- result -->
<g id="node3" class="node">
<title>result</title>
<polygon fill="#ffa500" stroke="transparent" points="288,-82 0,-82 0,0 288,0 288,-82"/>
<text text-anchor="start" x="8" y="-64.4" font-family="Courier,monospace" font-size="12.00" fill="#000000">{</text>
<text text-anchor="start" x="8" y="-46.4" font-family="Courier,monospace" font-size="12.00" fill="#000000"> &#160;&#160;&#160;&#160;air:</text>
<text text-anchor="start" x="92.8848" y="-46.4" font-family="Courier,monospace" font-size="12.00" fill="#000000">{ value: 22, units: &quot;C&quot; },</text>
<text text-anchor="start" x="7.8936" y="-28.4" font-family="Courier,monospace" font-size="12.00" fill="#000000"> &#160;&#160;&#160;&#160;water:</text>
<text text-anchor="start" x="93" y="-28.4" font-family="Courier,monospace" font-size="12.00" fill="#000000">{ value: 85, units: &quot;F&quot; }</text>
<text text-anchor="start" x="8" y="-10.4" font-family="Courier,monospace" font-size="12.00" fill="#000000">}</text>
</g>
<!-- assign&#45;&gt;result -->
<g id="edge2" class="edge">
<title>assign&#45;&gt;result</title>
<path fill="none" stroke="#b03060" d="M144,-129.8297C144,-117.9091 144,-104.8026 144,-92.4036"/>
<polygon fill="#b03060" stroke="#b03060" points="147.5001,-92.1964 144,-82.1964 140.5001,-92.1965 147.5001,-92.1964"/>
<text text-anchor="middle" x="187.0313" y="-102.4" font-family="Helvetica,sans-Serif" font-size="12.00" fill="#000080"> &#160;updated model</text>
</g>
</g>
</svg>
