<?xml version="1.0" encoding="UTF-8" standalone="no"?>
<!DOCTYPE svg PUBLIC "-//W3C//DTD SVG 1.1//EN"
 "http://www.w3.org/Graphics/SVG/1.1/DTD/svg11.dtd">
<!-- Generated by graphviz version 2.40.1 (20161225.0304)
 -->
<!-- Title: meiosistutorial Pages: 1 -->
<svg width="274pt" height="380pt"
 viewBox="0.00 0.00 274.37 380.00" xmlns="http://www.w3.org/2000/svg" xmlns:xlink="http://www.w3.org/1999/xlink">
<g id="graph0" class="graph" transform="scale(1 1) rotate(0) translate(4 376)">
<title>meiosistutorial</title>
<polygon fill="#ffffff" stroke="transparent" points="-4,4 -4,-376 270.3711,-376 270.3711,4 -4,4"/>
<!-- model -->
<g id="node1" class="node">
<title>model</title>
<polygon fill="#add8e6" stroke="transparent" points="179,-372 125,-372 125,-336 179,-336 179,-372"/>
<text text-anchor="start" x="133.9971" y="-350.4" font-family="Courier,monospace" font-size="12.00" fill="#000000">model</text>
</g>
<!-- view -->
<g id="node2" class="node">
<title>view</title>
<polygon fill="#ffff00" stroke="transparent" points="199.5,-288 104.5,-288 104.5,-252 199.5,-252 199.5,-288"/>
<text text-anchor="start" x="112.8936" y="-266.4" font-family="Courier,monospace" font-size="12.00" fill="#000000">view(model)</text>
</g>
<!-- model&#45;&gt;view -->
<g id="edge1" class="edge">
<title>model&#45;&gt;view</title>
<path fill="none" stroke="#b03060" d="M152,-335.7733C152,-324.8758 152,-310.7946 152,-298.4587"/>
<polygon fill="#b03060" stroke="#b03060" points="155.5001,-298.1911 152,-288.1912 148.5001,-298.1912 155.5001,-298.1911"/>
<text text-anchor="middle" x="179.6855" y="-308.4" font-family="Helvetica,sans-Serif" font-size="12.00" fill="#000080"> passed to</text>
</g>
<!-- render -->
<g id="node3" class="node">
<title>render</title>
<polygon fill="#ffa500" stroke="transparent" points="188,-204 0,-204 0,-168 188,-168 188,-204"/>
<text text-anchor="start" x="7.5859" y="-182.4" font-family="Courier,monospace" font-size="12.00" fill="#000000">m.render(element, vnode)</text>
</g>
<!-- view&#45;&gt;render -->
<g id="edge2" class="edge">
<title>view&#45;&gt;render</title>
<path fill="none" stroke="#b03060" d="M139.4149,-251.7733C131.5104,-240.3254 121.18,-225.3641 112.3691,-212.6036"/>
<polygon fill="#b03060" stroke="#b03060" points="115.1227,-210.4315 106.5606,-204.1912 109.3624,-214.4088 115.1227,-210.4315"/>
<text text-anchor="middle" x="143.3477" y="-224.4" font-family="Helvetica,sans-Serif" font-size="12.00" fill="#000080">vnode</text>
</g>
<!-- update -->
<g id="node4" class="node">
<title>update</title>
<polygon fill="#00ff00" stroke="transparent" points="176.5,-120 81.5,-120 81.5,-84 176.5,-84 176.5,-120"/>
<text text-anchor="start" x="89.8936" y="-98.4" font-family="Courier,monospace" font-size="12.00" fill="#000000">update(...)</text>
</g>
<!-- render&#45;&gt;update -->
<g id="edge3" class="edge">
<title>render&#45;&gt;update</title>
<path fill="none" stroke="#b03060" d="M101.5945,-167.7733C106.2268,-156.6557 112.2398,-142.2244 117.4528,-129.7132"/>
<polygon fill="#b03060" stroke="#b03060" points="120.8049,-130.7681 121.4203,-120.1912 114.3434,-128.0758 120.8049,-130.7681"/>
<text text-anchor="middle" x="128.6777" y="-140.4" font-family="Helvetica,sans-Serif" font-size="12.00" fill="#000080">event</text>
</g>
<!-- modelupdate -->
<g id="node5" class="node">
<title>modelupdate</title>
<polygon fill="#add8e6" stroke="transparent" points="260.5,-36 79.5,-36 79.5,0 260.5,0 260.5,-36"/>
<text text-anchor="start" x="87.6865" y="-14.4" font-family="Courier,monospace" font-size="12.00" fill="#000000">model = &lt;updated model&gt;</text>
</g>
<!-- update&#45;&gt;modelupdate -->
<g id="edge4" class="edge">
<title>update&#45;&gt;modelupdate</title>
<path fill="none" stroke="#b03060" d="M134.432,-83.8011C137.4442,-74.6465 141.543,-63.5055 146.3008,-54 147.855,-50.8948 149.6245,-47.7324 151.4802,-44.6356"/>
<polygon fill="#b03060" stroke="#b03060" points="154.4391,-46.505 156.8309,-36.1836 148.5247,-42.7607 154.4391,-46.505"/>
<text text-anchor="middle" x="173.3496" y="-56.4" font-family="Helvetica,sans-Serif" font-size="12.00" fill="#000080"> produces</text>
</g>
<!-- modelupdate&#45;&gt;view -->
<g id="edge5" class="edge">
<title>modelupdate&#45;&gt;view</title>
<path fill="none" stroke="#b03060" d="M187.7198,-36.0206C191.9051,-41.3831 195.7901,-47.5592 198,-54 219.6401,-117.0708 214.679,-140.29 195,-204 190.6259,-218.1608 182.249,-232.1603 174.0422,-243.5971"/>
<polygon fill="#b03060" stroke="#b03060" points="171.0834,-241.7083 167.8687,-251.8037 176.6773,-245.9164 171.0834,-241.7083"/>
<text text-anchor="middle" x="238.6855" y="-140.4" font-family="Helvetica,sans-Serif" font-size="12.00" fill="#000080"> passed to</text>
</g>
</g>
</svg>
