<?xml version="1.0" encoding="UTF-8" standalone="no"?>
<!DOCTYPE svg PUBLIC "-//W3C//DTD SVG 1.1//EN"
 "http://www.w3.org/Graphics/SVG/1.1/DTD/svg11.dtd">
<!-- Generated by graphviz version 2.40.1 (20161225.0304)
 -->
<!-- Title: meiosistutorial Pages: 1 -->
<svg width="543pt" height="604pt"
 viewBox="0.00 0.00 543.00 604.00" xmlns="http://www.w3.org/2000/svg" xmlns:xlink="http://www.w3.org/1999/xlink">
<g id="graph0" class="graph" transform="scale(1 1) rotate(0) translate(4 600)">
<title>meiosistutorial</title>
<polygon fill="#ffffff" stroke="transparent" points="-4,4 -4,-600 539,-600 539,4 -4,4"/>
<!-- createview -->
<g id="node1" class="node">
<title>createview</title>
<polygon fill="#ffff00" stroke="transparent" points="448.5,-596 303.5,-596 303.5,-560 448.5,-560 448.5,-596"/>
<text text-anchor="start" x="311.6895" y="-574.4" font-family="Courier,monospace" font-size="12.00" fill="#000000">createView(update)</text>
</g>
<!-- nupdate1 -->
<g id="node2" class="node">
<title>nupdate1</title>
<polygon fill="#add8e6" stroke="transparent" points="488,-524 264,-524 264,-488 488,-488 488,-524"/>
<text text-anchor="start" x="271.583" y="-502.4" font-family="Courier,monospace" font-size="12.00" fill="#000000">nest(update, &quot;temperatures&quot;);</text>
</g>
<!-- createview&#45;&gt;nupdate1 -->
<g id="edge1" class="edge">
<title>createview&#45;&gt;nupdate1</title>
<path fill="none" stroke="#b03060" d="M376,-559.8314C376,-552.131 376,-542.9743 376,-534.4166"/>
<polygon fill="#b03060" stroke="#b03060" points="379.5001,-534.4132 376,-524.4133 372.5001,-534.4133 379.5001,-534.4132"/>
</g>
<!-- fdata1 -->
<g id="node3" class="node">
<title>fdata1</title>
<polygon fill="#ffa500" stroke="transparent" points="510,-452 242,-452 242,-388 510,-388 510,-452"/>
<text text-anchor="start" x="250" y="-434.4" font-family="Courier,monospace" font-size="12.00" fill="#000000">function(data) {</text>
<text text-anchor="start" x="249.9795" y="-416.4" font-family="Courier,monospace" font-size="12.00" fill="#000000"> &#160;&#160;&#160;update({ temperatures: data });</text>
<text text-anchor="start" x="250" y="-398.4" font-family="Courier,monospace" font-size="12.00" fill="#000000">}</text>
</g>
<!-- nupdate1&#45;&gt;fdata1 -->
<g id="edge2" class="edge">
<title>nupdate1&#45;&gt;fdata1</title>
<path fill="none" stroke="#b03060" d="M376,-487.7616C376,-480.2386 376,-471.1818 376,-462.1733"/>
<polygon fill="#b03060" stroke="#b03060" points="379.5001,-462.1073 376,-452.1073 372.5001,-462.1073 379.5001,-462.1073"/>
</g>
<!-- createtemppair -->
<g id="node4" class="node">
<title>createtemppair</title>
<polygon fill="#ffff00" stroke="transparent" points="354,-352 130,-352 130,-316 354,-316 354,-352"/>
<text text-anchor="start" x="137.583" y="-330.4" font-family="Courier,monospace" font-size="12.00" fill="#000000">createTemperaturePair(update)</text>
</g>
<!-- fdata1&#45;&gt;createtemppair -->
<g id="edge3" class="edge">
<title>fdata1&#45;&gt;createtemppair</title>
<path fill="none" stroke="#b03060" d="M326.1033,-387.9768C310.4516,-377.9316 293.4653,-367.03 278.8826,-357.671"/>
<polygon fill="#b03060" stroke="#b03060" points="280.4533,-354.5202 270.1469,-352.0644 276.6724,-360.4113 280.4533,-354.5202"/>
</g>
<!-- update -->
<g id="node9" class="node">
<title>update</title>
<polygon fill="#add8e6" stroke="transparent" points="535,-36 167,-36 167,0 535,0 535,-36"/>
<text text-anchor="start" x="174.5713" y="-14.4" font-family="Courier,monospace" font-size="12.00" fill="#000000">update({ temperatures: { air: { value: 23 } } });</text>
</g>
<!-- fdata1&#45;&gt;update -->
<g id="edge10" class="edge">
<title>fdata1&#45;&gt;update</title>
<path fill="none" stroke="#b03060" d="M385.7401,-387.9597C394.4999,-356.2762 406,-306.2542 406,-262 406,-262 406,-262 406,-176 406,-129.2995 408.7721,-115.1867 391,-72 386.9375,-62.128 380.669,-52.4145 374.2905,-44.0072"/>
<polygon fill="#b03060" stroke="#b03060" points="376.9304,-41.7042 367.9529,-36.0779 371.4624,-46.0746 376.9304,-41.7042"/>
</g>
<!-- nupdate2 -->
<g id="node5" class="node">
<title>nupdate2</title>
<polygon fill="#add8e6" stroke="transparent" points="332,-280 172,-280 172,-244 332,-244 332,-280"/>
<text text-anchor="start" x="179.9883" y="-258.4" font-family="Courier,monospace" font-size="12.00" fill="#000000">nest(update, &quot;air&quot;);</text>
</g>
<!-- createtemppair&#45;&gt;nupdate2 -->
<g id="edge4" class="edge">
<title>createtemppair&#45;&gt;nupdate2</title>
<path fill="none" stroke="#b03060" d="M244.5234,-315.8314C245.5929,-308.131 246.8647,-298.9743 248.0532,-290.4166"/>
<polygon fill="#b03060" stroke="#b03060" points="251.5336,-290.7997 249.4426,-280.4133 244.6001,-289.8367 251.5336,-290.7997"/>
</g>
<!-- fdata2 -->
<g id="node6" class="node">
<title>fdata2</title>
<polygon fill="#ffa500" stroke="transparent" points="373.5,-208 170.5,-208 170.5,-144 373.5,-144 373.5,-208"/>
<text text-anchor="start" x="179" y="-190.4" font-family="Courier,monospace" font-size="12.00" fill="#000000">function(data) {</text>
<text text-anchor="start" x="178.8848" y="-172.4" font-family="Courier,monospace" font-size="12.00" fill="#000000"> &#160;&#160;&#160;update({ air: data });</text>
<text text-anchor="start" x="179" y="-154.4" font-family="Courier,monospace" font-size="12.00" fill="#000000">}</text>
</g>
<!-- nupdate2&#45;&gt;fdata2 -->
<g id="edge5" class="edge">
<title>nupdate2&#45;&gt;fdata2</title>
<path fill="none" stroke="#b03060" d="M256.2415,-243.7616C258.0098,-236.1577 260.1426,-226.9868 262.2598,-217.8827"/>
<polygon fill="#b03060" stroke="#b03060" points="265.677,-218.6402 264.5332,-208.1073 258.8589,-217.0546 265.677,-218.6402"/>
</g>
<!-- fdata2&#45;&gt;fdata1 -->
<g id="edge9" class="edge">
<title>fdata2&#45;&gt;fdata1</title>
<path fill="none" stroke="#b03060" d="M310.0013,-208.184C320.5842,-218.7055 331.2813,-231.0432 339,-244 363.5391,-285.1922 371.952,-340.2949 374.7556,-377.7976"/>
<polygon fill="#b03060" stroke="#b03060" points="371.2696,-378.1286 375.4064,-387.8824 378.2551,-377.6777 371.2696,-378.1286"/>
</g>
<!-- createtemp -->
<g id="node7" class="node">
<title>createtemp</title>
<polygon fill="#ffff00" stroke="transparent" points="196,-108 0,-108 0,-72 196,-72 196,-108"/>
<text text-anchor="start" x="7.9854" y="-86.4" font-family="Courier,monospace" font-size="12.00" fill="#000000">createTemperature(update)</text>
</g>
<!-- fdata2&#45;&gt;createtemp -->
<g id="edge6" class="edge">
<title>fdata2&#45;&gt;createtemp</title>
<path fill="none" stroke="#b03060" d="M207.2088,-143.9768C186.118,-133.5526 163.1609,-122.206 143.7623,-112.6182"/>
<polygon fill="#b03060" stroke="#b03060" points="145.0646,-109.3577 134.549,-108.0644 141.963,-115.6331 145.0646,-109.3577"/>
</g>
<!-- air -->
<g id="node8" class="node">
<title>air</title>
<polygon fill="#ffff00" stroke="transparent" points="384,-108 210,-108 210,-72 384,-72 384,-108"/>
<text text-anchor="start" x="217.7871" y="-86.4" font-family="Courier,monospace" font-size="12.00" fill="#000000">update({ value: 23 });</text>
</g>
<!-- createtemp&#45;&gt;air -->
<g id="edge7" class="edge">
<title>createtemp&#45;&gt;air</title>
<path fill="none" stroke="#b03060" d="M196.334,-90C197.4481,-90 198.5623,-90 199.6764,-90"/>
<polygon fill="#b03060" stroke="#b03060" points="199.7037,-93.5001 209.7037,-90 199.7037,-86.5001 199.7037,-93.5001"/>
</g>
<!-- air&#45;&gt;fdata2 -->
<g id="edge8" class="edge">
<title>air&#45;&gt;fdata2</title>
<path fill="none" stroke="#b03060" d="M291.6771,-108.3108C289.4638,-115.9245 286.7964,-125.1002 284.15,-134.2039"/>
<polygon fill="#b03060" stroke="#b03060" points="280.7397,-133.3972 281.3091,-143.9768 287.4614,-135.3513 280.7397,-133.3972"/>
</g>
<!-- air&#45;&gt;update -->
</g>
</svg>
