<?xml version="1.0" encoding="UTF-8" standalone="no"?>
<!DOCTYPE svg PUBLIC "-//W3C//DTD SVG 1.1//EN"
 "http://www.w3.org/Graphics/SVG/1.1/DTD/svg11.dtd">
<!-- Generated by graphviz version 2.40.1 (20161225.0304)
 -->
<!-- Title: meiosistutorial Pages: 1 -->
<svg width="297pt" height="234pt"
 viewBox="0.00 0.00 297.00 234.00" xmlns="http://www.w3.org/2000/svg" xmlns:xlink="http://www.w3.org/1999/xlink">
<g id="graph0" class="graph" transform="scale(1 1) rotate(0) translate(4 230)">
<title>meiosistutorial</title>
<polygon fill="#ffffff" stroke="transparent" points="-4,4 -4,-230 293,-230 293,4 -4,4"/>
<!-- nupdate -->
<g id="node1" class="node">
<title>nupdate</title>
<polygon fill="#add8e6" stroke="transparent" points="246,-154 43,-154 43,-118 246,-118 246,-154"/>
<text text-anchor="start" x="51.3848" y="-132.4" font-family="Courier,monospace" font-size="12.00" fill="#000000">nestUpdate(update, &quot;air&quot;);</text>
</g>
<!-- update -->
<g id="node3" class="node">
<title>update</title>
<polygon fill="#ffa500" stroke="transparent" points="289,-82 0,-82 0,0 289,0 289,-82"/>
<text text-anchor="start" x="8.5" y="-64.4" font-family="Courier,monospace" font-size="12.00" fill="#000000">update(function(model) {</text>
<text text-anchor="start" x="8.1777" y="-46.4" font-family="Courier,monospace" font-size="12.00" fill="#000000"> &#160;&#160;&#160;model[&quot;air&quot;] = func(model[&quot;air&quot;]);</text>
<text text-anchor="start" x="8.5" y="-28.4" font-family="Courier,monospace" font-size="12.00" fill="#000000"> &#160;&#160;&#160;return model;</text>
<text text-anchor="start" x="8.5" y="-10.4" font-family="Courier,monospace" font-size="12.00" fill="#000000">});</text>
</g>
<!-- nupdate&#45;&gt;update -->
<g id="edge2" class="edge">
<title>nupdate&#45;&gt;update</title>
<path fill="none" stroke="#b03060" d="M144.5,-117.683C144.5,-110.3182 144.5,-101.4252 144.5,-92.3435"/>
<polygon fill="#b03060" stroke="#b03060" points="148.0001,-92.0813 144.5,-82.0813 141.0001,-92.0814 148.0001,-92.0813"/>
</g>
<!-- air -->
<g id="node2" class="node">
<title>air</title>
<polygon fill="#ffff00" stroke="transparent" points="199,-226 90,-226 90,-190 199,-190 199,-226"/>
<text text-anchor="start" x="98.1924" y="-204.4" font-family="Courier,monospace" font-size="12.00" fill="#000000">update(func);</text>
</g>
<!-- air&#45;&gt;nupdate -->
<g id="edge1" class="edge">
<title>air&#45;&gt;nupdate</title>
<path fill="none" stroke="#b03060" d="M144.5,-189.8314C144.5,-182.131 144.5,-172.9743 144.5,-164.4166"/>
<polygon fill="#b03060" stroke="#b03060" points="148.0001,-164.4132 144.5,-154.4133 141.0001,-164.4133 148.0001,-164.4132"/>
</g>
</g>
</svg>
