<?xml version="1.0" encoding="UTF-8" standalone="no"?>
<!DOCTYPE svg PUBLIC "-//W3C//DTD SVG 1.1//EN"
 "http://www.w3.org/Graphics/SVG/1.1/DTD/svg11.dtd">
<!-- Generated by graphviz version 2.40.1 (20161225.0304)
 -->
<!-- Title: meiosistutorial Pages: 1 -->
<svg width="364pt" height="262pt"
 viewBox="0.00 0.00 363.50 262.00" xmlns="http://www.w3.org/2000/svg" xmlns:xlink="http://www.w3.org/1999/xlink">
<g id="graph0" class="graph" transform="scale(1 1) rotate(0) translate(4 258)">
<title>meiosistutorial</title>
<polygon fill="#ffffff" stroke="transparent" points="-4,4 -4,-258 359.5,-258 359.5,4 -4,4"/>
<!-- mrender -->
<g id="node1" class="node">
<title>mrender</title>
<polygon fill="#add8e6" stroke="transparent" points="285,-118 0,-118 0,-82 285,-82 285,-118"/>
<text text-anchor="start" x="8.3906" y="-96.4" font-family="Courier,monospace" font-size="12.00" fill="#000000">ReactDOM.render(</text>
<text text-anchor="start" x="129.3936" y="-96.4" font-family="Courier,monospace" font-size="12.00" fill="#000000">component, </text>
<text text-anchor="start" x="214.2959" y="-96.4" font-family="Courier,monospace" font-size="12.00" fill="#000000">element</text>
<text text-anchor="start" x="270.3994" y="-96.4" font-family="Courier,monospace" font-size="12.00" fill="#000000">)</text>
</g>
<!-- element -->
<g id="node2" class="node">
<title>element</title>
<polygon fill="#ffff00" stroke="transparent" points="355.5,-46 123.5,-46 123.5,0 355.5,0 355.5,-46"/>
<text text-anchor="start" x="131.4824" y="-28.4" font-family="Courier,monospace" font-size="12.00" fill="#000000">document.getElementById(&quot;app&quot;)</text>
<text text-anchor="start" x="167.4883" y="-10.4" font-family="Courier,monospace" font-size="12.00" fill="#000000">&lt;div id=&quot;app&quot;&gt;&lt;/div&gt;</text>
</g>
<!-- mrender&#45;&gt;element -->
<g id="edge1" class="edge">
<title>mrender:element&#45;&gt;element</title>
<path fill="none" stroke="#b03060" d="M239.5,-81.804C239.5,-69.4835 239.5,-56.7612 239.5,-46.3152"/>
<polygon fill="#b03060" stroke="#b03060" points="236.0001,-82 239.5,-92 243.0001,-82 236.0001,-82"/>
</g>
<!-- view -->
<g id="node3" class="node">
<title>view</title>
<polygon fill="#ffff00" stroke="transparent" points="303.5,-254 35.5,-254 35.5,-154 303.5,-154 303.5,-254"/>
<text text-anchor="start" x="43.4795" y="-236.4" font-family="Courier,monospace" font-size="12.00" fill="#000000">class App extends React.Component {</text>
<text text-anchor="start" x="43.5" y="-218.4" font-family="Courier,monospace" font-size="12.00" fill="#000000"> &#160;render() { </text>
<text text-anchor="start" x="43.5" y="-200.4" font-family="Courier,monospace" font-size="12.00" fill="#000000"> &#160;&#160;&#160;return &lt;h1&gt;Hello, world&lt;/h1&gt;</text>
<text text-anchor="start" x="43.5" y="-182.4" font-family="Courier,monospace" font-size="12.00" fill="#000000"> &#160;}</text>
<text text-anchor="start" x="43.5" y="-164.4" font-family="Courier,monospace" font-size="12.00" fill="#000000">}</text>
</g>
<!-- view&#45;&gt;mrender -->
<g id="edge2" class="edge">
<title>view:mview&#45;&gt;mrender:view</title>
<path fill="none" stroke="#b03060" d="M169.5,-160C169.5,-140.6806 169.5,-133.4735 169.5,-118.1284"/>
<polygon fill="#b03060" stroke="#b03060" points="173.0001,-118 169.5,-108 166.0001,-118 173.0001,-118"/>
</g>
</g>
</svg>
