<?xml version="1.0" encoding="UTF-8" standalone="no"?>
<!DOCTYPE svg PUBLIC "-//W3C//DTD SVG 1.1//EN"
 "http://www.w3.org/Graphics/SVG/1.1/DTD/svg11.dtd">
<!-- Generated by graphviz version 2.40.1 (20161225.0304)
 -->
<!-- Title: meiosistutorial Pages: 1 -->
<svg width="325pt" height="262pt"
 viewBox="0.00 0.00 325.00 262.00" xmlns="http://www.w3.org/2000/svg" xmlns:xlink="http://www.w3.org/1999/xlink">
<g id="graph0" class="graph" transform="scale(1 1) rotate(0) translate(4 258)">
<title>meiosistutorial</title>
<polygon fill="#ffffff" stroke="transparent" points="-4,4 -4,-258 321,-258 321,4 -4,4"/>
<!-- mmount -->
<g id="node1" class="node">
<title>mmount</title>
<polygon fill="#add8e6" stroke="transparent" points="235.5,-172 16.5,-172 16.5,-136 235.5,-136 235.5,-172"/>
<text text-anchor="start" x="24.6953" y="-150.4" font-family="Courier,monospace" font-size="12.00" fill="#000000">m.mount(</text>
<text text-anchor="start" x="87.6953" y="-150.4" font-family="Courier,monospace" font-size="12.00" fill="#000000">element,</text>
<text text-anchor="start" x="150.5947" y="-150.4" font-family="Courier,monospace" font-size="12.00" fill="#000000">component</text>
<text text-anchor="start" x="220.8994" y="-150.4" font-family="Courier,monospace" font-size="12.00" fill="#000000">)</text>
</g>
<!-- view -->
<g id="node3" class="node">
<title>view</title>
<polygon fill="#ffff00" stroke="transparent" points="317,-100 49,-100 49,0 317,0 317,-100"/>
<text text-anchor="start" x="57" y="-82.4" font-family="Courier,monospace" font-size="12.00" fill="#000000">{</text>
<text text-anchor="start" x="57" y="-64.4" font-family="Courier,monospace" font-size="12.00" fill="#000000"> &#160;view: function() { </text>
<text text-anchor="start" x="56.9795" y="-46.4" font-family="Courier,monospace" font-size="12.00" fill="#000000"> &#160;&#160;&#160;return m(&quot;h1&quot;, &quot;Hello, world&quot;);</text>
<text text-anchor="start" x="57" y="-28.4" font-family="Courier,monospace" font-size="12.00" fill="#000000"> &#160;}</text>
<text text-anchor="start" x="57" y="-10.4" font-family="Courier,monospace" font-size="12.00" fill="#000000">}</text>
</g>
<!-- mmount&#45;&gt;view -->
<g id="edge2" class="edge">
<title>mmount:view&#45;&gt;view:mview</title>
<path fill="none" stroke="#b03060" d="M183,-135.8716C183,-120.5265 183,-113.3194 183,-94"/>
<polygon fill="#b03060" stroke="#b03060" points="179.5001,-136 183,-146 186.5001,-136 179.5001,-136"/>
</g>
<!-- element -->
<g id="node2" class="node">
<title>element</title>
<polygon fill="#ffff00" stroke="transparent" points="232,-254 0,-254 0,-208 232,-208 232,-254"/>
<text text-anchor="start" x="43.9883" y="-236.4" font-family="Courier,monospace" font-size="12.00" fill="#000000">&lt;div id=&quot;app&quot;&gt;&lt;/div&gt;</text>
<text text-anchor="start" x="7.9824" y="-218.4" font-family="Courier,monospace" font-size="12.00" fill="#000000">document.getElementById(&quot;app&quot;)</text>
</g>
<!-- element&#45;&gt;mmount -->
<g id="edge1" class="edge">
<title>element:app&#45;&gt;mmount:element</title>
<path fill="none" stroke="#b03060" d="M116,-214C116,-194.6806 116,-187.4735 116,-172.1284"/>
<polygon fill="#b03060" stroke="#b03060" points="119.5001,-172 116,-162 112.5001,-172 119.5001,-172"/>
</g>
</g>
</svg>
