<?xml version="1.0" encoding="UTF-8" standalone="no"?>
<!DOCTYPE svg PUBLIC "-//W3C//DTD SVG 1.1//EN"
 "http://www.w3.org/Graphics/SVG/1.1/DTD/svg11.dtd">
<!-- Generated by graphviz version 2.40.1 (20161225.0304)
 -->
<!-- Title: meiosistutorial Pages: 1 -->
<svg width="378pt" height="334pt"
 viewBox="0.00 0.00 378.00 334.00" xmlns="http://www.w3.org/2000/svg" xmlns:xlink="http://www.w3.org/1999/xlink">
<g id="graph0" class="graph" transform="scale(1 1) rotate(0) translate(4 330)">
<title>meiosistutorial</title>
<polygon fill="#ffffff" stroke="transparent" points="-4,4 -4,-330 374,-330 374,4 -4,4"/>
<!-- mrender -->
<g id="node1" class="node">
<title>mrender</title>
<polygon fill="#add8e6" stroke="transparent" points="299.5,-118 14.5,-118 14.5,-82 299.5,-82 299.5,-118"/>
<text text-anchor="start" x="22.8906" y="-96.4" font-family="Courier,monospace" font-size="12.00" fill="#000000">ReactDOM.render(</text>
<text text-anchor="start" x="143.8936" y="-96.4" font-family="Courier,monospace" font-size="12.00" fill="#000000">component, </text>
<text text-anchor="start" x="228.7959" y="-96.4" font-family="Courier,monospace" font-size="12.00" fill="#000000">element</text>
<text text-anchor="start" x="284.8994" y="-96.4" font-family="Courier,monospace" font-size="12.00" fill="#000000">)</text>
</g>
<!-- element -->
<g id="node2" class="node">
<title>element</title>
<polygon fill="#ffff00" stroke="transparent" points="370,-46 138,-46 138,0 370,0 370,-46"/>
<text text-anchor="start" x="145.9824" y="-28.4" font-family="Courier,monospace" font-size="12.00" fill="#000000">document.getElementById(&quot;app&quot;)</text>
<text text-anchor="start" x="181.9883" y="-10.4" font-family="Courier,monospace" font-size="12.00" fill="#000000">&lt;div id=&quot;app&quot;&gt;&lt;/div&gt;</text>
</g>
<!-- mrender&#45;&gt;element -->
<g id="edge1" class="edge">
<title>mrender:element&#45;&gt;element</title>
<path fill="none" stroke="#b03060" d="M254,-81.804C254,-69.4835 254,-56.7612 254,-46.3152"/>
<polygon fill="#b03060" stroke="#b03060" points="250.5001,-82 254,-92 257.5001,-82 250.5001,-82"/>
</g>
<!-- view -->
<g id="node3" class="node">
<title>view</title>
<polygon fill="#ffff00" stroke="transparent" points="292.5,-190 75.5,-190 75.5,-154 292.5,-154 292.5,-190"/>
<text text-anchor="start" x="83.6836" y="-168.4" font-family="Courier,monospace" font-size="12.00" fill="#000000">&lt;App state={initialState} /&gt;</text>
</g>
<!-- view&#45;&gt;mrender -->
<g id="edge2" class="edge">
<title>view&#45;&gt;mrender:vnode</title>
<path fill="none" stroke="#b03060" d="M184,-153.7928C184,-143.787 184,-130.8921 184,-118.3649"/>
<polygon fill="#b03060" stroke="#b03060" points="187.5001,-118 184,-108 180.5001,-118 187.5001,-118"/>
</g>
<!-- vfunction -->
<g id="node4" class="node">
<title>vfunction</title>
<polygon fill="#ffff00" stroke="transparent" points="368,-326 0,-326 0,-226 368,-226 368,-326"/>
<text text-anchor="start" x="8" y="-308.4" font-family="Courier,monospace" font-size="12.00" fill="#000000">class App extends React.Component {</text>
<text text-anchor="start" x="8" y="-290.4" font-family="Courier,monospace" font-size="12.00" fill="#000000"> &#160;render() { </text>
<text text-anchor="start" x="7.5713" y="-272.4" font-family="Courier,monospace" font-size="12.00" fill="#000000"> &#160;&#160;&#160;return &lt;div&gt;Counter: {this.props.state}&lt;/div&gt;</text>
<text text-anchor="start" x="8" y="-254.4" font-family="Courier,monospace" font-size="12.00" fill="#000000"> &#160;}</text>
<text text-anchor="start" x="8" y="-236.4" font-family="Courier,monospace" font-size="12.00" fill="#000000">}</text>
</g>
<!-- vfunction&#45;&gt;view -->
<g id="edge3" class="edge">
<title>vfunction&#45;&gt;view</title>
<path fill="none" stroke="#b03060" d="M184,-215.754C184,-206.5462 184,-197.6924 184,-190.3873"/>
<polygon fill="#b03060" stroke="#b03060" points="180.5001,-215.8278 184,-225.8278 187.5001,-215.8278 180.5001,-215.8278"/>
</g>
</g>
</svg>
