<?xml version="1.0" encoding="UTF-8" standalone="no"?>
<!DOCTYPE svg PUBLIC "-//W3C//DTD SVG 1.1//EN"
 "http://www.w3.org/Graphics/SVG/1.1/DTD/svg11.dtd">
<!-- Generated by graphviz version 2.40.1 (20161225.0304)
 -->
<!-- Title: meiosistutorial Pages: 1 -->
<svg width="405pt" height="398pt"
 viewBox="0.00 0.00 405.00 398.00" xmlns="http://www.w3.org/2000/svg" xmlns:xlink="http://www.w3.org/1999/xlink">
<g id="graph0" class="graph" transform="scale(1 1) rotate(0) translate(4 394)">
<title>meiosistutorial</title>
<polygon fill="#ffffff" stroke="transparent" points="-4,4 -4,-394 401,-394 401,4 -4,4"/>
<!-- mmount -->
<g id="node1" class="node">
<title>mmount</title>
<polygon fill="#add8e6" stroke="transparent" points="251,-118 32,-118 32,-82 251,-82 251,-118"/>
<text text-anchor="start" x="40.1953" y="-96.4" font-family="Courier,monospace" font-size="12.00" fill="#000000">m.mount(</text>
<text text-anchor="start" x="103.1953" y="-96.4" font-family="Courier,monospace" font-size="12.00" fill="#000000">element,</text>
<text text-anchor="start" x="166.0947" y="-96.4" font-family="Courier,monospace" font-size="12.00" fill="#000000">component</text>
<text text-anchor="start" x="236.3994" y="-96.4" font-family="Courier,monospace" font-size="12.00" fill="#000000">)</text>
</g>
<!-- element -->
<g id="node2" class="node">
<title>element</title>
<polygon fill="#ffff00" stroke="transparent" points="247.5,-46 15.5,-46 15.5,0 247.5,0 247.5,-46"/>
<text text-anchor="start" x="23.4824" y="-28.4" font-family="Courier,monospace" font-size="12.00" fill="#000000">document.getElementById(&quot;app&quot;)</text>
<text text-anchor="start" x="59.4883" y="-10.4" font-family="Courier,monospace" font-size="12.00" fill="#000000">&lt;div id=&quot;app&quot;&gt;&lt;/div&gt;</text>
</g>
<!-- mmount&#45;&gt;element -->
<g id="edge1" class="edge">
<title>mmount:element&#45;&gt;element:app</title>
<path fill="none" stroke="#b03060" d="M131.5,-81.8716C131.5,-66.5265 131.5,-59.3194 131.5,-40"/>
<polygon fill="#b03060" stroke="#b03060" points="128.0001,-82 131.5,-92 135.0001,-82 128.0001,-82"/>
</g>
<!-- view -->
<g id="node3" class="node">
<title>view</title>
<polygon fill="#ffff00" stroke="transparent" points="361,-254 36,-254 36,-154 361,-154 361,-254"/>
<text text-anchor="start" x="44.5" y="-236.4" font-family="Courier,monospace" font-size="12.00" fill="#000000">{</text>
<text text-anchor="start" x="44.5" y="-218.4" font-family="Courier,monospace" font-size="12.00" fill="#000000"> &#160;view: function() { </text>
<text text-anchor="start" x="44.1748" y="-200.4" font-family="Courier,monospace" font-size="12.00" fill="#000000"> &#160;&#160;&#160;return m(App, { state: initialState });</text>
<text text-anchor="start" x="44.5" y="-182.4" font-family="Courier,monospace" font-size="12.00" fill="#000000"> &#160;}</text>
<text text-anchor="start" x="44.5" y="-164.4" font-family="Courier,monospace" font-size="12.00" fill="#000000">}</text>
</g>
<!-- view&#45;&gt;mmount -->
<g id="edge2" class="edge">
<title>view&#45;&gt;mmount:component</title>
<path fill="none" stroke="#b03060" d="M198.5,-153.6784C198.5,-142.2915 198.5,-130.067 198.5,-118.2493"/>
<polygon fill="#b03060" stroke="#b03060" points="202.0001,-118 198.5,-108 195.0001,-118 202.0001,-118"/>
</g>
<!-- vfunction -->
<g id="node4" class="node">
<title>vfunction</title>
<polygon fill="#ffff00" stroke="transparent" points="397,-390 0,-390 0,-290 397,-290 397,-390"/>
<text text-anchor="start" x="8.5" y="-372.4" font-family="Courier,monospace" font-size="12.00" fill="#000000">var App = {</text>
<text text-anchor="start" x="8.5" y="-354.4" font-family="Courier,monospace" font-size="12.00" fill="#000000"> &#160;view: function(vnode) { </text>
<text text-anchor="start" x="8.1689" y="-336.4" font-family="Courier,monospace" font-size="12.00" fill="#000000"> &#160;&#160;&#160;return m(&quot;div&quot;, &quot;Counter: &quot; + vnode.attrs.state);</text>
<text text-anchor="start" x="8.5" y="-318.4" font-family="Courier,monospace" font-size="12.00" fill="#000000"> &#160;}</text>
<text text-anchor="start" x="8.5" y="-300.4" font-family="Courier,monospace" font-size="12.00" fill="#000000">}</text>
</g>
<!-- vfunction&#45;&gt;view -->
<g id="edge3" class="edge">
<title>vfunction&#45;&gt;view</title>
<path fill="none" stroke="#b03060" d="M198.5,-279.4889C198.5,-270.9867 198.5,-262.3264 198.5,-254.0484"/>
<polygon fill="#b03060" stroke="#b03060" points="195.0001,-279.745 198.5,-289.745 202.0001,-279.7451 195.0001,-279.745"/>
</g>
</g>
</svg>
