<?xml version="1.0" encoding="UTF-8" standalone="no"?>
<!DOCTYPE svg PUBLIC "-//W3C//DTD SVG 1.1//EN"
 "http://www.w3.org/Graphics/SVG/1.1/DTD/svg11.dtd">
<!-- Generated by graphviz version 2.44.0 (20200408.0750)
 -->
<!-- Title: meiosistutorial Pages: 1 -->
<svg width="675pt" height="367pt"
 viewBox="0.00 0.00 675.00 367.00" xmlns="http://www.w3.org/2000/svg" xmlns:xlink="http://www.w3.org/1999/xlink">
<g id="graph0" class="graph" transform="scale(1 1) rotate(0) translate(4 363)">
<title>meiosistutorial</title>
<polygon fill="white" stroke="transparent" points="-4,4 -4,-363 671,-363 671,4 -4,4"/>
<!-- stream -->
<g id="node1" class="node">
<title>stream</title>
<text text-anchor="middle" x="87" y="-264.9" font-family="Courier,monospace" font-size="12.00">var update = stream();</text>
</g>
<!-- thestream -->
<g id="node6" class="node">
<title>thestream</title>
<polygon fill="lightblue" stroke="transparent" points="625,-286 213,-286 213,-250 625,-250 625,-286"/>
<text text-anchor="start" x="222" y="-264.4" font-family="Courier,monospace" font-size="12.00">5</text>
<text text-anchor="start" x="236" y="-264.4" font-family="Courier,monospace" font-size="12.00">      ...     </text>
<text text-anchor="start" x="348" y="-264.4" font-family="Courier,monospace" font-size="12.00">&#45;3</text>
<text text-anchor="start" x="370" y="-264.4" font-family="Courier,monospace" font-size="12.00">      ...     </text>
<text text-anchor="start" x="482" y="-264.4" font-family="Courier,monospace" font-size="12.00">8</text>
<text text-anchor="start" x="496" y="-264.4" font-family="Courier,monospace" font-size="12.00">      ...     </text>
<text text-anchor="start" x="608" y="-264.4" font-family="Courier,monospace" font-size="12.00">2</text>
<polygon fill="none" stroke="black" points="217,-256.5 217,-279.5 621,-279.5 621,-256.5 217,-256.5"/>
</g>
<!-- stream&#45;&gt;thestream -->
<g id="edge5" class="edge">
<title>stream&#45;&gt;thestream</title>
<path fill="none" stroke="maroon" d="M174.23,-268C183.35,-268 192.89,-268 202.69,-268"/>
<polygon fill="maroon" stroke="maroon" points="202.99,-271.5 212.99,-268 202.99,-264.5 202.99,-271.5"/>
<text text-anchor="middle" x="193.5" y="-274.4" font-family="Helvetica,sans-Serif" font-size="12.00" fill="navy"> &#160;&#160;&#160;&#160;&#160;&#160;&#160;</text>
</g>
<!-- updateplus1 -->
<g id="node2" class="node">
<title>updateplus1</title>
<polygon fill="yellow" stroke="transparent" points="264,-359 188,-359 188,-323 264,-323 264,-359"/>
<text text-anchor="middle" x="226" y="-337.9" font-family="Courier,monospace" font-size="12.00">update(5)</text>
</g>
<!-- updateplus1&#45;&gt;thestream -->
<g id="edge1" class="edge">
<title>updateplus1&#45;&gt;thestream:plusone</title>
<path fill="none" stroke="maroon" d="M226,-322.89C226,-312.89 226,-299.77 226,-287.05"/>
<polygon fill="maroon" stroke="maroon" points="229.5,-287 226,-277 222.5,-287 229.5,-287"/>
</g>
<!-- updateplus3 -->
<g id="node3" class="node">
<title>updateplus3</title>
<polygon fill="yellow" stroke="transparent" points="398,-359 314,-359 314,-323 398,-323 398,-359"/>
<text text-anchor="middle" x="356" y="-337.9" font-family="Courier,monospace" font-size="12.00">update(&#45;3)</text>
</g>
<!-- updateplus3&#45;&gt;thestream -->
<g id="edge2" class="edge">
<title>updateplus3&#45;&gt;thestream:plusthree</title>
<path fill="none" stroke="maroon" d="M356,-322.89C356,-312.89 356,-299.77 356,-287.05"/>
<polygon fill="maroon" stroke="maroon" points="359.5,-287 356,-277 352.5,-287 359.5,-287"/>
</g>
<!-- updateplus4 -->
<g id="node4" class="node">
<title>updateplus4</title>
<polygon fill="yellow" stroke="transparent" points="524,-359 448,-359 448,-323 524,-323 524,-359"/>
<text text-anchor="middle" x="486" y="-337.9" font-family="Courier,monospace" font-size="12.00">update(8)</text>
</g>
<!-- updateplus4&#45;&gt;thestream -->
<g id="edge3" class="edge">
<title>updateplus4&#45;&gt;thestream:plusfour</title>
<path fill="none" stroke="maroon" d="M486,-322.89C486,-312.89 486,-299.77 486,-287.05"/>
<polygon fill="maroon" stroke="maroon" points="489.5,-287 486,-277 482.5,-287 489.5,-287"/>
</g>
<!-- updateplus2 -->
<g id="node5" class="node">
<title>updateplus2</title>
<polygon fill="yellow" stroke="transparent" points="650,-359 574,-359 574,-323 650,-323 650,-359"/>
<text text-anchor="middle" x="612" y="-337.9" font-family="Courier,monospace" font-size="12.00">update(2)</text>
</g>
<!-- updateplus2&#45;&gt;thestream -->
<g id="edge4" class="edge">
<title>updateplus2&#45;&gt;thestream:plustwo</title>
<path fill="none" stroke="maroon" d="M612,-322.89C612,-312.89 612,-299.77 612,-287.05"/>
<polygon fill="maroon" stroke="maroon" points="615.5,-287 612,-277 608.5,-287 615.5,-287"/>
</g>
<!-- scan1 -->
<g id="node10" class="node">
<title>scan1</title>
<polygon fill="yellow" stroke="transparent" points="264,-213 188,-213 188,-177 264,-177 264,-213"/>
<text text-anchor="middle" x="226" y="-191.9" font-family="Courier,monospace" font-size="12.00">0 + 5 = 5</text>
</g>
<!-- thestream&#45;&gt;scan1 -->
<g id="edge16" class="edge">
<title>thestream:plusone&#45;&gt;scan1</title>
<path fill="none" stroke="maroon" d="M226,-247.81C226,-235.5 226,-222.83 226,-213.11"/>
<polygon fill="maroon" stroke="maroon" points="222.5,-248 226,-258 229.5,-248 222.5,-248"/>
</g>
<!-- scan2 -->
<g id="node11" class="node">
<title>scan2</title>
<polygon fill="yellow" stroke="transparent" points="398,-213 314,-213 314,-177 398,-177 398,-213"/>
<text text-anchor="middle" x="356" y="-191.9" font-family="Courier,monospace" font-size="12.00">5 + &#45;3 = 2</text>
</g>
<!-- thestream&#45;&gt;scan2 -->
<g id="edge17" class="edge">
<title>thestream:plusthree&#45;&gt;scan2</title>
<path fill="none" stroke="maroon" d="M356,-247.81C356,-235.5 356,-222.83 356,-213.11"/>
<polygon fill="maroon" stroke="maroon" points="352.5,-248 356,-258 359.5,-248 352.5,-248"/>
</g>
<!-- scan3 -->
<g id="node12" class="node">
<title>scan3</title>
<polygon fill="yellow" stroke="transparent" points="528,-213 444,-213 444,-177 528,-177 528,-213"/>
<text text-anchor="middle" x="486" y="-191.9" font-family="Courier,monospace" font-size="12.00">2 + 8 = 10</text>
</g>
<!-- thestream&#45;&gt;scan3 -->
<g id="edge18" class="edge">
<title>thestream:plusfour&#45;&gt;scan3</title>
<path fill="none" stroke="maroon" d="M486,-247.81C486,-235.5 486,-222.83 486,-213.11"/>
<polygon fill="maroon" stroke="maroon" points="482.5,-248 486,-258 489.5,-248 482.5,-248"/>
</g>
<!-- scan4 -->
<g id="node13" class="node">
<title>scan4</title>
<polygon fill="yellow" stroke="transparent" points="657.5,-213 566.5,-213 566.5,-177 657.5,-177 657.5,-213"/>
<text text-anchor="middle" x="612" y="-191.9" font-family="Courier,monospace" font-size="12.00">10 + 2 = 12</text>
</g>
<!-- thestream&#45;&gt;scan4 -->
<g id="edge19" class="edge">
<title>thestream:plustwo&#45;&gt;scan4</title>
<path fill="none" stroke="maroon" d="M612,-247.81C612,-235.5 612,-222.83 612,-213.11"/>
<polygon fill="maroon" stroke="maroon" points="608.5,-248 612,-258 615.5,-248 608.5,-248"/>
</g>
<!-- scan -->
<g id="node7" class="node">
<title>scan</title>
<text text-anchor="start" x="218" y="-48.9" font-family="Courier,monospace" font-size="12.00">var otherStream = scan(function(latest, next) {</text>
<text text-anchor="start" x="218" y="-29.9" font-family="Courier,monospace" font-size="12.00"> &#160;&#160;&#160;return latest + next;</text>
<text text-anchor="start" x="218" y="-10.9" font-family="Courier,monospace" font-size="12.00">}, 0, update);</text>
</g>
<!-- thescanstream -->
<g id="node8" class="node">
<title>thescanstream</title>
<polygon fill="orange" stroke="transparent" points="667,-140 121,-140 121,-104 667,-104 667,-140"/>
<text text-anchor="start" x="130" y="-118.4" font-family="Courier,monospace" font-size="12.00">0</text>
<text text-anchor="start" x="144" y="-118.4" font-family="Courier,monospace" font-size="12.00">      ...     </text>
<text text-anchor="start" x="256" y="-118.4" font-family="Courier,monospace" font-size="12.00">5</text>
<text text-anchor="start" x="270" y="-118.4" font-family="Courier,monospace" font-size="12.00">      ...     </text>
<text text-anchor="start" x="382" y="-118.4" font-family="Courier,monospace" font-size="12.00">2</text>
<text text-anchor="start" x="396" y="-118.4" font-family="Courier,monospace" font-size="12.00">      ...     </text>
<text text-anchor="start" x="508" y="-118.4" font-family="Courier,monospace" font-size="12.00">10</text>
<text text-anchor="start" x="530" y="-118.4" font-family="Courier,monospace" font-size="12.00">      ...     </text>
<text text-anchor="start" x="642" y="-118.4" font-family="Courier,monospace" font-size="12.00">12</text>
<polygon fill="none" stroke="black" points="125,-110.5 125,-133.5 663,-133.5 663,-110.5 125,-110.5"/>
</g>
<!-- thescanstream&#45;&gt;scan -->
<g id="edge6" class="edge">
<title>thescanstream&#45;&gt;scan</title>
<path fill="none" stroke="maroon" d="M394,-93.87C394,-85.45 394,-76.08 394,-67.31"/>
<polygon fill="maroon" stroke="maroon" points="390.5,-93.91 394,-103.91 397.5,-93.91 390.5,-93.91"/>
</g>
<!-- scan0 -->
<g id="node9" class="node">
<title>scan0</title>
<polygon fill="yellow" stroke="transparent" points="164.5,-213 103.5,-213 103.5,-177 164.5,-177 164.5,-213"/>
<text text-anchor="middle" x="134" y="-191.9" font-family="Courier,monospace" font-size="12.00">initial</text>
</g>
<!-- scan0&#45;&gt;thescanstream -->
<g id="edge7" class="edge">
<title>scan0&#45;&gt;thescanstream:initial</title>
<path fill="none" stroke="maroon" d="M134,-176.89C134,-166.89 134,-153.77 134,-141.05"/>
<polygon fill="maroon" stroke="maroon" points="137.5,-141 134,-131 130.5,-141 137.5,-141"/>
</g>
<!-- scan1&#45;&gt;thescanstream -->
<g id="edge8" class="edge">
<title>scan1&#45;&gt;thescanstream:one</title>
<path fill="none" stroke="maroon" d="M241.21,-176.85C248.42,-167.31 256.07,-154.67 258.88,-141.31"/>
<polygon fill="maroon" stroke="maroon" points="262.4,-141.32 260,-131 255.44,-140.56 262.4,-141.32"/>
</g>
<!-- scan1&#45;&gt;thescanstream -->
<g id="edge12" class="edge">
<title>scan1&#45;&gt;thescanstream:initial</title>
<path fill="none" stroke="maroon" d="M189.64,-176.93C169.35,-166.44 146.44,-152.71 137.67,-140.44"/>
<polygon fill="maroon" stroke="maroon" points="140.89,-139.05 134,-131 134.37,-141.59 140.89,-139.05"/>
</g>
<!-- scan2&#45;&gt;thescanstream -->
<g id="edge9" class="edge">
<title>scan2&#45;&gt;thescanstream:four</title>
<path fill="none" stroke="maroon" d="M369.25,-176.84C375.65,-167.18 382.49,-154.42 385,-141.18"/>
<polygon fill="maroon" stroke="maroon" points="388.51,-141.29 386,-131 381.54,-140.61 388.51,-141.29"/>
</g>
<!-- scan2&#45;&gt;thescanstream -->
<g id="edge13" class="edge">
<title>scan2&#45;&gt;thescanstream:one</title>
<path fill="none" stroke="maroon" d="M313.89,-183.82C291.42,-175.95 267.21,-162.66 261.34,-141.12"/>
<polygon fill="maroon" stroke="maroon" points="264.78,-140.46 260,-131 257.84,-141.37 264.78,-140.46"/>
</g>
<!-- scan3&#45;&gt;thescanstream -->
<g id="edge10" class="edge">
<title>scan3&#45;&gt;thescanstream:eight</title>
<path fill="none" stroke="maroon" d="M499.25,-176.84C505.65,-167.18 512.49,-154.42 515,-141.18"/>
<polygon fill="maroon" stroke="maroon" points="518.51,-141.29 516,-131 511.54,-140.61 518.51,-141.29"/>
</g>
<!-- scan3&#45;&gt;thescanstream -->
<g id="edge14" class="edge">
<title>scan3&#45;&gt;thescanstream:four</title>
<path fill="none" stroke="maroon" d="M443.88,-184.89C419.86,-177.27 393.35,-163.84 387.28,-140.99"/>
<polygon fill="maroon" stroke="maroon" points="390.75,-140.47 386,-131 383.8,-141.36 390.75,-140.47"/>
</g>
<!-- scan4&#45;&gt;thescanstream -->
<g id="edge11" class="edge">
<title>scan4&#45;&gt;thescanstream:ten</title>
<path fill="none" stroke="maroon" d="M629.22,-176.9C637.31,-167.38 645.84,-154.71 648.86,-141.07"/>
<polygon fill="maroon" stroke="maroon" points="652.35,-141.33 650,-131 645.39,-140.54 652.35,-141.33"/>
</g>
<!-- scan4&#45;&gt;thescanstream -->
<g id="edge15" class="edge">
<title>scan4&#45;&gt;thescanstream:eight</title>
<path fill="none" stroke="maroon" d="M566.25,-182.5C544.81,-174.47 522.77,-161.43 517.29,-140.94"/>
<polygon fill="maroon" stroke="maroon" points="520.76,-140.47 516,-131 513.81,-141.37 520.76,-140.47"/>
</g>
</g>
</svg>
