<?xml version="1.0" encoding="UTF-8" standalone="no"?>
<!DOCTYPE svg PUBLIC "-//W3C//DTD SVG 1.1//EN"
 "http://www.w3.org/Graphics/SVG/1.1/DTD/svg11.dtd">
<!-- Generated by graphviz version 2.40.1 (20161225.0304)
 -->
<!-- Title: meiosistutorial Pages: 1 -->
<svg width="278pt" height="117pt"
 viewBox="0.00 0.00 278.01 117.00" xmlns="http://www.w3.org/2000/svg" xmlns:xlink="http://www.w3.org/1999/xlink">
<g id="graph0" class="graph" transform="scale(1 1) rotate(0) translate(4 113)">
<title>meiosistutorial</title>
<polygon fill="#ffffff" stroke="transparent" points="-4,4 -4,-113 274.0059,-113 274.0059,4 -4,4"/>
<!-- stream -->
<g id="node1" class="node">
<title>stream</title>
<text text-anchor="middle" x="27" y="-14.4" font-family="Courier,monospace" font-size="12.00" fill="#000000">stream</text>
</g>
<!-- thestream -->
<g id="node4" class="node">
<title>thestream</title>
<polygon fill="#add8e6" stroke="transparent" points="245.5,-36 94.5,-36 94.5,0 245.5,0 245.5,-36"/>
<text text-anchor="start" x="103.8994" y="-14.4" font-family="Courier,monospace" font-size="12.00" fill="#000000">1</text>
<text text-anchor="start" x="116.5918" y="-14.4" font-family="Courier,monospace" font-size="12.00" fill="#000000">      ...     </text>
<text text-anchor="start" x="222.7988" y="-14.4" font-family="Courier,monospace" font-size="12.00" fill="#000000">&#45;1</text>
<polygon fill="none" stroke="#000000" points="98.5,-7 98.5,-29 241.5,-29 241.5,-7 98.5,-7"/>
</g>
<!-- stream&#45;&gt;thestream -->
<g id="edge3" class="edge">
<title>stream&#45;&gt;thestream</title>
<path fill="none" stroke="#b03060" d="M54.2338,-18C63.1059,-18 73.4772,-18 84.3008,-18"/>
<polygon fill="#b03060" stroke="#b03060" points="84.338,-21.5001 94.338,-18 84.338,-14.5001 84.338,-21.5001"/>
<text text-anchor="middle" x="74.25" y="-23.4" font-family="Helvetica,sans-Serif" font-size="12.00" fill="#000080"> &#160;&#160;&#160;&#160;&#160;&#160;&#160;</text>
</g>
<!-- updateplus1 -->
<g id="node2" class="node">
<title>updateplus1</title>
<polygon fill="#ffff00" stroke="transparent" points="143.3108,-109 70.6892,-109 70.6892,-73 143.3108,-73 143.3108,-109"/>
<text text-anchor="middle" x="107" y="-87.4" font-family="Courier,monospace" font-size="12.00" fill="#000000">update(1)</text>
</g>
<!-- updateplus1&#45;&gt;thestream -->
<g id="edge1" class="edge">
<title>updateplus1&#45;&gt;thestream:plusone</title>
<path fill="none" stroke="#b03060" d="M107,-72.7883C107,-62.5059 107,-49.1556 107,-36.2194"/>
<polygon fill="#b03060" stroke="#b03060" points="110.5001,-36 107,-26 103.5001,-36 110.5001,-36"/>
</g>
<!-- updateminus1 -->
<g id="node3" class="node">
<title>updateminus1</title>
<polygon fill="#ffff00" stroke="transparent" points="270.0117,-109 189.9883,-109 189.9883,-73 270.0117,-73 270.0117,-109"/>
<text text-anchor="middle" x="230" y="-87.4" font-family="Courier,monospace" font-size="12.00" fill="#000000">update(&#45;1)</text>
</g>
<!-- updateminus1&#45;&gt;thestream -->
<g id="edge2" class="edge">
<title>updateminus1&#45;&gt;thestream:minusone</title>
<path fill="none" stroke="#b03060" d="M230,-72.7883C230,-62.5059 230,-49.1556 230,-36.2194"/>
<polygon fill="#b03060" stroke="#b03060" points="233.5001,-36 230,-26 226.5001,-36 233.5001,-36"/>
</g>
</g>
</svg>
