<?xml version="1.0" encoding="UTF-8" standalone="no"?>
<!DOCTYPE svg PUBLIC "-//W3C//DTD SVG 1.1//EN"
 "http://www.w3.org/Graphics/SVG/1.1/DTD/svg11.dtd">
<!-- Generated by graphviz version 2.43.0 (0)
 -->
<!-- Title: meiosistutorial Pages: 1 -->
<svg width="278pt" height="117pt"
 viewBox="0.00 0.00 278.01 117.00" xmlns="http://www.w3.org/2000/svg" xmlns:xlink="http://www.w3.org/1999/xlink">
<g id="graph0" class="graph" transform="scale(1 1) rotate(0) translate(4 113)">
<title>meiosistutorial</title>
<polygon fill="white" stroke="transparent" points="-4,4 -4,-113 274.01,-113 274.01,4 -4,4"/>
<!-- stream -->
<g id="node1" class="node">
<title>stream</title>
<text text-anchor="middle" x="27" y="-14.4" font-family="Courier,monospace" font-size="12.00">stream</text>
</g>
<!-- thestream -->
<g id="node4" class="node">
<title>thestream</title>
<polygon fill="lightblue" stroke="transparent" points="245.5,-36 94.5,-36 94.5,0 245.5,0 245.5,-36"/>
<text text-anchor="start" x="103.9" y="-14.4" font-family="Courier,monospace" font-size="12.00">1</text>
<text text-anchor="start" x="116.59" y="-14.4" font-family="Courier,monospace" font-size="12.00">      ...     </text>
<text text-anchor="start" x="222.8" y="-14.4" font-family="Courier,monospace" font-size="12.00">&#45;1</text>
<polygon fill="none" stroke="black" points="98.5,-7 98.5,-29 241.5,-29 241.5,-7 98.5,-7"/>
</g>
<!-- stream&#45;&gt;thestream -->
<g id="edge3" class="edge">
<title>stream&#45;&gt;thestream</title>
<path fill="none" stroke="maroon" d="M54.23,-18C63.11,-18 73.48,-18 84.3,-18"/>
<polygon fill="maroon" stroke="maroon" points="84.34,-21.5 94.34,-18 84.34,-14.5 84.34,-21.5"/>
<text text-anchor="middle" x="74.25" y="-23.4" font-family="Helvetica,sans-Serif" font-size="12.00" fill="navy"> &#160;&#160;&#160;&#160;&#160;&#160;&#160;</text>
</g>
<!-- updateplus1 -->
<g id="node2" class="node">
<title>updateplus1</title>
<polygon fill="yellow" stroke="transparent" points="143.31,-109 70.69,-109 70.69,-73 143.31,-73 143.31,-109"/>
<text text-anchor="middle" x="107" y="-87.4" font-family="Courier,monospace" font-size="12.00">update(1)</text>
</g>
<!-- updateplus1&#45;&gt;thestream -->
<g id="edge1" class="edge">
<title>updateplus1&#45;&gt;thestream:plusone</title>
<path fill="none" stroke="maroon" d="M107,-72.89C107,-62.89 107,-49.77 107,-37.05"/>
<polygon fill="maroon" stroke="maroon" points="110.5,-37 107,-27 103.5,-37 110.5,-37"/>
</g>
<!-- updateminus1 -->
<g id="node3" class="node">
<title>updateminus1</title>
<polygon fill="yellow" stroke="transparent" points="270.01,-109 189.99,-109 189.99,-73 270.01,-73 270.01,-109"/>
<text text-anchor="middle" x="230" y="-87.4" font-family="Courier,monospace" font-size="12.00">update(&#45;1)</text>
</g>
<!-- updateminus1&#45;&gt;thestream -->
<g id="edge2" class="edge">
<title>updateminus1&#45;&gt;thestream:minusone</title>
<path fill="none" stroke="maroon" d="M230,-72.89C230,-62.89 230,-49.77 230,-37.05"/>
<polygon fill="maroon" stroke="maroon" points="233.5,-37 230,-27 226.5,-37 233.5,-37"/>
</g>
</g>
</svg>
