<?xml version="1.0" encoding="UTF-8" standalone="no"?>
<!DOCTYPE svg PUBLIC "-//W3C//DTD SVG 1.1//EN"
 "http://www.w3.org/Graphics/SVG/1.1/DTD/svg11.dtd">
<!-- Generated by graphviz version 2.43.0 (0)
 -->
<!-- Title: meiosistutorial Pages: 1 -->
<svg width="464pt" height="291pt"
 viewBox="0.00 0.00 463.71 291.00" xmlns="http://www.w3.org/2000/svg" xmlns:xlink="http://www.w3.org/1999/xlink">
<g id="graph0" class="graph" transform="scale(1 1) rotate(0) translate(4 287)">
<title>meiosistutorial</title>
<polygon fill="white" stroke="transparent" points="-4,4 -4,-287 459.71,-287 459.71,4 -4,4"/>
<!-- stream -->
<g id="node1" class="node">
<title>stream</title>
<text text-anchor="middle" x="83.21" y="-188.4" font-family="Courier,monospace" font-size="12.00">var update = stream();</text>
</g>
<!-- thestream -->
<g id="node4" class="node">
<title>thestream</title>
<polygon fill="lightblue" stroke="transparent" points="357.71,-210 206.71,-210 206.71,-174 357.71,-174 357.71,-210"/>
<text text-anchor="start" x="216.11" y="-188.4" font-family="Courier,monospace" font-size="12.00">1</text>
<text text-anchor="start" x="228.8" y="-188.4" font-family="Courier,monospace" font-size="12.00">      ...     </text>
<text text-anchor="start" x="335.01" y="-188.4" font-family="Courier,monospace" font-size="12.00">&#45;1</text>
<polygon fill="none" stroke="black" points="210.71,-181 210.71,-203 353.71,-203 353.71,-181 210.71,-181"/>
</g>
<!-- stream&#45;&gt;thestream -->
<g id="edge3" class="edge">
<title>stream&#45;&gt;thestream</title>
<path fill="none" stroke="maroon" d="M166.45,-192C176.33,-192 186.44,-192 196.35,-192"/>
<polygon fill="maroon" stroke="maroon" points="196.6,-195.5 206.6,-192 196.6,-188.5 196.6,-195.5"/>
<text text-anchor="middle" x="186.57" y="-197.4" font-family="Helvetica,sans-Serif" font-size="12.00" fill="navy"> &#160;&#160;&#160;&#160;&#160;&#160;&#160;</text>
</g>
<!-- updateplus1 -->
<g id="node2" class="node">
<title>updateplus1</title>
<polygon fill="yellow" stroke="transparent" points="255.52,-283 182.9,-283 182.9,-247 255.52,-247 255.52,-283"/>
<text text-anchor="middle" x="219.21" y="-261.4" font-family="Courier,monospace" font-size="12.00">update(1)</text>
</g>
<!-- updateplus1&#45;&gt;thestream -->
<g id="edge1" class="edge">
<title>updateplus1&#45;&gt;thestream:plusone</title>
<path fill="none" stroke="maroon" d="M219.21,-246.89C219.21,-236.89 219.21,-223.77 219.21,-211.05"/>
<polygon fill="maroon" stroke="maroon" points="222.71,-211 219.21,-201 215.71,-211 222.71,-211"/>
</g>
<!-- updateminus1 -->
<g id="node3" class="node">
<title>updateminus1</title>
<polygon fill="yellow" stroke="transparent" points="382.22,-283 302.2,-283 302.2,-247 382.22,-247 382.22,-283"/>
<text text-anchor="middle" x="342.21" y="-261.4" font-family="Courier,monospace" font-size="12.00">update(&#45;1)</text>
</g>
<!-- updateminus1&#45;&gt;thestream -->
<g id="edge2" class="edge">
<title>updateminus1&#45;&gt;thestream:minusone</title>
<path fill="none" stroke="maroon" d="M342.21,-246.89C342.21,-236.89 342.21,-223.77 342.21,-211.05"/>
<polygon fill="maroon" stroke="maroon" points="345.71,-211 342.21,-201 338.71,-211 345.71,-211"/>
</g>
<!-- map -->
<g id="node5" class="node">
<title>map</title>
<text text-anchor="start" x="117.09" y="-119.4" font-family="Courier,monospace" font-size="12.00">var otherStream = update.map(function(value) {</text>
<text text-anchor="start" x="117.21" y="-101.4" font-family="Courier,monospace" font-size="12.00"> &#160;&#160;&#160;return value * 10;</text>
<text text-anchor="start" x="117.21" y="-83.4" font-family="Courier,monospace" font-size="12.00">});</text>
</g>
<!-- thestream&#45;&gt;map -->
<g id="edge4" class="edge">
<title>thestream&#45;&gt;map</title>
<path fill="none" stroke="maroon" d="M282.21,-163.73C282.21,-155.3 282.21,-145.95 282.21,-137.27"/>
<polygon fill="maroon" stroke="maroon" points="278.71,-163.8 282.21,-173.8 285.71,-163.8 278.71,-163.8"/>
</g>
<!-- themapstream -->
<g id="node6" class="node">
<title>themapstream</title>
<polygon fill="orange" stroke="transparent" points="364.71,-36 199.71,-36 199.71,0 364.71,0 364.71,-36"/>
<text text-anchor="start" x="209.01" y="-14.4" font-family="Courier,monospace" font-size="12.00">10</text>
<text text-anchor="start" x="228.8" y="-14.4" font-family="Courier,monospace" font-size="12.00">      ...     </text>
<text text-anchor="start" x="334.91" y="-14.4" font-family="Courier,monospace" font-size="12.00">&#45;10</text>
<polygon fill="none" stroke="black" points="203.71,-7 203.71,-29 360.71,-29 360.71,-7 203.71,-7"/>
</g>
<!-- map&#45;&gt;themapstream -->
<g id="edge5" class="edge">
<title>map&#45;&gt;themapstream</title>
<path fill="none" stroke="maroon" d="M282.21,-72.83C282.21,-64.17 282.21,-54.83 282.21,-46.4"/>
<polygon fill="maroon" stroke="maroon" points="285.71,-46.33 282.21,-36.33 278.71,-46.33 285.71,-46.33"/>
</g>
<!-- otherStream -->
<g id="node7" class="node">
<title>otherStream</title>
<text text-anchor="middle" x="115.21" y="-14.4" font-family="Courier,monospace" font-size="12.00">otherStream</text>
</g>
<!-- otherStream&#45;&gt;themapstream -->
<g id="edge6" class="edge">
<title>otherStream&#45;&gt;themapstream</title>
<path fill="none" stroke="maroon" d="M159.09,-18C168.54,-18 178.87,-18 189.39,-18"/>
<polygon fill="maroon" stroke="maroon" points="189.53,-21.5 199.53,-18 189.53,-14.5 189.53,-21.5"/>
<text text-anchor="middle" x="179.27" y="-23.4" font-family="Helvetica,sans-Serif" font-size="12.00" fill="navy"> &#160;&#160;&#160;&#160;&#160;&#160;&#160;</text>
</g>
</g>
</svg>
