<?xml version="1.0" encoding="UTF-8" standalone="no"?>
<!DOCTYPE svg PUBLIC "-//W3C//DTD SVG 1.1//EN"
 "http://www.w3.org/Graphics/SVG/1.1/DTD/svg11.dtd">
<!-- Generated by graphviz version 2.40.1 (20161225.0304)
 -->
<!-- Title: meiosistutorial Pages: 1 -->
<svg width="290pt" height="198pt"
 viewBox="0.00 0.00 290.00 198.00" xmlns="http://www.w3.org/2000/svg" xmlns:xlink="http://www.w3.org/1999/xlink">
<g id="graph0" class="graph" transform="scale(1 1) rotate(0) translate(4 194)">
<title>meiosistutorial</title>
<polygon fill="#ffffff" stroke="transparent" points="-4,4 -4,-194 286,-194 286,4 -4,4"/>
<!-- mrender -->
<g id="node1" class="node">
<title>mrender</title>
<polygon fill="#add8e6" stroke="transparent" points="282,-46 0,-46 0,0 282,0 282,-46"/>
<text text-anchor="start" x="79.79" y="-28.4" font-family="Courier,monospace" font-size="12.00" fill="#000000">model = model + 1</text>
<text text-anchor="start" x="7.7783" y="-10.4" font-family="Courier,monospace" font-size="12.00" fill="#000000">ReactDOM.render(view(model), element)</text>
</g>
<!-- event -->
<g id="node2" class="node">
<title>event</title>
<polygon fill="#ffa500" stroke="transparent" points="203,-118 79,-118 79,-82 203,-82 203,-118"/>
<text text-anchor="start" x="86.9912" y="-96.4" font-family="Courier,monospace" font-size="12.00" fill="#000000">function(event)</text>
</g>
<!-- event&#45;&gt;mrender -->
<g id="edge1" class="edge">
<title>event&#45;&gt;mrender</title>
<path fill="none" stroke="#b03060" d="M141,-81.7521C141,-74.0806 141,-64.9093 141,-56.1197"/>
<polygon fill="#b03060" stroke="#b03060" points="144.5001,-56.0895 141,-46.0895 137.5001,-56.0895 144.5001,-56.0895"/>
</g>
<!-- efunction -->
<g id="node3" class="node">
<title>efunction</title>
<polygon fill="#ffff00" stroke="transparent" points="174,-190 108,-190 108,-154 174,-154 174,-190"/>
<text text-anchor="start" x="115.7959" y="-168.4" font-family="Courier,monospace" font-size="12.00" fill="#000000">onclick</text>
</g>
<!-- efunction&#45;&gt;event -->
<g id="edge2" class="edge">
<title>efunction&#45;&gt;event</title>
<path fill="none" stroke="#b03060" d="M141,-153.8314C141,-146.131 141,-136.9743 141,-128.4166"/>
<polygon fill="#b03060" stroke="#b03060" points="144.5001,-128.4132 141,-118.4133 137.5001,-128.4133 144.5001,-128.4132"/>
</g>
</g>
</svg>
