<?xml version="1.0" encoding="UTF-8" standalone="no"?>
<!DOCTYPE svg PUBLIC "-//W3C//DTD SVG 1.1//EN"
 "http://www.w3.org/Graphics/SVG/1.1/DTD/svg11.dtd">
<!-- Generated by graphviz version 2.40.1 (20161225.0304)
 -->
<!-- Title: meiosistutorial Pages: 1 -->
<svg width="240pt" height="198pt"
 viewBox="0.00 0.00 240.00 198.00" xmlns="http://www.w3.org/2000/svg" xmlns:xlink="http://www.w3.org/1999/xlink">
<g id="graph0" class="graph" transform="scale(1 1) rotate(0) translate(4 194)">
<title>meiosistutorial</title>
<polygon fill="#ffffff" stroke="transparent" points="-4,4 -4,-194 236,-194 236,4 -4,4"/>
<!-- mrender -->
<g id="node1" class="node">
<title>mrender</title>
<polygon fill="#add8e6" stroke="transparent" points="232,-46 0,-46 0,0 232,0 232,-46"/>
<text text-anchor="start" x="54.79" y="-28.4" font-family="Courier,monospace" font-size="12.00" fill="#000000">model = model + 1</text>
<text text-anchor="start" x="7.9824" y="-10.4" font-family="Courier,monospace" font-size="12.00" fill="#000000">m.render(element, view(model))</text>
</g>
<!-- event -->
<g id="node2" class="node">
<title>event</title>
<polygon fill="#ffa500" stroke="transparent" points="178,-118 54,-118 54,-82 178,-82 178,-118"/>
<text text-anchor="start" x="61.9912" y="-96.4" font-family="Courier,monospace" font-size="12.00" fill="#000000">function(event)</text>
</g>
<!-- event&#45;&gt;mrender -->
<g id="edge1" class="edge">
<title>event&#45;&gt;mrender</title>
<path fill="none" stroke="#b03060" d="M116,-81.7521C116,-74.0806 116,-64.9093 116,-56.1197"/>
<polygon fill="#b03060" stroke="#b03060" points="119.5001,-56.0895 116,-46.0895 112.5001,-56.0895 119.5001,-56.0895"/>
</g>
<!-- efunction -->
<g id="node3" class="node">
<title>efunction</title>
<polygon fill="#ffff00" stroke="transparent" points="149,-190 83,-190 83,-154 149,-154 149,-190"/>
<text text-anchor="start" x="90.7959" y="-168.4" font-family="Courier,monospace" font-size="12.00" fill="#000000">onclick</text>
</g>
<!-- efunction&#45;&gt;event -->
<g id="edge2" class="edge">
<title>efunction&#45;&gt;event</title>
<path fill="none" stroke="#b03060" d="M116,-153.8314C116,-146.131 116,-136.9743 116,-128.4166"/>
<polygon fill="#b03060" stroke="#b03060" points="119.5001,-128.4132 116,-118.4133 112.5001,-128.4133 119.5001,-128.4132"/>
</g>
</g>
</svg>
