<?xml version="1.0" encoding="UTF-8" standalone="no"?>
<!DOCTYPE svg PUBLIC "-//W3C//DTD SVG 1.1//EN"
 "http://www.w3.org/Graphics/SVG/1.1/DTD/svg11.dtd">
<!-- Generated by graphviz version 2.40.1 (20161225.0304)
 -->
<!-- Title: meiosistutorial Pages: 1 -->
<svg width="249pt" height="358pt"
 viewBox="0.00 0.00 249.00 358.00" xmlns="http://www.w3.org/2000/svg" xmlns:xlink="http://www.w3.org/1999/xlink">
<g id="graph0" class="graph" transform="scale(1 1) rotate(0) translate(4 354)">
<title>meiosistutorial</title>
<polygon fill="#ffffff" stroke="transparent" points="-4,4 -4,-354 245,-354 245,4 -4,4"/>
<!-- model -->
<g id="node1" class="node">
<title>model</title>
<polygon fill="#add8e6" stroke="transparent" points="179,-350 125,-350 125,-314 179,-314 179,-350"/>
<text text-anchor="start" x="133.9971" y="-328.4" font-family="Courier,monospace" font-size="12.00" fill="#000000">model</text>
</g>
<!-- view -->
<g id="node2" class="node">
<title>view</title>
<polygon fill="#ffff00" stroke="transparent" points="199.5,-277 104.5,-277 104.5,-241 199.5,-241 199.5,-277"/>
<text text-anchor="start" x="112.8936" y="-255.4" font-family="Courier,monospace" font-size="12.00" fill="#000000">view(model)</text>
</g>
<!-- model&#45;&gt;view -->
<g id="edge1" class="edge">
<title>model&#45;&gt;view</title>
<path fill="none" stroke="#b03060" d="M152,-313.9551C152,-305.8828 152,-296.1764 152,-287.1817"/>
<polygon fill="#b03060" stroke="#b03060" points="155.5001,-287.0903 152,-277.0904 148.5001,-287.0904 155.5001,-287.0903"/>
</g>
<!-- render -->
<g id="node3" class="node">
<title>render</title>
<polygon fill="#ffa500" stroke="transparent" points="188,-193 0,-193 0,-157 188,-157 188,-193"/>
<text text-anchor="start" x="7.5859" y="-171.4" font-family="Courier,monospace" font-size="12.00" fill="#000000">m.render(element, vnode)</text>
</g>
<!-- view&#45;&gt;render -->
<g id="edge2" class="edge">
<title>view&#45;&gt;render</title>
<path fill="none" stroke="#b03060" d="M139.4149,-240.7733C131.5104,-229.3254 121.18,-214.3641 112.3691,-201.6036"/>
<polygon fill="#b03060" stroke="#b03060" points="115.1227,-199.4315 106.5606,-193.1912 109.3624,-203.4088 115.1227,-199.4315"/>
<text text-anchor="middle" x="143.3477" y="-213.4" font-family="Helvetica,sans-Serif" font-size="12.00" fill="#000080">vnode</text>
</g>
<!-- update -->
<g id="node4" class="node">
<title>update</title>
<polygon fill="#add8e6" stroke="transparent" points="175,-109 95,-109 95,-73 175,-73 175,-109"/>
<text text-anchor="start" x="102.5947" y="-87.4" font-family="Courier,monospace" font-size="12.00" fill="#000000">update(1)</text>
</g>
<!-- render&#45;&gt;update -->
<g id="edge3" class="edge">
<title>render&#45;&gt;update</title>
<path fill="none" stroke="#b03060" d="M102.8964,-156.7733C108.3766,-145.5456 115.5063,-130.9383 121.6544,-118.3422"/>
<polygon fill="#b03060" stroke="#b03060" points="124.8799,-119.7131 126.121,-109.1912 118.5892,-116.6426 124.8799,-119.7131"/>
<text text-anchor="middle" x="131.6777" y="-129.4" font-family="Helvetica,sans-Serif" font-size="12.00" fill="#000080">event</text>
</g>
<!-- modelupdate -->
<g id="node5" class="node">
<title>modelupdate</title>
<polygon fill="#00ff00" stroke="transparent" points="241,-36 103,-36 103,0 241,0 241,-36"/>
<text text-anchor="start" x="110.79" y="-14.4" font-family="Courier,monospace" font-size="12.00" fill="#000000">model = model + 1</text>
</g>
<!-- update&#45;&gt;modelupdate -->
<g id="edge4" class="edge">
<title>update&#45;&gt;modelupdate</title>
<path fill="none" stroke="#b03060" d="M144.1461,-72.9551C148.4154,-64.5319 153.5865,-54.3292 158.3086,-45.0128"/>
<polygon fill="#b03060" stroke="#b03060" points="161.4318,-46.5924 162.8309,-36.0904 155.188,-43.4277 161.4318,-46.5924"/>
</g>
<!-- modelupdate&#45;&gt;view -->
<g id="edge5" class="edge">
<title>modelupdate&#45;&gt;view</title>
<path fill="none" stroke="#b03060" d="M179.1967,-36.0225C190.987,-68.1894 211.5337,-137.3346 195,-193 190.7801,-207.2075 182.4268,-221.2141 174.196,-232.6437"/>
<polygon fill="#b03060" stroke="#b03060" points="171.2362,-230.755 167.9963,-240.8423 176.8196,-234.9771 171.2362,-230.755"/>
</g>
</g>
</svg>
