<?xml version="1.0" encoding="UTF-8" standalone="no"?>
<!DOCTYPE svg PUBLIC "-//W3C//DTD SVG 1.1//EN"
 "http://www.w3.org/Graphics/SVG/1.1/DTD/svg11.dtd">
<!-- Generated by graphviz version 2.44.0 (20200408.0750)
 -->
<!-- Title: meiosistutorial Pages: 1 -->
<svg width="800pt" height="367pt"
 viewBox="0.00 0.00 800.00 367.00" xmlns="http://www.w3.org/2000/svg" xmlns:xlink="http://www.w3.org/1999/xlink">
<g id="graph0" class="graph" transform="scale(1 1) rotate(0) translate(4 363)">
<title>meiosistutorial</title>
<polygon fill="white" stroke="transparent" points="-4,4 -4,-363 796,-363 796,4 -4,4"/>
<!-- stream -->
<g id="node1" class="node">
<title>stream</title>
<text text-anchor="middle" x="87" y="-264.9" font-family="Courier,monospace" font-size="12.00">var update = stream();</text>
</g>
<!-- thestream -->
<g id="node4" class="node">
<title>thestream</title>
<polygon fill="lightblue" stroke="transparent" points="739.5,-286 212.5,-286 212.5,-250 739.5,-250 739.5,-286"/>
<text text-anchor="start" x="222" y="-264.4" font-family="Courier,monospace" font-size="12.00">{ oper: &quot;add&quot;, value: 1 }</text>
<text text-anchor="start" x="416" y="-264.4" font-family="Courier,monospace" font-size="12.00">      ...     </text>
<text text-anchor="start" x="528" y="-264.4" font-family="Courier,monospace" font-size="12.00">{ oper: &quot;times&quot;, value: 2 }</text>
<polygon fill="none" stroke="black" points="216.5,-256.5 216.5,-279.5 735.5,-279.5 735.5,-256.5 216.5,-256.5"/>
</g>
<!-- stream&#45;&gt;thestream -->
<g id="edge3" class="edge">
<title>stream&#45;&gt;thestream</title>
<path fill="none" stroke="maroon" d="M174.3,-268C183.19,-268 192.52,-268 202.17,-268"/>
<polygon fill="maroon" stroke="maroon" points="202.32,-271.5 212.32,-268 202.32,-264.5 202.32,-271.5"/>
<text text-anchor="middle" x="193.25" y="-274.4" font-family="Helvetica,sans-Serif" font-size="12.00" fill="navy"> &#160;&#160;&#160;&#160;&#160;&#160;&#160;</text>
</g>
<!-- updateplus1 -->
<g id="node2" class="node">
<title>updateplus1</title>
<polygon fill="yellow" stroke="transparent" points="444,-359 188,-359 188,-323 444,-323 444,-359"/>
<text text-anchor="middle" x="316" y="-337.9" font-family="Courier,monospace" font-size="12.00">update({ oper: &quot;add&quot;, value: 1 })</text>
</g>
<!-- updateplus1&#45;&gt;thestream -->
<g id="edge1" class="edge">
<title>updateplus1&#45;&gt;thestream:plusone</title>
<path fill="none" stroke="maroon" d="M316,-322.89C316,-312.89 316,-299.77 316,-287.05"/>
<polygon fill="maroon" stroke="maroon" points="319.5,-287 316,-277 312.5,-287 319.5,-287"/>
</g>
<!-- updateplus3 -->
<g id="node3" class="node">
<title>updateplus3</title>
<polygon fill="yellow" stroke="transparent" points="765.5,-359 494.5,-359 494.5,-323 765.5,-323 765.5,-359"/>
<text text-anchor="middle" x="630" y="-337.9" font-family="Courier,monospace" font-size="12.00">update({ oper: &quot;times&quot;, value: 2 })</text>
</g>
<!-- updateplus3&#45;&gt;thestream -->
<g id="edge2" class="edge">
<title>updateplus3&#45;&gt;thestream:plusthree</title>
<path fill="none" stroke="maroon" d="M630,-322.89C630,-312.89 630,-299.77 630,-287.05"/>
<polygon fill="maroon" stroke="maroon" points="633.5,-287 630,-277 626.5,-287 633.5,-287"/>
</g>
<!-- scan1 -->
<g id="node8" class="node">
<title>scan1</title>
<polygon fill="yellow" stroke="transparent" points="461.5,-213 160.5,-213 160.5,-177 461.5,-177 461.5,-213"/>
<text text-anchor="middle" x="311" y="-198.4" font-family="Courier,monospace" font-size="12.00">function(10, { oper: &quot;add&quot;, value: 1 })</text>
<text text-anchor="middle" x="311" y="-185.4" font-family="Courier,monospace" font-size="12.00">return 11;</text>
</g>
<!-- thestream&#45;&gt;scan1 -->
<g id="edge10" class="edge">
<title>thestream:plusone&#45;&gt;scan1</title>
<path fill="none" stroke="maroon" d="M315.8,-247.79C315.34,-235.45 314.19,-222.79 313.12,-213.08"/>
<polygon fill="maroon" stroke="maroon" points="312.3,-248.07 316,-258 319.3,-247.93 312.3,-248.07"/>
</g>
<!-- scan2 -->
<g id="node9" class="node">
<title>scan2</title>
<polygon fill="yellow" stroke="transparent" points="792,-213 476,-213 476,-177 792,-177 792,-213"/>
<text text-anchor="middle" x="634" y="-198.4" font-family="Courier,monospace" font-size="12.00">function(11, { oper: &quot;times&quot;, value: 2 })</text>
<text text-anchor="middle" x="634" y="-185.4" font-family="Courier,monospace" font-size="12.00">return 22;</text>
</g>
<!-- thestream&#45;&gt;scan2 -->
<g id="edge11" class="edge">
<title>thestream:plusthree&#45;&gt;scan2</title>
<path fill="none" stroke="maroon" d="M630.16,-247.8C630.52,-235.47 631.45,-222.81 632.3,-213.09"/>
<polygon fill="maroon" stroke="maroon" points="626.66,-247.95 630,-258 633.66,-248.06 626.66,-247.95"/>
</g>
<!-- scan -->
<g id="node5" class="node">
<title>scan</title>
<text text-anchor="start" x="220" y="-48.9" font-family="Courier,monospace" font-size="12.00">var otherStream = scan(function(model, obj) {</text>
<text text-anchor="start" x="220" y="-29.9" font-family="Courier,monospace" font-size="12.00"> &#160;&#160;&#160;// use obj oper and value to update and return the model</text>
<text text-anchor="start" x="220" y="-10.9" font-family="Courier,monospace" font-size="12.00">}, 10, update);</text>
</g>
<!-- thescanstream -->
<g id="node6" class="node">
<title>thescanstream</title>
<polygon fill="orange" stroke="transparent" points="596,-140 294,-140 294,-104 596,-104 596,-140"/>
<text text-anchor="start" x="303" y="-118.4" font-family="Courier,monospace" font-size="12.00">10</text>
<text text-anchor="start" x="325" y="-118.4" font-family="Courier,monospace" font-size="12.00">      ...     </text>
<text text-anchor="start" x="437" y="-118.4" font-family="Courier,monospace" font-size="12.00">11</text>
<text text-anchor="start" x="459" y="-118.4" font-family="Courier,monospace" font-size="12.00">      ...     </text>
<text text-anchor="start" x="571" y="-118.4" font-family="Courier,monospace" font-size="12.00">22</text>
<polygon fill="none" stroke="black" points="298,-110.5 298,-133.5 592,-133.5 592,-110.5 298,-110.5"/>
</g>
<!-- thescanstream&#45;&gt;scan -->
<g id="edge4" class="edge">
<title>thescanstream&#45;&gt;scan</title>
<path fill="none" stroke="maroon" d="M445,-93.87C445,-85.45 445,-76.08 445,-67.31"/>
<polygon fill="maroon" stroke="maroon" points="441.5,-93.91 445,-103.91 448.5,-93.91 441.5,-93.91"/>
</g>
<!-- scan0 -->
<g id="node7" class="node">
<title>scan0</title>
<polygon fill="yellow" stroke="transparent" points="146.5,-213 85.5,-213 85.5,-177 146.5,-177 146.5,-213"/>
<text text-anchor="middle" x="116" y="-191.9" font-family="Courier,monospace" font-size="12.00">initial</text>
</g>
<!-- scan0&#45;&gt;thescanstream -->
<g id="edge5" class="edge">
<title>scan0&#45;&gt;thescanstream:initial</title>
<path fill="none" stroke="maroon" d="M141.25,-176.88C173.65,-156.53 232.52,-124.85 289.72,-121.32"/>
<polygon fill="maroon" stroke="maroon" points="290.11,-124.81 300,-121 289.9,-117.81 290.11,-124.81"/>
</g>
<!-- scan1&#45;&gt;thescanstream -->
<g id="edge6" class="edge">
<title>scan1&#45;&gt;thescanstream:one</title>
<path fill="none" stroke="maroon" d="M409.44,-176.96C426.38,-169.17 439.85,-157.83 443.81,-141.32"/>
<polygon fill="maroon" stroke="maroon" points="447.33,-141.33 445,-131 440.38,-140.53 447.33,-141.33"/>
</g>
<!-- scan1&#45;&gt;thescanstream -->
<g id="edge8" class="edge">
<title>scan1&#45;&gt;thescanstream:initial</title>
<path fill="none" stroke="maroon" d="M311,-176.89C311,-166.89 311,-153.77 311,-141.05"/>
<polygon fill="maroon" stroke="maroon" points="314.5,-141 311,-131 307.5,-141 314.5,-141"/>
</g>
<!-- scan2&#45;&gt;thescanstream -->
<g id="edge7" class="edge">
<title>scan2&#45;&gt;thescanstream:four</title>
<path fill="none" stroke="maroon" d="M607.14,-176.96C595.8,-167.91 584.31,-155.69 580.4,-141.3"/>
<polygon fill="maroon" stroke="maroon" points="583.82,-140.44 579,-131 576.88,-141.38 583.82,-140.44"/>
</g>
<!-- scan2&#45;&gt;thescanstream -->
<g id="edge9" class="edge">
<title>scan2&#45;&gt;thescanstream:one</title>
<path fill="none" stroke="maroon" d="M530.1,-176.99C493.39,-168.44 458.59,-156.49 448.16,-140.73"/>
<polygon fill="maroon" stroke="maroon" points="451.42,-139.43 445,-131 444.76,-141.59 451.42,-139.43"/>
</g>
</g>
</svg>
