<?xml version="1.0" encoding="UTF-8" standalone="no"?>
<!DOCTYPE svg PUBLIC "-//W3C//DTD SVG 1.1//EN"
 "http://www.w3.org/Graphics/SVG/1.1/DTD/svg11.dtd">
<!-- Generated by graphviz version 2.43.0 (0)
 -->
<!-- Title: meiosistutorial Pages: 1 -->
<svg width="770pt" height="364pt"
 viewBox="0.00 0.00 769.84 364.00" xmlns="http://www.w3.org/2000/svg" xmlns:xlink="http://www.w3.org/1999/xlink">
<g id="graph0" class="graph" transform="scale(1 1) rotate(0) translate(4 360)">
<title>meiosistutorial</title>
<polygon fill="white" stroke="transparent" points="-4,4 -4,-360 765.84,-360 765.84,4 -4,4"/>
<!-- stream -->
<g id="node1" class="node">
<title>stream</title>
<text text-anchor="middle" x="83.21" y="-261.4" font-family="Courier,monospace" font-size="12.00">var update = stream();</text>
</g>
<!-- thestream -->
<g id="node4" class="node">
<title>thestream</title>
<polygon fill="lightblue" stroke="transparent" points="711.21,-283 207.21,-283 207.21,-247 711.21,-247 711.21,-283"/>
<text text-anchor="start" x="216.2" y="-261.4" font-family="Courier,monospace" font-size="12.00">{ oper: &quot;add&quot;, value: 1 }</text>
<text text-anchor="start" x="401.8" y="-261.4" font-family="Courier,monospace" font-size="12.00">      ...     </text>
<text text-anchor="start" x="508" y="-261.4" font-family="Courier,monospace" font-size="12.00">{ oper: &quot;times&quot;, value: 2 }</text>
<polygon fill="none" stroke="black" points="211.21,-254 211.21,-276 707.21,-276 707.21,-254 211.21,-254"/>
</g>
<!-- stream&#45;&gt;thestream -->
<g id="edge3" class="edge">
<title>stream&#45;&gt;thestream</title>
<path fill="none" stroke="maroon" d="M166.66,-265C176.25,-265 186.37,-265 196.87,-265"/>
<polygon fill="maroon" stroke="maroon" points="197.03,-268.5 207.03,-265 197.03,-261.5 197.03,-268.5"/>
<text text-anchor="middle" x="186.82" y="-270.4" font-family="Helvetica,sans-Serif" font-size="12.00" fill="navy"> &#160;&#160;&#160;&#160;&#160;&#160;&#160;</text>
</g>
<!-- updateplus1 -->
<g id="node2" class="node">
<title>updateplus1</title>
<polygon fill="yellow" stroke="transparent" points="428.85,-356 183.57,-356 183.57,-320 428.85,-320 428.85,-356"/>
<text text-anchor="middle" x="306.21" y="-334.4" font-family="Courier,monospace" font-size="12.00">update({ oper: &quot;add&quot;, value: 1 })</text>
</g>
<!-- updateplus1&#45;&gt;thestream -->
<g id="edge1" class="edge">
<title>updateplus1&#45;&gt;thestream:plusone</title>
<path fill="none" stroke="maroon" d="M306.21,-319.89C306.21,-309.89 306.21,-296.77 306.21,-284.05"/>
<polygon fill="maroon" stroke="maroon" points="309.71,-284 306.21,-274 302.71,-284 309.71,-284"/>
</g>
<!-- updateplus3 -->
<g id="node3" class="node">
<title>updateplus3</title>
<polygon fill="yellow" stroke="transparent" points="735.25,-356 475.17,-356 475.17,-320 735.25,-320 735.25,-356"/>
<text text-anchor="middle" x="605.21" y="-334.4" font-family="Courier,monospace" font-size="12.00">update({ oper: &quot;times&quot;, value: 2 })</text>
</g>
<!-- updateplus3&#45;&gt;thestream -->
<g id="edge2" class="edge">
<title>updateplus3&#45;&gt;thestream:plusthree</title>
<path fill="none" stroke="maroon" d="M605.21,-319.89C605.21,-309.89 605.21,-296.77 605.21,-284.05"/>
<polygon fill="maroon" stroke="maroon" points="608.71,-284 605.21,-274 601.71,-284 608.71,-284"/>
</g>
<!-- scan1 -->
<g id="node8" class="node">
<title>scan1</title>
<polygon fill="yellow" stroke="transparent" points="444.56,-210 155.87,-210 155.87,-174 444.56,-174 444.56,-210"/>
<text text-anchor="middle" x="300.21" y="-194.4" font-family="Courier,monospace" font-size="12.00">function(10, { oper: &quot;add&quot;, value: 1 })</text>
<text text-anchor="middle" x="300.21" y="-182.4" font-family="Courier,monospace" font-size="12.00">return 11;</text>
</g>
<!-- thestream&#45;&gt;scan1 -->
<g id="edge10" class="edge">
<title>thestream:plusone&#45;&gt;scan1</title>
<path fill="none" stroke="maroon" d="M305.99,-245.92C305.44,-233.16 304.02,-220.05 302.72,-210.07"/>
<polygon fill="maroon" stroke="maroon" points="302.49,-246.08 306.21,-256 309.49,-245.92 302.49,-246.08"/>
</g>
<!-- scan2 -->
<g id="node9" class="node">
<title>scan2</title>
<polygon fill="yellow" stroke="transparent" points="761.96,-210 458.46,-210 458.46,-174 761.96,-174 761.96,-210"/>
<text text-anchor="middle" x="610.21" y="-194.4" font-family="Courier,monospace" font-size="12.00">function(11, { oper: &quot;times&quot;, value: 2 })</text>
<text text-anchor="middle" x="610.21" y="-182.4" font-family="Courier,monospace" font-size="12.00">return 22;</text>
</g>
<!-- thestream&#45;&gt;scan2 -->
<g id="edge11" class="edge">
<title>thestream:plusthree&#45;&gt;scan2</title>
<path fill="none" stroke="maroon" d="M605.4,-245.93C605.85,-233.18 607.04,-220.07 608.12,-210.08"/>
<polygon fill="maroon" stroke="maroon" points="601.9,-245.94 605.21,-256 608.9,-246.07 601.9,-245.94"/>
</g>
<!-- scan -->
<g id="node5" class="node">
<title>scan</title>
<text text-anchor="start" x="210.21" y="-46.4" font-family="Courier,monospace" font-size="12.00">var otherStream = scan(function(model, obj) {</text>
<text text-anchor="start" x="210.18" y="-28.4" font-family="Courier,monospace" font-size="12.00"> &#160;&#160;&#160;// use obj oper and value to update and return the model</text>
<text text-anchor="start" x="210.21" y="-10.4" font-family="Courier,monospace" font-size="12.00">}, 10, update);</text>
</g>
<!-- thescanstream -->
<g id="node6" class="node">
<title>thescanstream</title>
<polygon fill="orange" stroke="transparent" points="568.21,-137 284.21,-137 284.21,-101 568.21,-101 568.21,-137"/>
<text text-anchor="start" x="293.01" y="-115.4" font-family="Courier,monospace" font-size="12.00">10</text>
<text text-anchor="start" x="312.8" y="-115.4" font-family="Courier,monospace" font-size="12.00">      ...     </text>
<text text-anchor="start" x="419.01" y="-115.4" font-family="Courier,monospace" font-size="12.00">11</text>
<text text-anchor="start" x="438.8" y="-115.4" font-family="Courier,monospace" font-size="12.00">      ...     </text>
<text text-anchor="start" x="545.01" y="-115.4" font-family="Courier,monospace" font-size="12.00">22</text>
<polygon fill="none" stroke="black" points="288.21,-108 288.21,-130 564.21,-130 564.21,-108 288.21,-108"/>
</g>
<!-- thescanstream&#45;&gt;scan -->
<g id="edge4" class="edge">
<title>thescanstream&#45;&gt;scan</title>
<path fill="none" stroke="maroon" d="M426.21,-90.73C426.21,-82.3 426.21,-72.95 426.21,-64.27"/>
<polygon fill="maroon" stroke="maroon" points="422.71,-90.8 426.21,-100.8 429.71,-90.8 422.71,-90.8"/>
</g>
<!-- scan0 -->
<g id="node7" class="node">
<title>scan0</title>
<polygon fill="yellow" stroke="transparent" points="141.62,-210 82.8,-210 82.8,-174 141.62,-174 141.62,-210"/>
<text text-anchor="middle" x="112.21" y="-188.4" font-family="Courier,monospace" font-size="12.00">initial</text>
</g>
<!-- scan0&#45;&gt;thescanstream -->
<g id="edge5" class="edge">
<title>scan0&#45;&gt;thescanstream:initial</title>
<path fill="none" stroke="maroon" d="M136.88,-173.94C168.17,-153.89 224.74,-122.9 279.93,-119.34"/>
<polygon fill="maroon" stroke="maroon" points="280.33,-122.83 290.21,-119 280.1,-115.83 280.33,-122.83"/>
</g>
<!-- scan1&#45;&gt;thescanstream -->
<g id="edge6" class="edge">
<title>scan1&#45;&gt;thescanstream:one</title>
<path fill="none" stroke="maroon" d="M389.77,-173.96C406.92,-166.18 420.86,-154.84 424.98,-138.33"/>
<polygon fill="maroon" stroke="maroon" points="428.5,-138.34 426.21,-128 421.55,-137.51 428.5,-138.34"/>
</g>
<!-- scan1&#45;&gt;thescanstream -->
<g id="edge8" class="edge">
<title>scan1&#45;&gt;thescanstream:initial</title>
<path fill="none" stroke="maroon" d="M300.21,-173.89C300.21,-163.89 300.21,-150.77 300.21,-138.05"/>
<polygon fill="maroon" stroke="maroon" points="303.71,-138 300.21,-128 296.71,-138 303.71,-138"/>
</g>
<!-- scan2&#45;&gt;thescanstream -->
<g id="edge7" class="edge">
<title>scan2&#45;&gt;thescanstream:four</title>
<path fill="none" stroke="maroon" d="M581.21,-173.77C569.32,-164.75 557.42,-152.54 553.53,-137.93"/>
<polygon fill="maroon" stroke="maroon" points="557,-137.45 552.21,-128 550.06,-138.37 557,-137.45"/>
</g>
<!-- scan2&#45;&gt;thescanstream -->
<g id="edge9" class="edge">
<title>scan2&#45;&gt;thescanstream:one</title>
<path fill="none" stroke="maroon" d="M510.67,-173.96C474.43,-165.32 439.76,-153.28 429.36,-137.63"/>
<polygon fill="maroon" stroke="maroon" points="432.65,-136.42 426.21,-128 425.99,-138.59 432.65,-136.42"/>
</g>
</g>
</svg>
