<?xml version="1.0" encoding="UTF-8" standalone="no"?>
<!DOCTYPE svg PUBLIC "-//W3C//DTD SVG 1.1//EN"
 "http://www.w3.org/Graphics/SVG/1.1/DTD/svg11.dtd">
<!-- Generated by graphviz version 2.40.1 (20161225.0304)
 -->
<!-- Title: meiosistutorial Pages: 1 -->
<svg width="337pt" height="358pt"
 viewBox="0.00 0.00 337.00 358.00" xmlns="http://www.w3.org/2000/svg" xmlns:xlink="http://www.w3.org/1999/xlink">
<g id="graph0" class="graph" transform="scale(1 1) rotate(0) translate(4 354)">
<title>meiosistutorial</title>
<polygon fill="#ffffff" stroke="transparent" points="-4,4 -4,-354 333,-354 333,4 -4,4"/>
<!-- model -->
<g id="node1" class="node">
<title>model</title>
<polygon fill="#add8e6" stroke="transparent" points="250,-350 196,-350 196,-314 250,-314 250,-350"/>
<text text-anchor="start" x="204.9971" y="-328.4" font-family="Courier,monospace" font-size="12.00" fill="#000000">model</text>
</g>
<!-- view -->
<g id="node2" class="node">
<title>view</title>
<polygon fill="#ffff00" stroke="transparent" points="270.5,-277 175.5,-277 175.5,-241 270.5,-241 270.5,-277"/>
<text text-anchor="start" x="183.8936" y="-255.4" font-family="Courier,monospace" font-size="12.00" fill="#000000">view(model)</text>
</g>
<!-- model&#45;&gt;view -->
<g id="edge1" class="edge">
<title>model&#45;&gt;view</title>
<path fill="none" stroke="#b03060" d="M223,-313.9551C223,-305.8828 223,-296.1764 223,-287.1817"/>
<polygon fill="#b03060" stroke="#b03060" points="226.5001,-287.0903 223,-277.0904 219.5001,-287.0904 226.5001,-287.0903"/>
</g>
<!-- render -->
<g id="node3" class="node">
<title>render</title>
<polygon fill="#ffa500" stroke="transparent" points="282,-193 0,-193 0,-157 282,-157 282,-193"/>
<text text-anchor="start" x="7.7783" y="-171.4" font-family="Courier,monospace" font-size="12.00" fill="#000000">ReactDOM.render(view(model), element)</text>
</g>
<!-- view&#45;&gt;render -->
<g id="edge2" class="edge">
<title>view&#45;&gt;render</title>
<path fill="none" stroke="#b03060" d="M205.2072,-240.7733C193.7096,-228.9952 178.5814,-213.4981 165.8977,-200.5049"/>
<polygon fill="#b03060" stroke="#b03060" points="168.248,-197.9021 158.7581,-193.1912 163.2389,-202.7918 168.248,-197.9021"/>
<text text-anchor="middle" x="203.3477" y="-213.4" font-family="Helvetica,sans-Serif" font-size="12.00" fill="#000080">vnode</text>
</g>
<!-- update -->
<g id="node4" class="node">
<title>update</title>
<polygon fill="#add8e6" stroke="transparent" points="257,-109 177,-109 177,-73 257,-73 257,-109"/>
<text text-anchor="start" x="184.5947" y="-87.4" font-family="Courier,monospace" font-size="12.00" fill="#000000">update(1)</text>
</g>
<!-- render&#45;&gt;update -->
<g id="edge3" class="edge">
<title>render&#45;&gt;update</title>
<path fill="none" stroke="#b03060" d="M157.4909,-156.7733C168.0476,-145.1053 181.9066,-129.7874 193.5939,-116.8699"/>
<polygon fill="#b03060" stroke="#b03060" points="196.4275,-118.9548 200.5413,-109.1912 191.2368,-114.2584 196.4275,-118.9548"/>
<text text-anchor="middle" x="198.6777" y="-129.4" font-family="Helvetica,sans-Serif" font-size="12.00" fill="#000080">event</text>
</g>
<!-- modelupdate -->
<g id="node5" class="node">
<title>modelupdate</title>
<polygon fill="#00ff00" stroke="transparent" points="329,-36 191,-36 191,0 329,0 329,-36"/>
<text text-anchor="start" x="198.79" y="-14.4" font-family="Courier,monospace" font-size="12.00" fill="#000000">model = model + 1</text>
</g>
<!-- update&#45;&gt;modelupdate -->
<g id="edge4" class="edge">
<title>update&#45;&gt;modelupdate</title>
<path fill="none" stroke="#b03060" d="M227.6292,-72.9551C232.6425,-64.4441 238.7259,-54.1165 244.2597,-44.7219"/>
<polygon fill="#b03060" stroke="#b03060" points="247.2843,-46.4831 249.344,-36.0904 241.2529,-42.9303 247.2843,-46.4831"/>
</g>
<!-- modelupdate&#45;&gt;view -->
<g id="edge5" class="edge">
<title>modelupdate&#45;&gt;view</title>
<path fill="none" stroke="#b03060" d="M269.2538,-36.1182C284.5714,-68.7285 311.3919,-138.9411 289,-193 282.324,-209.1173 269.591,-223.3508 257.076,-234.4346"/>
<polygon fill="#b03060" stroke="#b03060" points="254.7682,-231.8023 249.3679,-240.9175 259.2739,-237.1595 254.7682,-231.8023"/>
</g>
</g>
</svg>
