<?xml version="1.0" encoding="UTF-8" standalone="no"?>
<!DOCTYPE svg PUBLIC "-//W3C//DTD SVG 1.1//EN"
 "http://www.w3.org/Graphics/SVG/1.1/DTD/svg11.dtd">
<!-- Generated by graphviz version 2.40.1 (20161225.0304)
 -->
<!-- Title: meiosistutorial Pages: 1 -->
<svg width="528pt" height="229pt"
 viewBox="0.00 0.00 528.00 229.00" xmlns="http://www.w3.org/2000/svg" xmlns:xlink="http://www.w3.org/1999/xlink">
<g id="graph0" class="graph" transform="scale(1 1) rotate(0) translate(4 225)">
<title>meiosistutorial</title>
<polygon fill="#ffffff" stroke="transparent" points="-4,4 -4,-225 524,-225 524,4 -4,4"/>
<!-- model -->
<g id="node1" class="node">
<title>model</title>
<polygon fill="#add8e6" stroke="transparent" points="386,-221 126,-221 126,-157 386,-157 386,-221"/>
<text text-anchor="start" x="237.9971" y="-203.4" font-family="Courier,monospace" font-size="12.00" fill="#000000">model</text>
<text text-anchor="start" x="137.1807" y="-185.4" font-family="Courier,monospace" font-size="12.00" fill="#000000">{ air: { value: 22, units: &quot;C&quot; },</text>
<text text-anchor="start" x="133.5801" y="-167.4" font-family="Courier,monospace" font-size="12.00" fill="#000000">water: { value: 84, units: &quot;F&quot; } }</text>
</g>
<!-- view -->
<g id="node2" class="node">
<title>view</title>
<polygon fill="#ffff00" stroke="transparent" points="303.5,-120 208.5,-120 208.5,-84 303.5,-84 303.5,-120"/>
<text text-anchor="start" x="216.8936" y="-98.4" font-family="Courier,monospace" font-size="12.00" fill="#000000">view(model)</text>
</g>
<!-- model&#45;&gt;view -->
<g id="edge1" class="edge">
<title>model&#45;&gt;view</title>
<path fill="none" stroke="#b03060" d="M256,-156.6044C256,-147.9084 256,-138.5779 256,-130.1338"/>
<polygon fill="#b03060" stroke="#b03060" points="259.5001,-130.0264 256,-120.0265 252.5001,-130.0265 259.5001,-130.0264"/>
</g>
<!-- air -->
<g id="node3" class="node">
<title>air</title>
<polygon fill="#ffa500" stroke="transparent" points="246,-36 0,-36 0,0 246,0 246,-36"/>
<text text-anchor="start" x="7.7813" y="-14.4" font-family="Courier,monospace" font-size="12.00" fill="#000000">air( { value: 22, units: &quot;C&quot; } )</text>
</g>
<!-- view&#45;&gt;air -->
<g id="edge2" class="edge">
<title>view&#45;&gt;air</title>
<path fill="none" stroke="#b03060" d="M227.4682,-83.9799C207.8794,-71.608 181.6805,-55.0614 160.4199,-41.6336"/>
<polygon fill="#b03060" stroke="#b03060" points="162.2675,-38.6609 151.9436,-36.2801 158.5295,-44.5793 162.2675,-38.6609"/>
<text text-anchor="middle" x="236.6748" y="-56.4" font-family="Helvetica,sans-Serif" font-size="12.00" fill="#000080"> &#160;air(model.air)</text>
</g>
<!-- water -->
<g id="node4" class="node">
<title>water</title>
<polygon fill="#ffa500" stroke="transparent" points="520,-36 260,-36 260,0 520,0 520,-36"/>
<text text-anchor="start" x="267.5801" y="-14.4" font-family="Courier,monospace" font-size="12.00" fill="#000000">water( { value: 84, units: &quot;F&quot; } )</text>
</g>
<!-- view&#45;&gt;water -->
<g id="edge3" class="edge">
<title>view&#45;&gt;water</title>
<path fill="none" stroke="#b03060" d="M284.7464,-83.9799C304.4824,-71.608 330.8783,-55.0614 352.2988,-41.6336"/>
<polygon fill="#b03060" stroke="#b03060" points="354.2249,-44.5571 360.8388,-36.2801 350.5069,-38.626 354.2249,-44.5571"/>
<text text-anchor="middle" x="385.6826" y="-56.4" font-family="Helvetica,sans-Serif" font-size="12.00" fill="#000080"> &#160;water(model.water)</text>
</g>
</g>
</svg>
