<?xml version="1.0" encoding="UTF-8" standalone="no"?>
<!DOCTYPE svg PUBLIC "-//W3C//DTD SVG 1.1//EN"
 "http://www.w3.org/Graphics/SVG/1.1/DTD/svg11.dtd">
<!-- Generated by graphviz version 2.40.1 (20161225.0304)
 -->
<!-- Title: meiosistutorial Pages: 1 -->
<svg width="356pt" height="358pt"
 viewBox="0.00 0.00 355.50 358.00" xmlns="http://www.w3.org/2000/svg" xmlns:xlink="http://www.w3.org/1999/xlink">
<g id="graph0" class="graph" transform="scale(1 1) rotate(0) translate(4 354)">
<title>meiosistutorial</title>
<polygon fill="#ffffff" stroke="transparent" points="-4,4 -4,-354 351.5,-354 351.5,4 -4,4"/>
<!-- model -->
<g id="node1" class="node">
<title>model</title>
<polygon fill="#add8e6" stroke="transparent" points="250,-350 196,-350 196,-314 250,-314 250,-350"/>
<text text-anchor="start" x="204.9971" y="-328.4" font-family="Courier,monospace" font-size="12.00" fill="#000000">model</text>
</g>
<!-- view -->
<g id="node2" class="node">
<title>view</title>
<polygon fill="#ffff00" stroke="transparent" points="270.5,-277 175.5,-277 175.5,-241 270.5,-241 270.5,-277"/>
<text text-anchor="start" x="183.8936" y="-255.4" font-family="Courier,monospace" font-size="12.00" fill="#000000">view(model)</text>
</g>
<!-- model&#45;&gt;view -->
<g id="edge1" class="edge">
<title>model&#45;&gt;view</title>
<path fill="none" stroke="#b03060" d="M223,-313.9551C223,-305.8828 223,-296.1764 223,-287.1817"/>
<polygon fill="#b03060" stroke="#b03060" points="226.5001,-287.0903 223,-277.0904 219.5001,-287.0904 226.5001,-287.0903"/>
</g>
<!-- render -->
<g id="node3" class="node">
<title>render</title>
<polygon fill="#ffa500" stroke="transparent" points="282,-193 0,-193 0,-157 282,-157 282,-193"/>
<text text-anchor="start" x="7.7783" y="-171.4" font-family="Courier,monospace" font-size="12.00" fill="#000000">ReactDOM.render(view(model), element)</text>
</g>
<!-- view&#45;&gt;render -->
<g id="edge2" class="edge">
<title>view&#45;&gt;render</title>
<path fill="none" stroke="#b03060" d="M205.2072,-240.7733C193.7096,-228.9952 178.5814,-213.4981 165.8977,-200.5049"/>
<polygon fill="#b03060" stroke="#b03060" points="168.248,-197.9021 158.7581,-193.1912 163.2389,-202.7918 168.248,-197.9021"/>
<text text-anchor="middle" x="203.3477" y="-213.4" font-family="Helvetica,sans-Serif" font-size="12.00" fill="#000080">vnode</text>
</g>
<!-- update -->
<g id="node4" class="node">
<title>update</title>
<polygon fill="#add8e6" stroke="transparent" points="258.5,-109 163.5,-109 163.5,-73 258.5,-73 258.5,-109"/>
<text text-anchor="start" x="171.8936" y="-87.4" font-family="Courier,monospace" font-size="12.00" fill="#000000">update(...)</text>
</g>
<!-- render&#45;&gt;update -->
<g id="edge3" class="edge">
<title>render&#45;&gt;update</title>
<path fill="none" stroke="#b03060" d="M156.189,-156.7733C165.8205,-145.2154 178.4366,-130.0761 189.1366,-117.2361"/>
<polygon fill="#b03060" stroke="#b03060" points="192.1276,-119.1141 195.8407,-109.1912 186.75,-114.6328 192.1276,-119.1141"/>
<text text-anchor="middle" x="195.6777" y="-129.4" font-family="Helvetica,sans-Serif" font-size="12.00" fill="#000080">event</text>
</g>
<!-- modelupdate -->
<g id="node5" class="node">
<title>modelupdate</title>
<polygon fill="#00ff00" stroke="transparent" points="347.5,-36 166.5,-36 166.5,0 347.5,0 347.5,-36"/>
<text text-anchor="start" x="174.6865" y="-14.4" font-family="Courier,monospace" font-size="12.00" fill="#000000">model = &lt;updated model&gt;</text>
</g>
<!-- update&#45;&gt;modelupdate -->
<g id="edge4" class="edge">
<title>update&#45;&gt;modelupdate</title>
<path fill="none" stroke="#b03060" d="M222.3708,-72.9551C227.7338,-64.4441 234.2417,-54.1165 240.1615,-44.7219"/>
<polygon fill="#b03060" stroke="#b03060" points="243.2305,-46.4167 245.6006,-36.0904 237.3082,-42.6848 243.2305,-46.4167"/>
</g>
<!-- modelupdate&#45;&gt;view -->
<g id="edge5" class="edge">
<title>modelupdate&#45;&gt;view</title>
<path fill="none" stroke="#b03060" d="M266.7621,-36.0869C282.9524,-68.6475 311.457,-138.7841 289,-193 282.324,-209.1173 269.591,-223.3508 257.076,-234.4346"/>
<polygon fill="#b03060" stroke="#b03060" points="254.7682,-231.8023 249.3679,-240.9175 259.2739,-237.1595 254.7682,-231.8023"/>
</g>
</g>
</svg>
