<?xml version="1.0" encoding="UTF-8" standalone="no"?>
<!DOCTYPE svg PUBLIC "-//W3C//DTD SVG 1.1//EN"
 "http://www.w3.org/Graphics/SVG/1.1/DTD/svg11.dtd">
<!-- Generated by graphviz version 2.40.1 (20161225.0304)
 -->
<!-- Title: meiosistutorial Pages: 1 -->
<svg width="247pt" height="188pt"
 viewBox="0.00 0.00 247.00 188.00" xmlns="http://www.w3.org/2000/svg" xmlns:xlink="http://www.w3.org/1999/xlink">
<g id="graph0" class="graph" transform="scale(1 1) rotate(0) translate(4 184)">
<title>meiosistutorial</title>
<polygon fill="#ffffff" stroke="transparent" points="-4,4 -4,-184 243,-184 243,4 -4,4"/>
<!-- nupdate -->
<g id="node1" class="node">
<title>nupdate</title>
<polygon fill="#add8e6" stroke="transparent" points="221,-108 18,-108 18,-72 221,-72 221,-108"/>
<text text-anchor="start" x="26.3848" y="-86.4" font-family="Courier,monospace" font-size="12.00" fill="#000000">nestUpdate(update, &quot;air&quot;);</text>
</g>
<!-- update -->
<g id="node3" class="node">
<title>update</title>
<polygon fill="#ffa500" stroke="transparent" points="239,-36 0,-36 0,0 239,0 239,-36"/>
<text text-anchor="start" x="8.3818" y="-14.4" font-family="Courier,monospace" font-size="12.00" fill="#000000">update({ air: { value: 23 } });</text>
</g>
<!-- nupdate&#45;&gt;update -->
<g id="edge2" class="edge">
<title>nupdate&#45;&gt;update</title>
<path fill="none" stroke="#b03060" d="M119.5,-71.8314C119.5,-64.131 119.5,-54.9743 119.5,-46.4166"/>
<polygon fill="#b03060" stroke="#b03060" points="123.0001,-46.4132 119.5,-36.4133 116.0001,-46.4133 123.0001,-46.4132"/>
</g>
<!-- air -->
<g id="node2" class="node">
<title>air</title>
<polygon fill="#ffff00" stroke="transparent" points="206.5,-180 32.5,-180 32.5,-144 206.5,-144 206.5,-180"/>
<text text-anchor="start" x="40.2871" y="-158.4" font-family="Courier,monospace" font-size="12.00" fill="#000000">update({ value: 23 });</text>
</g>
<!-- air&#45;&gt;nupdate -->
<g id="edge1" class="edge">
<title>air&#45;&gt;nupdate</title>
<path fill="none" stroke="#b03060" d="M119.5,-143.8314C119.5,-136.131 119.5,-126.9743 119.5,-118.4166"/>
<polygon fill="#b03060" stroke="#b03060" points="123.0001,-118.4132 119.5,-108.4133 116.0001,-118.4133 123.0001,-118.4132"/>
</g>
</g>
</svg>
