<?xml version="1.0" encoding="UTF-8" standalone="no"?>
<!DOCTYPE svg PUBLIC "-//W3C//DTD SVG 1.1//EN"
 "http://www.w3.org/Graphics/SVG/1.1/DTD/svg11.dtd">
<!-- Generated by graphviz version 2.40.1 (20161225.0304)
 -->
<!-- Title: meiosistutorial Pages: 1 -->
<svg width="290pt" height="201pt"
 viewBox="0.00 0.00 290.00 201.00" xmlns="http://www.w3.org/2000/svg" xmlns:xlink="http://www.w3.org/1999/xlink">
<g id="graph0" class="graph" transform="scale(1 1) rotate(0) translate(4 197)">
<title>meiosistutorial</title>
<polygon fill="#ffffff" stroke="transparent" points="-4,4 -4,-197 286,-197 286,4 -4,4"/>
<!-- model -->
<g id="node1" class="node">
<title>model</title>
<polygon fill="#add8e6" stroke="transparent" points="168,-193 114,-193 114,-157 168,-157 168,-193"/>
<text text-anchor="start" x="122.9971" y="-171.4" font-family="Courier,monospace" font-size="12.00" fill="#000000">model</text>
</g>
<!-- render -->
<g id="node2" class="node">
<title>render</title>
<polygon fill="#ffa500" stroke="transparent" points="282,-120 0,-120 0,-84 282,-84 282,-120"/>
<text text-anchor="start" x="7.7783" y="-98.4" font-family="Courier,monospace" font-size="12.00" fill="#000000">ReactDOM.render(view(model), element)</text>
</g>
<!-- model&#45;&gt;render -->
<g id="edge1" class="edge">
<title>model&#45;&gt;render</title>
<path fill="none" stroke="#b03060" d="M141,-156.9551C141,-148.8828 141,-139.1764 141,-130.1817"/>
<polygon fill="#b03060" stroke="#b03060" points="144.5001,-130.0903 141,-120.0904 137.5001,-130.0904 144.5001,-130.0903"/>
</g>
<!-- update -->
<g id="node3" class="node">
<title>update</title>
<polygon fill="#00ff00" stroke="transparent" points="188.5,-36 93.5,-36 93.5,0 188.5,0 188.5,-36"/>
<text text-anchor="start" x="101.8936" y="-14.4" font-family="Courier,monospace" font-size="12.00" fill="#000000">update(...)</text>
</g>
<!-- render&#45;&gt;update -->
<g id="edge2" class="edge">
<title>render&#45;&gt;update</title>
<path fill="none" stroke="#b03060" d="M112.6221,-83.8998C106.9643,-78.844 101.797,-72.8329 98.6367,-66 94.9478,-58.0242 97.5781,-50.3966 102.9762,-43.6628"/>
<polygon fill="#b03060" stroke="#b03060" points="105.818,-45.7676 110.3718,-36.2013 100.8463,-40.8398 105.818,-45.7676"/>
<text text-anchor="middle" x="133.6816" y="-56.4" font-family="Helvetica,sans-Serif" font-size="12.00" fill="#000080"> event &#160;&#160;&#160;&#160;&#160;&#160;&#160;&#160;&#160;&#160;</text>
</g>
<!-- update&#45;&gt;render -->
<g id="edge3" class="edge">
<title>update&#45;&gt;render</title>
<path fill="none" stroke="#b03060" d="M159.1926,-36.4329C165.5318,-45.077 170.3241,-55.7199 167,-66 165.98,-69.1543 164.5692,-72.2647 162.9275,-75.2568"/>
<polygon fill="#b03060" stroke="#b03060" points="159.9015,-73.4924 157.4701,-83.8045 165.8015,-77.2594 159.9015,-73.4924"/>
<text text-anchor="middle" x="211.0313" y="-56.4" font-family="Helvetica,sans-Serif" font-size="12.00" fill="#000080"> &#160;updated model</text>
</g>
</g>
</svg>
