<?xml version="1.0" encoding="UTF-8" standalone="no"?>
<!DOCTYPE svg PUBLIC "-//W3C//DTD SVG 1.1//EN"
 "http://www.w3.org/Graphics/SVG/1.1/DTD/svg11.dtd">
<!-- Generated by graphviz version 2.43.0 (0)
 -->
<!-- Title: meiosistutorial Pages: 1 -->
<svg width="290pt" height="201pt"
 viewBox="0.00 0.00 290.00 201.00" xmlns="http://www.w3.org/2000/svg" xmlns:xlink="http://www.w3.org/1999/xlink">
<g id="graph0" class="graph" transform="scale(1 1) rotate(0) translate(4 197)">
<title>meiosistutorial</title>
<polygon fill="white" stroke="transparent" points="-4,4 -4,-197 286,-197 286,4 -4,4"/>
<!-- model -->
<g id="node1" class="node">
<title>model</title>
<polygon fill="lightblue" stroke="transparent" points="168,-193 114,-193 114,-157 168,-157 168,-193"/>
<text text-anchor="start" x="123" y="-171.4" font-family="Courier,monospace" font-size="12.00">model</text>
</g>
<!-- render -->
<g id="node2" class="node">
<title>render</title>
<polygon fill="orange" stroke="transparent" points="282,-120 0,-120 0,-84 282,-84 282,-120"/>
<text text-anchor="start" x="7.78" y="-98.4" font-family="Courier,monospace" font-size="12.00">ReactDOM.render(view(model), element)</text>
</g>
<!-- model&#45;&gt;render -->
<g id="edge1" class="edge">
<title>model&#45;&gt;render</title>
<path fill="none" stroke="maroon" d="M141,-156.81C141,-148.79 141,-139.05 141,-130.07"/>
<polygon fill="maroon" stroke="maroon" points="144.5,-130.03 141,-120.03 137.5,-130.03 144.5,-130.03"/>
</g>
<!-- update -->
<g id="node3" class="node">
<title>update</title>
<polygon fill="green" stroke="transparent" points="188.5,-36 93.5,-36 93.5,0 188.5,0 188.5,-36"/>
<text text-anchor="start" x="101.89" y="-14.4" font-family="Courier,monospace" font-size="12.00">update(...)</text>
</g>
<!-- render&#45;&gt;update -->
<g id="edge2" class="edge">
<title>render&#45;&gt;update</title>
<path fill="none" stroke="maroon" d="M113.07,-83.91C107.25,-78.91 101.89,-72.9 98.64,-66 94.75,-57.75 97.84,-49.91 103.78,-43.08"/>
<polygon fill="maroon" stroke="maroon" points="106.31,-45.52 111.16,-36.1 101.49,-40.43 106.31,-45.52"/>
<text text-anchor="middle" x="133.68" y="-56.4" font-family="Helvetica,sans-Serif" font-size="12.00" fill="navy"> event &#160;&#160;&#160;&#160;&#160;&#160;&#160;&#160;&#160;&#160;</text>
</g>
<!-- update&#45;&gt;render -->
<g id="edge3" class="edge">
<title>update&#45;&gt;render</title>
<path fill="none" stroke="maroon" d="M158.53,-36.14C165.2,-44.75 170.46,-55.55 167,-66 165.95,-69.16 164.5,-72.27 162.81,-75.25"/>
<polygon fill="maroon" stroke="maroon" points="159.79,-73.46 157.19,-83.73 165.63,-77.33 159.79,-73.46"/>
<text text-anchor="middle" x="211.03" y="-56.4" font-family="Helvetica,sans-Serif" font-size="12.00" fill="navy"> &#160;updated model</text>
</g>
</g>
</svg>
