<?xml version="1.0" encoding="UTF-8" standalone="no"?>
<!DOCTYPE svg PUBLIC "-//W3C//DTD SVG 1.1//EN"
 "http://www.w3.org/Graphics/SVG/1.1/DTD/svg11.dtd">
<!-- Generated by graphviz version 2.50.0 (20211204.2007)
 -->
<!-- Title: meiosistutorial Pages: 1 -->
<svg width="302pt" height="202pt"
 viewBox="0.00 0.00 302.00 202.00" xmlns="http://www.w3.org/2000/svg" xmlns:xlink="http://www.w3.org/1999/xlink">
<g id="graph0" class="graph" transform="scale(1 1) rotate(0) translate(4 198)">
<title>meiosistutorial</title>
<polygon fill="white" stroke="transparent" points="-4,4 -4,-198 298,-198 298,4 -4,4"/>
<!-- model -->
<g id="node1" class="node">
<title>model</title>
<polygon fill="lightblue" stroke="transparent" points="174,-194 120,-194 120,-158 174,-158 174,-194"/>
<text text-anchor="start" x="128" y="-172.4" font-family="Courier,monospace" font-size="12.00">model</text>
</g>
<!-- render -->
<g id="node2" class="node">
<title>render</title>
<polygon fill="orange" stroke="transparent" points="294,-121 0,-121 0,-85 294,-85 294,-121"/>
<text text-anchor="start" x="8" y="-99.4" font-family="Courier,monospace" font-size="12.00">ReactDOM.render(view(model), element)</text>
</g>
<!-- model&#45;&gt;render -->
<g id="edge1" class="edge">
<title>model&#45;&gt;render</title>
<path fill="none" stroke="maroon" d="M147,-157.81C147,-149.79 147,-140.05 147,-131.07"/>
<polygon fill="maroon" stroke="maroon" points="150.5,-131.03 147,-121.03 143.5,-131.03 150.5,-131.03"/>
</g>
<!-- update -->
<g id="node3" class="node">
<title>update</title>
<polygon fill="green" stroke="transparent" points="196.5,-36 97.5,-36 97.5,0 196.5,0 196.5,-36"/>
<text text-anchor="start" x="106" y="-14.4" font-family="Courier,monospace" font-size="12.00">update(...)</text>
</g>
<!-- render&#45;&gt;update -->
<g id="edge2" class="edge">
<title>render&#45;&gt;update</title>
<path fill="none" stroke="maroon" d="M120.6,-84.65C115.1,-79.66 110.05,-73.72 107,-67 103.18,-58.59 106.33,-50.46 112.24,-43.35"/>
<polygon fill="maroon" stroke="maroon" points="114.92,-45.62 119.53,-36.08 109.98,-40.67 114.92,-45.62"/>
<text text-anchor="middle" x="140" y="-57.4" font-family="Helvetica,sans-Serif" font-size="12.00" fill="navy"> event &#160;&#160;&#160;&#160;&#160;&#160;&#160;&#160;&#160;&#160;</text>
</g>
<!-- update&#45;&gt;render -->
<g id="edge3" class="edge">
<title>update&#45;&gt;render</title>
<path fill="none" stroke="maroon" d="M163.58,-36.16C170.16,-45.04 175.44,-56.26 172,-67 171,-70.13 169.6,-73.22 167.98,-76.18"/>
<polygon fill="maroon" stroke="maroon" points="165,-74.34 162.58,-84.65 170.91,-78.1 165,-74.34"/>
<text text-anchor="middle" x="216" y="-57.4" font-family="Helvetica,sans-Serif" font-size="12.00" fill="navy"> &#160;updated model</text>
</g>
</g>
</svg>
