<?xml version="1.0" encoding="UTF-8" standalone="no"?>
<!DOCTYPE svg PUBLIC "-//W3C//DTD SVG 1.1//EN"
 "http://www.w3.org/Graphics/SVG/1.1/DTD/svg11.dtd">
<!-- Generated by graphviz version 2.50.0 (20211204.2007)
 -->
<!-- Title: meiosisdocs Pages: 1 -->
<svg width="440pt" height="275pt"
 viewBox="0.00 0.00 440.00 275.00" xmlns="http://www.w3.org/2000/svg" xmlns:xlink="http://www.w3.org/1999/xlink">
<g id="graph0" class="graph" transform="scale(1 1) rotate(0) translate(4 271)">
<title>meiosisdocs</title>
<polygon fill="white" stroke="transparent" points="-4,4 -4,-271 436,-271 436,4 -4,4"/>
<!-- stream -->
<g id="node1" class="node">
<title>stream</title>
<text text-anchor="middle" x="94.5" y="-172.9" font-family="Courier,monospace" font-size="12.00">const update = stream();</text>
</g>
<!-- thestream -->
<g id="node4" class="node">
<title>thestream</title>
<polygon fill="lightblue" stroke="transparent" points="387.5,-194 227.5,-194 227.5,-158 387.5,-158 387.5,-194"/>
<text text-anchor="start" x="236.5" y="-172.4" font-family="Courier,monospace" font-size="12.00">1</text>
<text text-anchor="start" x="250.5" y="-172.4" font-family="Courier,monospace" font-size="12.00">      ...     </text>
<text text-anchor="start" x="362.5" y="-172.4" font-family="Courier,monospace" font-size="12.00">&#45;1</text>
<polygon fill="none" stroke="black" points="231.5,-164.5 231.5,-187.5 383.5,-187.5 383.5,-164.5 231.5,-164.5"/>
</g>
<!-- stream&#45;&gt;thestream -->
<g id="edge3" class="edge">
<title>stream&#45;&gt;thestream</title>
<path fill="none" stroke="maroon" d="M189.17,-176C198.55,-176 208.06,-176 217.39,-176"/>
<polygon fill="maroon" stroke="maroon" points="217.44,-179.5 227.44,-176 217.44,-172.5 217.44,-179.5"/>
<text text-anchor="middle" x="208.25" y="-182.4" font-family="Helvetica,sans-Serif" font-size="12.00" fill="navy"> &#160;&#160;&#160;&#160;&#160;&#160;&#160;</text>
</g>
<!-- updateplus1 -->
<g id="node2" class="node">
<title>updateplus1</title>
<polygon fill="yellow" stroke="transparent" points="278.5,-267 202.5,-267 202.5,-231 278.5,-231 278.5,-267"/>
<text text-anchor="middle" x="240.5" y="-245.9" font-family="Courier,monospace" font-size="12.00">update(1)</text>
</g>
<!-- updateplus1&#45;&gt;thestream -->
<g id="edge1" class="edge">
<title>updateplus1&#45;&gt;thestream:plusone</title>
<path fill="none" stroke="maroon" d="M240.5,-230.89C240.5,-220.89 240.5,-207.77 240.5,-195.05"/>
<polygon fill="maroon" stroke="maroon" points="244,-195 240.5,-185 237,-195 244,-195"/>
</g>
<!-- updateminus1 -->
<g id="node3" class="node">
<title>updateminus1</title>
<polygon fill="yellow" stroke="transparent" points="412.5,-267 328.5,-267 328.5,-231 412.5,-231 412.5,-267"/>
<text text-anchor="middle" x="370.5" y="-245.9" font-family="Courier,monospace" font-size="12.00">update(&#45;1)</text>
</g>
<!-- updateminus1&#45;&gt;thestream -->
<g id="edge2" class="edge">
<title>updateminus1&#45;&gt;thestream:minusone</title>
<path fill="none" stroke="maroon" d="M370.5,-230.89C370.5,-220.89 370.5,-207.77 370.5,-195.05"/>
<polygon fill="maroon" stroke="maroon" points="374,-195 370.5,-185 367,-195 374,-195"/>
</g>
<!-- map -->
<g id="node5" class="node">
<title>map</title>
<text text-anchor="start" x="191.5" y="-103.4" font-family="Courier,monospace" font-size="12.00">const otherStream = update.map(</text>
<text text-anchor="start" x="191.5" y="-84.4" font-family="Courier,monospace" font-size="12.00"> &#160;&#160;&#160;(value) =&gt; value * 10);</text>
</g>
<!-- thestream&#45;&gt;map -->
<g id="edge4" class="edge">
<title>thestream&#45;&gt;map</title>
<path fill="none" stroke="maroon" d="M307.5,-147.84C307.5,-139.13 307.5,-129.57 307.5,-121.17"/>
<polygon fill="maroon" stroke="maroon" points="304,-147.91 307.5,-157.91 311,-147.91 304,-147.91"/>
</g>
<!-- themapstream -->
<g id="node6" class="node">
<title>themapstream</title>
<polygon fill="orange" stroke="transparent" points="395,-36 220,-36 220,0 395,0 395,-36"/>
<text text-anchor="start" x="229.5" y="-14.4" font-family="Courier,monospace" font-size="12.00">10</text>
<text text-anchor="start" x="251.5" y="-14.4" font-family="Courier,monospace" font-size="12.00">      ...     </text>
<text text-anchor="start" x="363.5" y="-14.4" font-family="Courier,monospace" font-size="12.00">&#45;10</text>
<polygon fill="none" stroke="black" points="224,-6.5 224,-29.5 391,-29.5 391,-6.5 224,-6.5"/>
</g>
<!-- map&#45;&gt;themapstream -->
<g id="edge5" class="edge">
<title>map&#45;&gt;themapstream</title>
<path fill="none" stroke="maroon" d="M307.5,-72.9C307.5,-64.58 307.5,-55.12 307.5,-46.47"/>
<polygon fill="maroon" stroke="maroon" points="311,-46.45 307.5,-36.45 304,-46.45 311,-46.45"/>
</g>
<!-- otherStream -->
<g id="node7" class="node">
<title>otherStream</title>
<text text-anchor="middle" x="135.5" y="-14.9" font-family="Courier,monospace" font-size="12.00">otherStream</text>
</g>
<!-- otherStream&#45;&gt;themapstream -->
<g id="edge6" class="edge">
<title>otherStream&#45;&gt;themapstream</title>
<path fill="none" stroke="maroon" d="M181.14,-18C190.01,-18 199.61,-18 209.43,-18"/>
<polygon fill="maroon" stroke="maroon" points="209.71,-21.5 219.71,-18 209.71,-14.5 209.71,-21.5"/>
<text text-anchor="middle" x="200.5" y="-24.4" font-family="Helvetica,sans-Serif" font-size="12.00" fill="navy"> &#160;&#160;&#160;&#160;&#160;&#160;&#160;</text>
</g>
</g>
</svg>
