<?xml version="1.0" encoding="UTF-8" standalone="no"?>
<!DOCTYPE svg PUBLIC "-//W3C//DTD SVG 1.1//EN"
 "http://www.w3.org/Graphics/SVG/1.1/DTD/svg11.dtd">
<!-- Generated by graphviz version 3.0.0 (20220226.1711)
 -->
<!-- Title: meiosisdocs Pages: 1 -->
<svg width="690pt" height="386pt"
 viewBox="0.00 0.00 689.50 386.00" xmlns="http://www.w3.org/2000/svg" xmlns:xlink="http://www.w3.org/1999/xlink">
<g id="graph0" class="graph" transform="scale(1 1) rotate(0) translate(4 382)">
<title>meiosisdocs</title>
<polygon fill="white" stroke="transparent" points="-4,4 -4,-382 685.5,-382 685.5,4 -4,4"/>
<!-- stream -->
<g id="node1" class="node">
<title>stream</title>
<text text-anchor="middle" x="94.5" y="-283.9" font-family="Courier,monospace" font-size="12.00">const update = stream();</text>
</g>
<!-- thestream -->
<g id="node6" class="node">
<title>thestream</title>
<polygon fill="lightblue" stroke="transparent" points="639.5,-305 227.5,-305 227.5,-269 639.5,-269 639.5,-305"/>
<text text-anchor="start" x="236.5" y="-283.4" font-family="Courier,monospace" font-size="12.00">5</text>
<text text-anchor="start" x="250.5" y="-283.4" font-family="Courier,monospace" font-size="12.00">      ...     </text>
<text text-anchor="start" x="362.5" y="-283.4" font-family="Courier,monospace" font-size="12.00">&#45;3</text>
<text text-anchor="start" x="384.5" y="-283.4" font-family="Courier,monospace" font-size="12.00">      ...     </text>
<text text-anchor="start" x="496.5" y="-283.4" font-family="Courier,monospace" font-size="12.00">8</text>
<text text-anchor="start" x="510.5" y="-283.4" font-family="Courier,monospace" font-size="12.00">      ...     </text>
<text text-anchor="start" x="622.5" y="-283.4" font-family="Courier,monospace" font-size="12.00">2</text>
<polygon fill="none" stroke="black" points="231.5,-275.5 231.5,-298.5 635.5,-298.5 635.5,-275.5 231.5,-275.5"/>
</g>
<!-- stream&#45;&gt;thestream -->
<g id="edge5" class="edge">
<title>stream&#45;&gt;thestream</title>
<path fill="none" stroke="maroon" d="M189.38,-287C198.39,-287 207.76,-287 217.34,-287"/>
<polygon fill="maroon" stroke="maroon" points="217.4,-290.5 227.4,-287 217.4,-283.5 217.4,-290.5"/>
<text text-anchor="middle" x="208.25" y="-293.4" font-family="Helvetica,sans-Serif" font-size="12.00" fill="navy"> &#160;&#160;&#160;&#160;&#160;&#160;&#160;</text>
</g>
<!-- updateplus1 -->
<g id="node2" class="node">
<title>updateplus1</title>
<polygon fill="orange" stroke="transparent" points="278.5,-378 202.5,-378 202.5,-342 278.5,-342 278.5,-378"/>
<text text-anchor="middle" x="240.5" y="-356.9" font-family="Courier,monospace" font-size="12.00">update(5)</text>
</g>
<!-- updateplus1&#45;&gt;thestream -->
<g id="edge1" class="edge">
<title>updateplus1&#45;&gt;thestream:plusone</title>
<path fill="none" stroke="maroon" d="M240.5,-341.89C240.5,-331.89 240.5,-318.77 240.5,-306.05"/>
<polygon fill="maroon" stroke="maroon" points="244,-306 240.5,-296 237,-306 244,-306"/>
</g>
<!-- updateplus3 -->
<g id="node3" class="node">
<title>updateplus3</title>
<polygon fill="orange" stroke="transparent" points="412.5,-378 328.5,-378 328.5,-342 412.5,-342 412.5,-378"/>
<text text-anchor="middle" x="370.5" y="-356.9" font-family="Courier,monospace" font-size="12.00">update(&#45;3)</text>
</g>
<!-- updateplus3&#45;&gt;thestream -->
<g id="edge2" class="edge">
<title>updateplus3&#45;&gt;thestream:plusthree</title>
<path fill="none" stroke="maroon" d="M370.5,-341.89C370.5,-331.89 370.5,-318.77 370.5,-306.05"/>
<polygon fill="maroon" stroke="maroon" points="374,-306 370.5,-296 367,-306 374,-306"/>
</g>
<!-- updateplus4 -->
<g id="node4" class="node">
<title>updateplus4</title>
<polygon fill="orange" stroke="transparent" points="538.5,-378 462.5,-378 462.5,-342 538.5,-342 538.5,-378"/>
<text text-anchor="middle" x="500.5" y="-356.9" font-family="Courier,monospace" font-size="12.00">update(8)</text>
</g>
<!-- updateplus4&#45;&gt;thestream -->
<g id="edge3" class="edge">
<title>updateplus4&#45;&gt;thestream:plusfour</title>
<path fill="none" stroke="maroon" d="M500.5,-341.89C500.5,-331.89 500.5,-318.77 500.5,-306.05"/>
<polygon fill="maroon" stroke="maroon" points="504,-306 500.5,-296 497,-306 504,-306"/>
</g>
<!-- updateplus2 -->
<g id="node5" class="node">
<title>updateplus2</title>
<polygon fill="orange" stroke="transparent" points="664.5,-378 588.5,-378 588.5,-342 664.5,-342 664.5,-378"/>
<text text-anchor="middle" x="626.5" y="-356.9" font-family="Courier,monospace" font-size="12.00">update(2)</text>
</g>
<!-- updateplus2&#45;&gt;thestream -->
<g id="edge4" class="edge">
<title>updateplus2&#45;&gt;thestream:plustwo</title>
<path fill="none" stroke="maroon" d="M626.5,-341.89C626.5,-331.89 626.5,-318.77 626.5,-306.05"/>
<polygon fill="maroon" stroke="maroon" points="630,-306 626.5,-296 623,-306 630,-306"/>
</g>
<!-- scan1 -->
<g id="node10" class="node">
<title>scan1</title>
<polygon fill="orange" stroke="transparent" points="278.5,-232 202.5,-232 202.5,-196 278.5,-196 278.5,-232"/>
<text text-anchor="middle" x="240.5" y="-210.9" font-family="Courier,monospace" font-size="12.00">0 + 5 = 5</text>
</g>
<!-- thestream&#45;&gt;scan1 -->
<g id="edge16" class="edge">
<title>thestream:plusone&#45;&gt;scan1</title>
<path fill="none" stroke="maroon" d="M240.5,-266.81C240.5,-254.5 240.5,-241.83 240.5,-232.11"/>
<polygon fill="maroon" stroke="maroon" points="237,-267 240.5,-277 244,-267 237,-267"/>
</g>
<!-- scan2 -->
<g id="node11" class="node">
<title>scan2</title>
<polygon fill="orange" stroke="transparent" points="412.5,-232 328.5,-232 328.5,-196 412.5,-196 412.5,-232"/>
<text text-anchor="middle" x="370.5" y="-210.9" font-family="Courier,monospace" font-size="12.00">5 + &#45;3 = 2</text>
</g>
<!-- thestream&#45;&gt;scan2 -->
<g id="edge17" class="edge">
<title>thestream:plusthree&#45;&gt;scan2</title>
<path fill="none" stroke="maroon" d="M370.5,-266.81C370.5,-254.5 370.5,-241.83 370.5,-232.11"/>
<polygon fill="maroon" stroke="maroon" points="367,-267 370.5,-277 374,-267 367,-267"/>
</g>
<!-- scan3 -->
<g id="node12" class="node">
<title>scan3</title>
<polygon fill="orange" stroke="transparent" points="542.5,-232 458.5,-232 458.5,-196 542.5,-196 542.5,-232"/>
<text text-anchor="middle" x="500.5" y="-210.9" font-family="Courier,monospace" font-size="12.00">2 + 8 = 10</text>
</g>
<!-- thestream&#45;&gt;scan3 -->
<g id="edge18" class="edge">
<title>thestream:plusfour&#45;&gt;scan3</title>
<path fill="none" stroke="maroon" d="M500.5,-266.81C500.5,-254.5 500.5,-241.83 500.5,-232.11"/>
<polygon fill="maroon" stroke="maroon" points="497,-267 500.5,-277 504,-267 497,-267"/>
</g>
<!-- scan4 -->
<g id="node13" class="node">
<title>scan4</title>
<polygon fill="orange" stroke="transparent" points="672,-232 581,-232 581,-196 672,-196 672,-232"/>
<text text-anchor="middle" x="626.5" y="-210.9" font-family="Courier,monospace" font-size="12.00">10 + 2 = 12</text>
</g>
<!-- thestream&#45;&gt;scan4 -->
<g id="edge19" class="edge">
<title>thestream:plustwo&#45;&gt;scan4</title>
<path fill="none" stroke="maroon" d="M626.5,-266.81C626.5,-254.5 626.5,-241.83 626.5,-232.11"/>
<polygon fill="maroon" stroke="maroon" points="623,-267 626.5,-277 630,-267 623,-267"/>
</g>
<!-- scan -->
<g id="node7" class="node">
<title>scan</title>
<text text-anchor="start" x="273.5" y="-68.4" font-family="Courier,monospace" font-size="12.00">const otherStream = scan(</text>
<text text-anchor="start" x="273.5" y="-49.4" font-family="Courier,monospace" font-size="12.00"> &#160;&#160;&#160;(latest, next) =&gt; latest + next,</text>
<text text-anchor="start" x="273.5" y="-30.4" font-family="Courier,monospace" font-size="12.00"> &#160;&#160;&#160;0,</text>
<text text-anchor="start" x="273.5" y="-11.4" font-family="Courier,monospace" font-size="12.00"> &#160;&#160;&#160;update);</text>
</g>
<!-- thescanstream -->
<g id="node8" class="node">
<title>thescanstream</title>
<polygon fill="orange" stroke="transparent" points="681.5,-159 135.5,-159 135.5,-123 681.5,-123 681.5,-159"/>
<text text-anchor="start" x="144.5" y="-137.4" font-family="Courier,monospace" font-size="12.00">0</text>
<text text-anchor="start" x="158.5" y="-137.4" font-family="Courier,monospace" font-size="12.00">      ...     </text>
<text text-anchor="start" x="270.5" y="-137.4" font-family="Courier,monospace" font-size="12.00">5</text>
<text text-anchor="start" x="284.5" y="-137.4" font-family="Courier,monospace" font-size="12.00">      ...     </text>
<text text-anchor="start" x="396.5" y="-137.4" font-family="Courier,monospace" font-size="12.00">2</text>
<text text-anchor="start" x="410.5" y="-137.4" font-family="Courier,monospace" font-size="12.00">      ...     </text>
<text text-anchor="start" x="522.5" y="-137.4" font-family="Courier,monospace" font-size="12.00">10</text>
<text text-anchor="start" x="544.5" y="-137.4" font-family="Courier,monospace" font-size="12.00">      ...     </text>
<text text-anchor="start" x="656.5" y="-137.4" font-family="Courier,monospace" font-size="12.00">12</text>
<polygon fill="none" stroke="black" points="139.5,-129.5 139.5,-152.5 677.5,-152.5 677.5,-129.5 139.5,-129.5"/>
</g>
<!-- thescanstream&#45;&gt;scan -->
<g id="edge6" class="edge">
<title>thescanstream&#45;&gt;scan</title>
<path fill="none" stroke="maroon" d="M408.5,-112.67C408.5,-104.42 408.5,-95.15 408.5,-86.17"/>
<polygon fill="maroon" stroke="maroon" points="405,-112.84 408.5,-122.84 412,-112.84 405,-112.84"/>
</g>
<!-- scan0 -->
<g id="node9" class="node">
<title>scan0</title>
<polygon fill="orange" stroke="transparent" points="179,-232 118,-232 118,-196 179,-196 179,-232"/>
<text text-anchor="middle" x="148.5" y="-210.9" font-family="Courier,monospace" font-size="12.00">initial</text>
</g>
<!-- scan0&#45;&gt;thescanstream -->
<g id="edge7" class="edge">
<title>scan0&#45;&gt;thescanstream:initial</title>
<path fill="none" stroke="maroon" d="M148.5,-195.89C148.5,-185.89 148.5,-172.77 148.5,-160.05"/>
<polygon fill="maroon" stroke="maroon" points="152,-160 148.5,-150 145,-160 152,-160"/>
</g>
<!-- scan1&#45;&gt;thescanstream -->
<g id="edge8" class="edge">
<title>scan1&#45;&gt;thescanstream:one</title>
<path fill="none" stroke="maroon" d="M255.71,-195.85C262.92,-186.31 270.57,-173.67 273.38,-160.31"/>
<polygon fill="maroon" stroke="maroon" points="276.9,-160.32 274.5,-150 269.94,-159.56 276.9,-160.32"/>
</g>
<!-- scan1&#45;&gt;thescanstream -->
<g id="edge12" class="edge">
<title>scan1&#45;&gt;thescanstream:initial</title>
<path fill="none" stroke="maroon" d="M204.14,-195.93C183.85,-185.44 160.94,-171.71 152.17,-159.44"/>
<polygon fill="maroon" stroke="maroon" points="155.39,-158.05 148.5,-150 148.87,-160.59 155.39,-158.05"/>
</g>
<!-- scan2&#45;&gt;thescanstream -->
<g id="edge9" class="edge">
<title>scan2&#45;&gt;thescanstream:four</title>
<path fill="none" stroke="maroon" d="M383.75,-195.84C390.15,-186.18 396.99,-173.42 399.5,-160.18"/>
<polygon fill="maroon" stroke="maroon" points="403.01,-160.29 400.5,-150 396.04,-159.61 403.01,-160.29"/>
</g>
<!-- scan2&#45;&gt;thescanstream -->
<g id="edge13" class="edge">
<title>scan2&#45;&gt;thescanstream:one</title>
<path fill="none" stroke="maroon" d="M328.39,-202.82C305.92,-194.95 281.71,-181.66 275.84,-160.12"/>
<polygon fill="maroon" stroke="maroon" points="279.28,-159.46 274.5,-150 272.34,-160.37 279.28,-159.46"/>
</g>
<!-- scan3&#45;&gt;thescanstream -->
<g id="edge10" class="edge">
<title>scan3&#45;&gt;thescanstream:eight</title>
<path fill="none" stroke="maroon" d="M513.75,-195.84C520.15,-186.18 526.99,-173.42 529.5,-160.18"/>
<polygon fill="maroon" stroke="maroon" points="533.01,-160.29 530.5,-150 526.04,-159.61 533.01,-160.29"/>
</g>
<!-- scan3&#45;&gt;thescanstream -->
<g id="edge14" class="edge">
<title>scan3&#45;&gt;thescanstream:four</title>
<path fill="none" stroke="maroon" d="M458.38,-203.89C434.36,-196.27 407.85,-182.84 401.78,-159.99"/>
<polygon fill="maroon" stroke="maroon" points="405.25,-159.47 400.5,-150 398.3,-160.36 405.25,-159.47"/>
</g>
<!-- scan4&#45;&gt;thescanstream -->
<g id="edge11" class="edge">
<title>scan4&#45;&gt;thescanstream:ten</title>
<path fill="none" stroke="maroon" d="M643.72,-195.9C651.81,-186.38 660.34,-173.71 663.36,-160.07"/>
<polygon fill="maroon" stroke="maroon" points="666.85,-160.33 664.5,-150 659.89,-159.54 666.85,-160.33"/>
</g>
<!-- scan4&#45;&gt;thescanstream -->
<g id="edge15" class="edge">
<title>scan4&#45;&gt;thescanstream:eight</title>
<path fill="none" stroke="maroon" d="M580.75,-201.5C559.31,-193.47 537.27,-180.43 531.79,-159.94"/>
<polygon fill="maroon" stroke="maroon" points="535.26,-159.47 530.5,-150 528.31,-160.37 535.26,-159.47"/>
</g>
</g>
</svg>
