<?xml version="1.0" encoding="UTF-8" standalone="no"?>
<!DOCTYPE svg PUBLIC "-//W3C//DTD SVG 1.1//EN"
 "http://www.w3.org/Graphics/SVG/1.1/DTD/svg11.dtd">
<!-- Generated by graphviz version 8.0.5 (20230430.1635)
 -->
<!-- Title: meiosisdocs Pages: 1 -->
<svg width="434pt" height="277pt"
 viewBox="0.00 0.00 434.45 276.70" xmlns="http://www.w3.org/2000/svg" xmlns:xlink="http://www.w3.org/1999/xlink">
<g id="graph0" class="graph" transform="scale(1 1) rotate(0) translate(4 272.7)">
<title>meiosisdocs</title>
<polygon fill="white" stroke="none" points="-4,4 -4,-272.7 430.45,-272.7 430.45,4 -4,4"/>
<!-- stream -->
<g id="node1" class="node">
<title>stream</title>
<text text-anchor="middle" x="93.6" y="-173.42" font-family="Courier,monospace" font-size="12.00">const update = stream();</text>
</g>
<!-- thestream -->
<g id="node4" class="node">
<title>thestream</title>
<polygon fill="lightblue" stroke="none" points="380.95,-195.7 224.25,-195.7 224.25,-159.7 380.95,-159.7 380.95,-195.7"/>
<text text-anchor="start" x="232.85" y="-173.42" font-family="Courier,monospace" font-size="12.00">1</text>
<text text-anchor="start" x="246.35" y="-173.42" font-family="Courier,monospace" font-size="12.00">      ...     </text>
<text text-anchor="start" x="357.35" y="-173.42" font-family="Courier,monospace" font-size="12.00">&#45;1</text>
<polygon fill="none" stroke="black" points="227.85,-165.57 227.85,-189.82 377.35,-189.82 377.35,-165.57 227.85,-165.57"/>
</g>
<!-- stream&#45;&gt;thestream -->
<g id="edge3" class="edge">
<title>stream&#45;&gt;thestream</title>
<path fill="none" stroke="maroon" d="M187.1,-177.7C195.88,-177.7 204.78,-177.7 213.52,-177.7"/>
<polygon fill="maroon" stroke="maroon" points="213.5,-181.2 223.5,-177.7 213.5,-174.2 213.5,-181.2"/>
<text text-anchor="middle" x="205.72" y="-182.05" font-family="Helvetica,sans-Serif" font-size="12.00" fill="navy"> &#160;&#160;&#160;&#160;&#160;&#160;&#160;</text>
</g>
<!-- updateplus1 -->
<g id="node2" class="node">
<title>updateplus1</title>
<polygon fill="orange" stroke="none" points="273.95,-268.7 199.25,-268.7 199.25,-232.7 273.95,-232.7 273.95,-268.7"/>
<text text-anchor="middle" x="236.6" y="-246.42" font-family="Courier,monospace" font-size="12.00">update(1)</text>
</g>
<!-- updateplus1&#45;&gt;thestream -->
<g id="edge1" class="edge">
<title>updateplus1&#45;&gt;thestream:plusone</title>
<path fill="none" stroke="maroon" d="M236.6,-232.86C236.6,-223.21 236.6,-210.62 236.6,-198.33"/>
<polygon fill="maroon" stroke="maroon" points="240.1,-198.7 236.6,-188.7 233.1,-198.7 240.1,-198.7"/>
</g>
<!-- updateminus1 -->
<g id="node3" class="node">
<title>updateminus1</title>
<polygon fill="orange" stroke="none" points="405.7,-268.7 323.5,-268.7 323.5,-232.7 405.7,-232.7 405.7,-268.7"/>
<text text-anchor="middle" x="364.6" y="-246.42" font-family="Courier,monospace" font-size="12.00">update(&#45;1)</text>
</g>
<!-- updateminus1&#45;&gt;thestream -->
<g id="edge2" class="edge">
<title>updateminus1&#45;&gt;thestream:minusone</title>
<path fill="none" stroke="maroon" d="M364.6,-232.86C364.6,-223.21 364.6,-210.62 364.6,-198.33"/>
<polygon fill="maroon" stroke="maroon" points="368.1,-198.7 364.6,-188.7 361.1,-198.7 368.1,-198.7"/>
</g>
<!-- map -->
<g id="node5" class="node">
<title>map</title>
<text text-anchor="start" x="186.35" y="-103.7" font-family="Courier,monospace" font-size="12.00">const otherStream = update.map(</text>
<text text-anchor="start" x="186.35" y="-83.45" font-family="Courier,monospace" font-size="12.00"> &#160;&#160;&#160;(value) =&gt; value * 10);</text>
</g>
<!-- thestream&#45;&gt;map -->
<g id="edge4" class="edge">
<title>thestream&#45;&gt;map</title>
<path fill="none" stroke="maroon" d="M302.6,-149.04C302.6,-140.36 302.6,-130.87 302.6,-122.5"/>
<polygon fill="maroon" stroke="maroon" points="299.1,-148.81 302.6,-158.81 306.1,-148.81 299.1,-148.81"/>
</g>
<!-- themapstream -->
<g id="node6" class="node">
<title>themapstream</title>
<polygon fill="orange" stroke="none" points="388.45,-36 216.75,-36 216.75,0 388.45,0 388.45,-36"/>
<text text-anchor="start" x="225.35" y="-13.72" font-family="Courier,monospace" font-size="12.00">10</text>
<text text-anchor="start" x="246.35" y="-13.72" font-family="Courier,monospace" font-size="12.00">      ...     </text>
<text text-anchor="start" x="357.35" y="-13.72" font-family="Courier,monospace" font-size="12.00">&#45;10</text>
<polygon fill="none" stroke="black" points="220.35,-5.88 220.35,-30.12 384.85,-30.12 384.85,-5.88 220.35,-5.88"/>
</g>
<!-- map&#45;&gt;themapstream -->
<g id="edge5" class="edge">
<title>map&#45;&gt;themapstream</title>
<path fill="none" stroke="maroon" d="M302.6,-73.07C302.6,-64.74 302.6,-55.31 302.6,-46.68"/>
<polygon fill="maroon" stroke="maroon" points="306.1,-46.97 302.6,-36.97 299.1,-46.97 306.1,-46.97"/>
</g>
<!-- otherStream -->
<g id="node7" class="node">
<title>otherStream</title>
<text text-anchor="middle" x="134.6" y="-13.72" font-family="Courier,monospace" font-size="12.00">otherStream</text>
</g>
<!-- otherStream&#45;&gt;themapstream -->
<g id="edge6" class="edge">
<title>otherStream&#45;&gt;themapstream</title>
<path fill="none" stroke="maroon" d="M179.18,-18C187.56,-18 196.63,-18 205.9,-18"/>
<polygon fill="maroon" stroke="maroon" points="205.85,-21.5 215.85,-18 205.85,-14.5 205.85,-21.5"/>
<text text-anchor="middle" x="198.1" y="-22.35" font-family="Helvetica,sans-Serif" font-size="12.00" fill="navy"> &#160;&#160;&#160;&#160;&#160;&#160;&#160;</text>
</g>
</g>
</svg>
