<?xml version="1.0" encoding="UTF-8" standalone="no"?>
<!DOCTYPE svg PUBLIC "-//W3C//DTD SVG 1.1//EN"
 "http://www.w3.org/Graphics/SVG/1.1/DTD/svg11.dtd">
<!-- Generated by graphviz version 8.1.0 (20230707.0739)
 -->
<!-- Title: meiosisdocs Pages: 1 -->
<svg width="281pt" height="117pt"
 viewBox="0.00 0.00 281.10 117.00" xmlns="http://www.w3.org/2000/svg" xmlns:xlink="http://www.w3.org/1999/xlink">
<g id="graph0" class="graph" transform="scale(1 1) rotate(0) translate(4 113)">
<title>meiosisdocs</title>
<polygon fill="white" stroke="none" points="-4,4 -4,-113 277.1,-113 277.1,4 -4,4"/>
<!-- stream -->
<g id="node1" class="node">
<title>stream</title>
<text text-anchor="middle" x="27" y="-13.72" font-family="Courier,monospace" font-size="12.00">stream</text>
</g>
<!-- thestream -->
<g id="node4" class="node">
<title>thestream</title>
<polygon fill="lightblue" stroke="none" points="248.35,-36 91.65,-36 91.65,0 248.35,0 248.35,-36"/>
<text text-anchor="start" x="100.25" y="-13.72" font-family="Courier,monospace" font-size="12.00">1</text>
<text text-anchor="start" x="113.75" y="-13.72" font-family="Courier,monospace" font-size="12.00">      ...     </text>
<text text-anchor="start" x="224.75" y="-13.72" font-family="Courier,monospace" font-size="12.00">&#45;1</text>
<polygon fill="none" stroke="black" points="95.25,-5.88 95.25,-30.12 244.75,-30.12 244.75,-5.88 95.25,-5.88"/>
</g>
<!-- stream&#45;&gt;thestream -->
<g id="edge3" class="edge">
<title>stream&#45;&gt;thestream</title>
<path fill="none" stroke="maroon" d="M53.9,-18C61.98,-18 71.32,-18 81.13,-18"/>
<polygon fill="maroon" stroke="maroon" points="80.92,-21.5 90.92,-18 80.92,-14.5 80.92,-21.5"/>
<text text-anchor="middle" x="72.83" y="-22.35" font-family="Helvetica,sans-Serif" font-size="12.00" fill="navy"> &#160;&#160;&#160;&#160;&#160;&#160;&#160;</text>
</g>
<!-- updateplus1 -->
<g id="node2" class="node">
<title>updateplus1</title>
<polygon fill="orange" stroke="none" points="141.35,-109 66.65,-109 66.65,-73 141.35,-73 141.35,-109"/>
<text text-anchor="middle" x="104" y="-86.72" font-family="Courier,monospace" font-size="12.00">update(1)</text>
</g>
<!-- updateplus1&#45;&gt;thestream -->
<g id="edge1" class="edge">
<title>updateplus1&#45;&gt;thestream:plusone</title>
<path fill="none" stroke="maroon" d="M104,-73.16C104,-63.51 104,-50.92 104,-38.63"/>
<polygon fill="maroon" stroke="maroon" points="107.5,-39 104,-29 100.5,-39 107.5,-39"/>
</g>
<!-- updateminus1 -->
<g id="node3" class="node">
<title>updateminus1</title>
<polygon fill="orange" stroke="none" points="273.1,-109 190.9,-109 190.9,-73 273.1,-73 273.1,-109"/>
<text text-anchor="middle" x="232" y="-86.72" font-family="Courier,monospace" font-size="12.00">update(&#45;1)</text>
</g>
<!-- updateminus1&#45;&gt;thestream -->
<g id="edge2" class="edge">
<title>updateminus1&#45;&gt;thestream:minusone</title>
<path fill="none" stroke="maroon" d="M232,-73.16C232,-63.51 232,-50.92 232,-38.63"/>
<polygon fill="maroon" stroke="maroon" points="235.5,-39 232,-29 228.5,-39 235.5,-39"/>
</g>
</g>
</svg>
