<?xml version="1.0" encoding="UTF-8" standalone="no"?>
<!DOCTYPE svg PUBLIC "-//W3C//DTD SVG 1.1//EN"
 "http://www.w3.org/Graphics/SVG/1.1/DTD/svg11.dtd">
<!-- Generated by graphviz version 3.0.0 (20220226.1711)
 -->
<!-- Title: meiosisdocs Pages: 1 -->
<svg width="286pt" height="117pt"
 viewBox="0.00 0.00 286.00 117.00" xmlns="http://www.w3.org/2000/svg" xmlns:xlink="http://www.w3.org/1999/xlink">
<g id="graph0" class="graph" transform="scale(1 1) rotate(0) translate(4 113)">
<title>meiosisdocs</title>
<polygon fill="white" stroke="transparent" points="-4,4 -4,-113 282,-113 282,4 -4,4"/>
<!-- stream -->
<g id="node1" class="node">
<title>stream</title>
<text text-anchor="middle" x="27" y="-14.9" font-family="Courier,monospace" font-size="12.00">stream</text>
</g>
<!-- thestream -->
<g id="node4" class="node">
<title>thestream</title>
<polygon fill="lightblue" stroke="transparent" points="253,-36 93,-36 93,0 253,0 253,-36"/>
<text text-anchor="start" x="102" y="-14.4" font-family="Courier,monospace" font-size="12.00">1</text>
<text text-anchor="start" x="116" y="-14.4" font-family="Courier,monospace" font-size="12.00">      ...     </text>
<text text-anchor="start" x="228" y="-14.4" font-family="Courier,monospace" font-size="12.00">&#45;1</text>
<polygon fill="none" stroke="black" points="97,-6.5 97,-29.5 249,-29.5 249,-6.5 97,-6.5"/>
</g>
<!-- stream&#45;&gt;thestream -->
<g id="edge3" class="edge">
<title>stream&#45;&gt;thestream</title>
<path fill="none" stroke="maroon" d="M54.12,-18C62.62,-18 72.51,-18 82.9,-18"/>
<polygon fill="maroon" stroke="maroon" points="82.97,-21.5 92.97,-18 82.97,-14.5 82.97,-21.5"/>
<text text-anchor="middle" x="73.5" y="-24.4" font-family="Helvetica,sans-Serif" font-size="12.00" fill="navy"> &#160;&#160;&#160;&#160;&#160;&#160;&#160;</text>
</g>
<!-- updateplus1 -->
<g id="node2" class="node">
<title>updateplus1</title>
<polygon fill="orange" stroke="transparent" points="144,-109 68,-109 68,-73 144,-73 144,-109"/>
<text text-anchor="middle" x="106" y="-87.9" font-family="Courier,monospace" font-size="12.00">update(1)</text>
</g>
<!-- updateplus1&#45;&gt;thestream -->
<g id="edge1" class="edge">
<title>updateplus1&#45;&gt;thestream:plusone</title>
<path fill="none" stroke="maroon" d="M106,-72.89C106,-62.89 106,-49.77 106,-37.05"/>
<polygon fill="maroon" stroke="maroon" points="109.5,-37 106,-27 102.5,-37 109.5,-37"/>
</g>
<!-- updateminus1 -->
<g id="node3" class="node">
<title>updateminus1</title>
<polygon fill="orange" stroke="transparent" points="278,-109 194,-109 194,-73 278,-73 278,-109"/>
<text text-anchor="middle" x="236" y="-87.9" font-family="Courier,monospace" font-size="12.00">update(&#45;1)</text>
</g>
<!-- updateminus1&#45;&gt;thestream -->
<g id="edge2" class="edge">
<title>updateminus1&#45;&gt;thestream:minusone</title>
<path fill="none" stroke="maroon" d="M236,-72.89C236,-62.89 236,-49.77 236,-37.05"/>
<polygon fill="maroon" stroke="maroon" points="239.5,-37 236,-27 232.5,-37 239.5,-37"/>
</g>
</g>
</svg>
