<?xml version="1.0" encoding="UTF-8" standalone="no"?>
<!DOCTYPE svg PUBLIC "-//W3C//DTD SVG 1.1//EN"
 "http://www.w3.org/Graphics/SVG/1.1/DTD/svg11.dtd">
<!-- Generated by graphviz version 2.42.3 (20191010.1750)
 -->
<!-- Title: meiosistutorial Pages: 1 -->
<svg width="215pt" height="285pt"
 viewBox="0.00 0.00 214.81 285.00" xmlns="http://www.w3.org/2000/svg" xmlns:xlink="http://www.w3.org/1999/xlink">
<g id="graph0" class="graph" transform="scale(1 1) rotate(0) translate(4 281)">
<title>meiosistutorial</title>
<polygon fill="white" stroke="transparent" points="-4,4 -4,-281 210.81,-281 210.81,4 -4,4"/>
<!-- initial -->
<g id="node1" class="node">
<title>initial</title>
<polygon fill="orange" stroke="transparent" points="85.41,-277 26.59,-277 26.59,-241 85.41,-241 85.41,-277"/>
<text text-anchor="middle" x="56" y="-255.4" font-family="Courier,monospace" font-size="12.00">initial</text>
</g>
<!-- services -->
<g id="node3" class="node">
<title>services</title>
<polygon fill="lightblue" stroke="transparent" points="88.61,-193 23.39,-193 23.39,-157 88.61,-157 88.61,-193"/>
<text text-anchor="middle" x="56" y="-171.4" font-family="Courier,monospace" font-size="12.00">services</text>
</g>
<!-- initial&#45;&gt;services -->
<g id="edge1" class="edge">
<title>initial&#45;&gt;services</title>
<path fill="none" stroke="maroon" d="M56,-240.61C56,-229.77 56,-215.6 56,-203.29"/>
<polygon fill="maroon" stroke="maroon" points="59.5,-203.08 56,-193.08 52.5,-203.08 59.5,-203.08"/>
</g>
<!-- update -->
<g id="node2" class="node">
<title>update</title>
<polygon fill="yellow" stroke="transparent" points="206.62,-277 105.38,-277 105.38,-241 206.62,-241 206.62,-277"/>
<text text-anchor="middle" x="156" y="-255.4" font-family="Courier,monospace" font-size="12.00">update(patch)</text>
</g>
<!-- update&#45;&gt;services -->
<g id="edge2" class="edge">
<title>update&#45;&gt;services</title>
<path fill="none" stroke="maroon" d="M134.79,-240.61C120.24,-228.68 100.76,-212.7 84.81,-199.62"/>
<polygon fill="maroon" stroke="maroon" points="86.79,-196.72 76.83,-193.08 82.35,-202.13 86.79,-196.72"/>
<text text-anchor="middle" x="120.33" y="-213.4" font-family="Helvetica,sans-Serif" font-size="12.00" fill="navy"> &#160;&#160;&#160;&#160;</text>
</g>
<!-- states -->
<g id="node4" class="node">
<title>states</title>
<polygon fill="yellow" stroke="transparent" points="54,-109 0,-109 0,-73 54,-73 54,-109"/>
<text text-anchor="middle" x="27" y="-87.4" font-family="Courier,monospace" font-size="12.00">states</text>
</g>
<!-- services&#45;&gt;states -->
<g id="edge3" class="edge">
<title>services&#45;&gt;states</title>
<path fill="none" stroke="maroon" d="M49.85,-156.61C45.94,-145.56 40.8,-131.03 36.39,-118.55"/>
<polygon fill="maroon" stroke="maroon" points="39.68,-117.34 33.04,-109.08 33.08,-119.68 39.68,-117.34"/>
<text text-anchor="middle" x="52.33" y="-129.4" font-family="Helvetica,sans-Serif" font-size="12.00" fill="navy"> &#160;&#160;&#160;&#160;</text>
</g>
<!-- view -->
<g id="node5" class="node">
<title>view</title>
<polygon fill="lightgreen" stroke="transparent" points="139,-109 85,-109 85,-73 139,-73 139,-109"/>
<text text-anchor="middle" x="112" y="-87.4" font-family="Courier,monospace" font-size="12.00">view</text>
</g>
<!-- states&#45;&gt;view -->
<g id="edge4" class="edge">
<title>states&#45;&gt;view</title>
<path fill="none" stroke="maroon" d="M54.36,-91C60.8,-91 67.76,-91 74.55,-91"/>
<polygon fill="maroon" stroke="maroon" points="74.98,-94.5 84.98,-91 74.98,-87.5 74.98,-94.5"/>
<text text-anchor="middle" x="69.5" y="-96.4" font-family="Helvetica,sans-Serif" font-size="12.00" fill="navy"> &#160;&#160;&#160;&#160;</text>
</g>
<!-- effects -->
<g id="node6" class="node">
<title>effects</title>
<polygon fill="lightblue" stroke="transparent" points="123.41,-36 64.59,-36 64.59,0 123.41,0 123.41,-36"/>
<text text-anchor="middle" x="94" y="-14.4" font-family="Courier,monospace" font-size="12.00">effects</text>
</g>
<!-- states&#45;&gt;effects -->
<g id="edge5" class="edge">
<title>states&#45;&gt;effects</title>
<path fill="none" stroke="maroon" d="M43.22,-72.81C51.53,-64 61.8,-53.13 70.92,-43.46"/>
<polygon fill="maroon" stroke="maroon" points="73.61,-45.7 77.93,-36.03 68.52,-40.9 73.61,-45.7"/>
</g>
<!-- effects&#45;&gt;update -->
<g id="edge6" class="edge">
<title>effects&#45;&gt;update</title>
<path fill="none" stroke="maroon" d="M116.89,-36.16C127.76,-45.71 139.72,-58.56 146,-73 168.65,-125.08 164.81,-193.33 160.25,-230.66"/>
<polygon fill="maroon" stroke="maroon" points="156.76,-230.4 158.9,-240.77 163.69,-231.32 156.76,-230.4"/>
</g>
</g>
</svg>
