<?xml version="1.0" encoding="UTF-8" standalone="no"?>
<!DOCTYPE svg PUBLIC "-//W3C//DTD SVG 1.1//EN"
 "http://www.w3.org/Graphics/SVG/1.1/DTD/svg11.dtd">
<!-- Generated by graphviz version 2.50.0 (20211204.2007)
 -->
<!-- Title: meiosisdocs Pages: 1 -->
<svg width="171pt" height="214pt"
 viewBox="0.00 0.00 170.50 214.00" xmlns="http://www.w3.org/2000/svg" xmlns:xlink="http://www.w3.org/1999/xlink">
<g id="graph0" class="graph" transform="scale(1 1) rotate(0) translate(4 210)">
<title>meiosisdocs</title>
<polygon fill="white" stroke="transparent" points="-4,4 -4,-210 166.5,-210 166.5,4 -4,4"/>
<!-- states -->
<g id="node1" class="node">
<title>states</title>
<polygon fill="yellow" stroke="transparent" points="137.5,-206 83.5,-206 83.5,-170 137.5,-170 137.5,-206"/>
<text text-anchor="middle" x="110.5" y="-184.9" font-family="Courier,monospace" font-size="12.00">states</text>
</g>
<!-- services -->
<g id="node2" class="node">
<title>services</title>
<polygon fill="lightblue" stroke="transparent" points="69,-121 0,-121 0,-85 69,-85 69,-121"/>
<text text-anchor="middle" x="34.5" y="-99.9" font-family="Courier,monospace" font-size="12.00">services</text>
</g>
<!-- states&#45;&gt;services -->
<g id="edge1" class="edge">
<title>states&#45;&gt;services</title>
<path fill="none" stroke="maroon" d="M94.75,-169.8C83.85,-157.89 69.17,-141.87 57.03,-128.61"/>
<polygon fill="maroon" stroke="maroon" points="59.56,-126.19 50.23,-121.18 54.4,-130.91 59.56,-126.19"/>
<text text-anchor="middle" x="85.5" y="-142.4" font-family="Helvetica,sans-Serif" font-size="12.00" fill="navy"> &#160;&#160;&#160;&#160;</text>
</g>
<!-- view -->
<g id="node4" class="node">
<title>view</title>
<polygon fill="lightgreen" stroke="transparent" points="137.5,-121 83.5,-121 83.5,-85 137.5,-85 137.5,-121"/>
<text text-anchor="middle" x="110.5" y="-99.9" font-family="Courier,monospace" font-size="12.00">view</text>
</g>
<!-- states&#45;&gt;view -->
<g id="edge4" class="edge">
<title>states&#45;&gt;view</title>
<path fill="none" stroke="maroon" d="M110.5,-169.8C110.5,-158.67 110.5,-143.94 110.5,-131.24"/>
<polygon fill="maroon" stroke="maroon" points="114,-131.18 110.5,-121.18 107,-131.18 114,-131.18"/>
<text text-anchor="middle" x="118.5" y="-142.4" font-family="Helvetica,sans-Serif" font-size="12.00" fill="navy"> &#160;&#160;&#160;&#160;</text>
</g>
<!-- update -->
<g id="node3" class="node">
<title>update</title>
<polygon fill="yellow" stroke="transparent" points="152.5,-36 46.5,-36 46.5,0 152.5,0 152.5,-36"/>
<text text-anchor="middle" x="99.5" y="-14.9" font-family="Courier,monospace" font-size="12.00">update(patch)</text>
</g>
<!-- services&#45;&gt;update -->
<g id="edge2" class="edge">
<title>services&#45;&gt;update</title>
<path fill="none" stroke="maroon" d="M47.97,-84.8C57.12,-73.12 69.38,-57.46 79.64,-44.35"/>
<polygon fill="maroon" stroke="maroon" points="82.64,-46.21 86.05,-36.18 77.13,-41.89 82.64,-46.21"/>
<text text-anchor="middle" x="79.5" y="-57.4" font-family="Helvetica,sans-Serif" font-size="12.00" fill="navy"> &#160;&#160;&#160;&#160;</text>
</g>
<!-- update&#45;&gt;states -->
<g id="edge3" class="edge">
<title>update&#45;&gt;states</title>
<path fill="none" stroke="maroon" d="M115.55,-36.21C126.04,-48.7 138.82,-66.58 144.5,-85 152.52,-110.99 140.4,-140.43 128.46,-160.98"/>
<polygon fill="maroon" stroke="maroon" points="125.33,-159.4 123.07,-169.75 131.29,-163.07 125.33,-159.4"/>
<text text-anchor="middle" x="154.5" y="-99.9" font-family="Helvetica,sans-Serif" font-size="12.00" fill="navy"> &#160;&#160;&#160;&#160;</text>
</g>
</g>
</svg>
