<?xml version="1.0" encoding="UTF-8" standalone="no"?>
<!DOCTYPE svg PUBLIC "-//W3C//DTD SVG 1.1//EN"
 "http://www.w3.org/Graphics/SVG/1.1/DTD/svg11.dtd">
<!-- Generated by graphviz version 2.44.1 (20200629.0846)
 -->
<!-- Title: meiosistutorial Pages: 1 -->
<svg width="217pt" height="287pt"
 viewBox="0.00 0.00 217.00 287.00" xmlns="http://www.w3.org/2000/svg" xmlns:xlink="http://www.w3.org/1999/xlink">
<g id="graph0" class="graph" transform="scale(1 1) rotate(0) translate(4 283)">
<title>meiosistutorial</title>
<polygon fill="white" stroke="transparent" points="-4,4 -4,-283 213,-283 213,4 -4,4"/>
<!-- initial -->
<g id="node1" class="node">
<title>initial</title>
<polygon fill="orange" stroke="transparent" points="83.5,-279 22.5,-279 22.5,-243 83.5,-243 83.5,-279"/>
<text text-anchor="middle" x="53" y="-257.9" font-family="Courier,monospace" font-size="12.00">initial</text>
</g>
<!-- services -->
<g id="node3" class="node">
<title>services</title>
<polygon fill="lightblue" stroke="transparent" points="87.5,-194 18.5,-194 18.5,-158 87.5,-158 87.5,-194"/>
<text text-anchor="middle" x="53" y="-172.9" font-family="Courier,monospace" font-size="12.00">services</text>
</g>
<!-- initial&#45;&gt;services -->
<g id="edge1" class="edge">
<title>initial&#45;&gt;services</title>
<path fill="none" stroke="maroon" d="M53,-242.8C53,-231.67 53,-216.94 53,-204.24"/>
<polygon fill="maroon" stroke="maroon" points="56.5,-204.18 53,-194.18 49.5,-204.18 56.5,-204.18"/>
</g>
<!-- update -->
<g id="node2" class="node">
<title>update</title>
<polygon fill="yellow" stroke="transparent" points="209,-279 103,-279 103,-243 209,-243 209,-279"/>
<text text-anchor="middle" x="156" y="-257.9" font-family="Courier,monospace" font-size="12.00">update(patch)</text>
</g>
<!-- update&#45;&gt;services -->
<g id="edge2" class="edge">
<title>update&#45;&gt;services</title>
<path fill="none" stroke="maroon" d="M134.66,-242.8C119.47,-230.56 98.87,-213.96 82.16,-200.5"/>
<polygon fill="maroon" stroke="maroon" points="84.3,-197.72 74.31,-194.18 79.9,-203.18 84.3,-197.72"/>
<text text-anchor="middle" x="118" y="-215.4" font-family="Helvetica,sans-Serif" font-size="12.00" fill="navy"> &#160;&#160;&#160;&#160;</text>
</g>
<!-- states -->
<g id="node4" class="node">
<title>states</title>
<polygon fill="yellow" stroke="transparent" points="54,-109 0,-109 0,-73 54,-73 54,-109"/>
<text text-anchor="middle" x="27" y="-87.9" font-family="Courier,monospace" font-size="12.00">states</text>
</g>
<!-- services&#45;&gt;states -->
<g id="edge3" class="edge">
<title>services&#45;&gt;states</title>
<path fill="none" stroke="maroon" d="M47.61,-157.8C44.09,-146.56 39.42,-131.65 35.42,-118.86"/>
<polygon fill="maroon" stroke="maroon" points="38.71,-117.67 32.38,-109.18 32.03,-119.76 38.71,-117.67"/>
<text text-anchor="middle" x="50" y="-130.4" font-family="Helvetica,sans-Serif" font-size="12.00" fill="navy"> &#160;&#160;&#160;&#160;</text>
</g>
<!-- view -->
<g id="node5" class="node">
<title>view</title>
<polygon fill="lightgreen" stroke="transparent" points="138,-109 84,-109 84,-73 138,-73 138,-109"/>
<text text-anchor="middle" x="111" y="-87.9" font-family="Courier,monospace" font-size="12.00">view</text>
</g>
<!-- states&#45;&gt;view -->
<g id="edge4" class="edge">
<title>states&#45;&gt;view</title>
<path fill="none" stroke="maroon" d="M54.04,-91C60.27,-91 67.01,-91 73.59,-91"/>
<polygon fill="maroon" stroke="maroon" points="73.72,-94.5 83.72,-91 73.72,-87.5 73.72,-94.5"/>
<text text-anchor="middle" x="69" y="-97.4" font-family="Helvetica,sans-Serif" font-size="12.00" fill="navy"> &#160;&#160;&#160;&#160;</text>
</g>
<!-- effects -->
<g id="node6" class="node">
<title>effects</title>
<polygon fill="lightblue" stroke="transparent" points="123.5,-36 62.5,-36 62.5,0 123.5,0 123.5,-36"/>
<text text-anchor="middle" x="93" y="-14.9" font-family="Courier,monospace" font-size="12.00">effects</text>
</g>
<!-- states&#45;&gt;effects -->
<g id="edge5" class="edge">
<title>states&#45;&gt;effects</title>
<path fill="none" stroke="maroon" d="M42.98,-72.81C51.16,-64 61.28,-53.13 70.26,-43.46"/>
<polygon fill="maroon" stroke="maroon" points="72.93,-45.74 77.17,-36.03 67.8,-40.97 72.93,-45.74"/>
</g>
<!-- effects&#45;&gt;update -->
<g id="edge6" class="edge">
<title>effects&#45;&gt;update</title>
<path fill="none" stroke="maroon" d="M115.86,-36.18C126.72,-45.72 138.68,-58.57 145,-73 168.09,-125.74 164.5,-194.96 160.1,-232.65"/>
<polygon fill="maroon" stroke="maroon" points="156.59,-232.48 158.79,-242.84 163.53,-233.37 156.59,-232.48"/>
</g>
</g>
</svg>
