<?xml version="1.0" encoding="UTF-8" standalone="no"?>
<!DOCTYPE svg PUBLIC "-//W3C//DTD SVG 1.1//EN"
 "http://www.w3.org/Graphics/SVG/1.1/DTD/svg11.dtd">
<!-- Generated by graphviz version 7.0.1 (20221109.1506)
 -->
<!-- Title: meiosisdocs Pages: 1 -->
<svg width="690pt" height="386pt"
 viewBox="0.00 0.00 689.50 386.00" xmlns="http://www.w3.org/2000/svg" xmlns:xlink="http://www.w3.org/1999/xlink">
<g id="graph0" class="graph" transform="scale(1 1) rotate(0) translate(4 382)">
<title>meiosisdocs</title>
<polygon fill="white" stroke="none" points="-4,4 -4,-382 685.5,-382 685.5,4 -4,4"/>
<!-- stream -->
<g id="node1" class="node">
<title>stream</title>
<text text-anchor="middle" x="94.5" y="-283.9" font-family="Courier,monospace" font-size="12.00">const update = stream();</text>
</g>
<!-- thestream -->
<g id="node6" class="node">
<title>thestream</title>
<polygon fill="lightblue" stroke="none" points="639.5,-305 227.5,-305 227.5,-269 639.5,-269 639.5,-305"/>
<text text-anchor="start" x="236.5" y="-283.4" font-family="Courier,monospace" font-size="12.00">5</text>
<text text-anchor="start" x="250.5" y="-283.4" font-family="Courier,monospace" font-size="12.00">      ...     </text>
<text text-anchor="start" x="362.5" y="-283.4" font-family="Courier,monospace" font-size="12.00">&#45;3</text>
<text text-anchor="start" x="384.5" y="-283.4" font-family="Courier,monospace" font-size="12.00">      ...     </text>
<text text-anchor="start" x="496.5" y="-283.4" font-family="Courier,monospace" font-size="12.00">8</text>
<text text-anchor="start" x="510.5" y="-283.4" font-family="Courier,monospace" font-size="12.00">      ...     </text>
<text text-anchor="start" x="622.5" y="-283.4" font-family="Courier,monospace" font-size="12.00">2</text>
<polygon fill="none" stroke="black" points="231.5,-275.5 231.5,-298.5 635.5,-298.5 635.5,-275.5 231.5,-275.5"/>
</g>
<!-- stream&#45;&gt;thestream -->
<g id="edge5" class="edge">
<title>stream&#45;&gt;thestream</title>
<path fill="none" stroke="maroon" d="M188.93,-287C197.71,-287 206.82,-287 216.14,-287"/>
<polygon fill="maroon" stroke="maroon" points="216.09,-290.5 226.09,-287 216.09,-283.5 216.09,-290.5"/>
<text text-anchor="middle" x="208.25" y="-293.4" font-family="Helvetica,sans-Serif" font-size="12.00" fill="navy"> &#160;&#160;&#160;&#160;&#160;&#160;&#160;</text>
</g>
<!-- updateplus1 -->
<g id="node2" class="node">
<title>updateplus1</title>
<polygon fill="orange" stroke="none" points="278.5,-378 202.5,-378 202.5,-342 278.5,-342 278.5,-378"/>
<text text-anchor="middle" x="240.5" y="-356.9" font-family="Courier,monospace" font-size="12.00">update(5)</text>
</g>
<!-- updateplus1&#45;&gt;thestream -->
<g id="edge1" class="edge">
<title>updateplus1&#45;&gt;thestream:plusone</title>
<path fill="none" stroke="maroon" d="M240.5,-342.15C240.5,-332.44 240.5,-319.71 240.5,-307.26"/>
<polygon fill="maroon" stroke="maroon" points="244,-307.51 240.5,-297.51 237,-307.51 244,-307.51"/>
</g>
<!-- updateplus3 -->
<g id="node3" class="node">
<title>updateplus3</title>
<polygon fill="orange" stroke="none" points="412.5,-378 328.5,-378 328.5,-342 412.5,-342 412.5,-378"/>
<text text-anchor="middle" x="370.5" y="-356.9" font-family="Courier,monospace" font-size="12.00">update(&#45;3)</text>
</g>
<!-- updateplus3&#45;&gt;thestream -->
<g id="edge2" class="edge">
<title>updateplus3&#45;&gt;thestream:plusthree</title>
<path fill="none" stroke="maroon" d="M370.5,-342.15C370.5,-332.44 370.5,-319.71 370.5,-307.26"/>
<polygon fill="maroon" stroke="maroon" points="374,-307.51 370.5,-297.51 367,-307.51 374,-307.51"/>
</g>
<!-- updateplus4 -->
<g id="node4" class="node">
<title>updateplus4</title>
<polygon fill="orange" stroke="none" points="538.5,-378 462.5,-378 462.5,-342 538.5,-342 538.5,-378"/>
<text text-anchor="middle" x="500.5" y="-356.9" font-family="Courier,monospace" font-size="12.00">update(8)</text>
</g>
<!-- updateplus4&#45;&gt;thestream -->
<g id="edge3" class="edge">
<title>updateplus4&#45;&gt;thestream:plusfour</title>
<path fill="none" stroke="maroon" d="M500.5,-342.15C500.5,-332.44 500.5,-319.71 500.5,-307.26"/>
<polygon fill="maroon" stroke="maroon" points="504,-307.51 500.5,-297.51 497,-307.51 504,-307.51"/>
</g>
<!-- updateplus2 -->
<g id="node5" class="node">
<title>updateplus2</title>
<polygon fill="orange" stroke="none" points="664.5,-378 588.5,-378 588.5,-342 664.5,-342 664.5,-378"/>
<text text-anchor="middle" x="626.5" y="-356.9" font-family="Courier,monospace" font-size="12.00">update(2)</text>
</g>
<!-- updateplus2&#45;&gt;thestream -->
<g id="edge4" class="edge">
<title>updateplus2&#45;&gt;thestream:plustwo</title>
<path fill="none" stroke="maroon" d="M626.5,-342.15C626.5,-332.44 626.5,-319.71 626.5,-307.26"/>
<polygon fill="maroon" stroke="maroon" points="630,-307.51 626.5,-297.51 623,-307.51 630,-307.51"/>
</g>
<!-- scan1 -->
<g id="node10" class="node">
<title>scan1</title>
<polygon fill="orange" stroke="none" points="278.5,-232 202.5,-232 202.5,-196 278.5,-196 278.5,-232"/>
<text text-anchor="middle" x="240.5" y="-210.9" font-family="Courier,monospace" font-size="12.00">0 + 5 = 5</text>
</g>
<!-- thestream&#45;&gt;scan1 -->
<g id="edge16" class="edge">
<title>thestream:plusone&#45;&gt;scan1</title>
<path fill="none" stroke="maroon" d="M240.5,-265.62C240.5,-253.57 240.5,-241.29 240.5,-231.84"/>
<polygon fill="maroon" stroke="maroon" points="237,-265.49 240.5,-275.49 244,-265.49 237,-265.49"/>
</g>
<!-- scan2 -->
<g id="node11" class="node">
<title>scan2</title>
<polygon fill="orange" stroke="none" points="412.5,-232 328.5,-232 328.5,-196 412.5,-196 412.5,-232"/>
<text text-anchor="middle" x="370.5" y="-210.9" font-family="Courier,monospace" font-size="12.00">5 + &#45;3 = 2</text>
</g>
<!-- thestream&#45;&gt;scan2 -->
<g id="edge17" class="edge">
<title>thestream:plusthree&#45;&gt;scan2</title>
<path fill="none" stroke="maroon" d="M370.5,-265.62C370.5,-253.57 370.5,-241.29 370.5,-231.84"/>
<polygon fill="maroon" stroke="maroon" points="367,-265.49 370.5,-275.49 374,-265.49 367,-265.49"/>
</g>
<!-- scan3 -->
<g id="node12" class="node">
<title>scan3</title>
<polygon fill="orange" stroke="none" points="542.5,-232 458.5,-232 458.5,-196 542.5,-196 542.5,-232"/>
<text text-anchor="middle" x="500.5" y="-210.9" font-family="Courier,monospace" font-size="12.00">2 + 8 = 10</text>
</g>
<!-- thestream&#45;&gt;scan3 -->
<g id="edge18" class="edge">
<title>thestream:plusfour&#45;&gt;scan3</title>
<path fill="none" stroke="maroon" d="M500.5,-265.62C500.5,-253.57 500.5,-241.29 500.5,-231.84"/>
<polygon fill="maroon" stroke="maroon" points="497,-265.49 500.5,-275.49 504,-265.49 497,-265.49"/>
</g>
<!-- scan4 -->
<g id="node13" class="node">
<title>scan4</title>
<polygon fill="orange" stroke="none" points="672,-232 581,-232 581,-196 672,-196 672,-232"/>
<text text-anchor="middle" x="626.5" y="-210.9" font-family="Courier,monospace" font-size="12.00">10 + 2 = 12</text>
</g>
<!-- thestream&#45;&gt;scan4 -->
<g id="edge19" class="edge">
<title>thestream:plustwo&#45;&gt;scan4</title>
<path fill="none" stroke="maroon" d="M626.5,-265.62C626.5,-253.57 626.5,-241.29 626.5,-231.84"/>
<polygon fill="maroon" stroke="maroon" points="623,-265.49 626.5,-275.49 630,-265.49 623,-265.49"/>
</g>
<!-- scan -->
<g id="node7" class="node">
<title>scan</title>
<text text-anchor="start" x="273.5" y="-68.4" font-family="Courier,monospace" font-size="12.00">const otherStream = scan(</text>
<text text-anchor="start" x="273.5" y="-49.4" font-family="Courier,monospace" font-size="12.00"> &#160;&#160;&#160;(latest, next) =&gt; latest + next,</text>
<text text-anchor="start" x="273.5" y="-30.4" font-family="Courier,monospace" font-size="12.00"> &#160;&#160;&#160;0,</text>
<text text-anchor="start" x="273.5" y="-11.4" font-family="Courier,monospace" font-size="12.00"> &#160;&#160;&#160;update);</text>
</g>
<!-- thescanstream -->
<g id="node8" class="node">
<title>thescanstream</title>
<polygon fill="orange" stroke="none" points="681.5,-159 135.5,-159 135.5,-123 681.5,-123 681.5,-159"/>
<text text-anchor="start" x="144.5" y="-137.4" font-family="Courier,monospace" font-size="12.00">0</text>
<text text-anchor="start" x="158.5" y="-137.4" font-family="Courier,monospace" font-size="12.00">      ...     </text>
<text text-anchor="start" x="270.5" y="-137.4" font-family="Courier,monospace" font-size="12.00">5</text>
<text text-anchor="start" x="284.5" y="-137.4" font-family="Courier,monospace" font-size="12.00">      ...     </text>
<text text-anchor="start" x="396.5" y="-137.4" font-family="Courier,monospace" font-size="12.00">2</text>
<text text-anchor="start" x="410.5" y="-137.4" font-family="Courier,monospace" font-size="12.00">      ...     </text>
<text text-anchor="start" x="522.5" y="-137.4" font-family="Courier,monospace" font-size="12.00">10</text>
<text text-anchor="start" x="544.5" y="-137.4" font-family="Courier,monospace" font-size="12.00">      ...     </text>
<text text-anchor="start" x="656.5" y="-137.4" font-family="Courier,monospace" font-size="12.00">12</text>
<polygon fill="none" stroke="black" points="139.5,-129.5 139.5,-152.5 677.5,-152.5 677.5,-129.5 139.5,-129.5"/>
</g>
<!-- thescanstream&#45;&gt;scan -->
<g id="edge6" class="edge">
<title>thescanstream&#45;&gt;scan</title>
<path fill="none" stroke="maroon" d="M408.5,-112.04C408.5,-103.8 408.5,-94.6 408.5,-85.7"/>
<polygon fill="maroon" stroke="maroon" points="405,-111.76 408.5,-121.76 412,-111.76 405,-111.76"/>
</g>
<!-- scan0 -->
<g id="node9" class="node">
<title>scan0</title>
<polygon fill="orange" stroke="none" points="179,-232 118,-232 118,-196 179,-196 179,-232"/>
<text text-anchor="middle" x="148.5" y="-210.9" font-family="Courier,monospace" font-size="12.00">initial</text>
</g>
<!-- scan0&#45;&gt;thescanstream -->
<g id="edge7" class="edge">
<title>scan0&#45;&gt;thescanstream:initial</title>
<path fill="none" stroke="maroon" d="M148.5,-196.15C148.5,-186.44 148.5,-173.71 148.5,-161.26"/>
<polygon fill="maroon" stroke="maroon" points="152,-161.51 148.5,-151.51 145,-161.51 152,-161.51"/>
</g>
<!-- scan1&#45;&gt;thescanstream -->
<g id="edge8" class="edge">
<title>scan1&#45;&gt;thescanstream:one</title>
<path fill="none" stroke="maroon" d="M255.51,-196.12C262.63,-186.74 270.21,-174.34 273.19,-161.18"/>
<polygon fill="maroon" stroke="maroon" points="276.64,-161.84 274.32,-151.5 269.69,-161.03 276.64,-161.84"/>
</g>
<!-- scan1&#45;&gt;thescanstream -->
<g id="edge12" class="edge">
<title>scan1&#45;&gt;thescanstream:initial</title>
<path fill="none" stroke="maroon" d="M204.4,-196.06C184.67,-185.88 162.38,-172.6 153.02,-160.57"/>
<polygon fill="maroon" stroke="maroon" points="156.25,-159.21 149.1,-151.39 149.81,-161.96 156.25,-159.21"/>
</g>
<!-- scan2&#45;&gt;thescanstream -->
<g id="edge9" class="edge">
<title>scan2&#45;&gt;thescanstream:four</title>
<path fill="none" stroke="maroon" d="M383.57,-196.1C389.82,-186.71 396.53,-174.34 399.25,-161.43"/>
<polygon fill="maroon" stroke="maroon" points="402.73,-161.83 400.34,-151.5 395.77,-161.06 402.73,-161.83"/>
</g>
<!-- scan2&#45;&gt;thescanstream -->
<g id="edge13" class="edge">
<title>scan2&#45;&gt;thescanstream:one</title>
<path fill="none" stroke="maroon" d="M328.67,-202.91C306.54,-195.2 282.63,-182.24 276.18,-161.31"/>
<polygon fill="maroon" stroke="maroon" points="279.66,-160.87 274.72,-151.5 272.73,-161.9 279.66,-160.87"/>
</g>
<!-- scan3&#45;&gt;thescanstream -->
<g id="edge10" class="edge">
<title>scan3&#45;&gt;thescanstream:eight</title>
<path fill="none" stroke="maroon" d="M513.57,-196.1C519.82,-186.71 526.53,-174.34 529.25,-161.43"/>
<polygon fill="maroon" stroke="maroon" points="532.73,-161.83 530.34,-151.5 525.77,-161.06 532.73,-161.83"/>
</g>
<!-- scan3&#45;&gt;thescanstream -->
<g id="edge14" class="edge">
<title>scan3&#45;&gt;thescanstream:four</title>
<path fill="none" stroke="maroon" d="M458.67,-203.98C435.01,-196.52 408.85,-183.42 402.14,-161.24"/>
<polygon fill="maroon" stroke="maroon" points="405.62,-160.89 400.72,-151.5 398.7,-161.9 405.62,-160.89"/>
</g>
<!-- scan4&#45;&gt;thescanstream -->
<g id="edge11" class="edge">
<title>scan4&#45;&gt;thescanstream:ten</title>
<path fill="none" stroke="maroon" d="M643.5,-196.16C651.4,-186.9 659.78,-174.62 663.06,-161.34"/>
<polygon fill="maroon" stroke="maroon" points="666.52,-161.86 664.31,-151.5 659.58,-160.98 666.52,-161.86"/>
</g>
<!-- scan4&#45;&gt;thescanstream -->
<g id="edge15" class="edge">
<title>scan4&#45;&gt;thescanstream:eight</title>
<path fill="none" stroke="maroon" d="M581.03,-201.6C560,-193.77 538.31,-181.12 532.2,-161.36"/>
<polygon fill="maroon" stroke="maroon" points="535.66,-160.87 530.72,-151.5 528.74,-161.9 535.66,-160.87"/>
</g>
</g>
</svg>
