<?xml version="1.0" encoding="UTF-8" standalone="no"?>
<!DOCTYPE svg PUBLIC "-//W3C//DTD SVG 1.1//EN"
 "http://www.w3.org/Graphics/SVG/1.1/DTD/svg11.dtd">
<!-- Generated by graphviz version 8.1.0 (20230707.0739)
 -->
<!-- Title: meiosisdocs Pages: 1 -->
<svg width="680pt" height="390pt"
 viewBox="0.00 0.00 680.45 390.20" xmlns="http://www.w3.org/2000/svg" xmlns:xlink="http://www.w3.org/1999/xlink">
<g id="graph0" class="graph" transform="scale(1 1) rotate(0) translate(4 386.2)">
<title>meiosisdocs</title>
<polygon fill="white" stroke="none" points="-4,4 -4,-386.2 676.45,-386.2 676.45,4 -4,4"/>
<!-- stream -->
<g id="node1" class="node">
<title>stream</title>
<text text-anchor="middle" x="93.6" y="-286.93" font-family="Courier,monospace" font-size="12.00">const update = stream();</text>
</g>
<!-- thestream -->
<g id="node6" class="node">
<title>thestream</title>
<polygon fill="lightblue" stroke="none" points="630.45,-309.2 224.75,-309.2 224.75,-273.2 630.45,-273.2 630.45,-309.2"/>
<text text-anchor="start" x="233.35" y="-286.93" font-family="Courier,monospace" font-size="12.00">5</text>
<text text-anchor="start" x="246.85" y="-286.93" font-family="Courier,monospace" font-size="12.00">      ...     </text>
<text text-anchor="start" x="357.85" y="-286.93" font-family="Courier,monospace" font-size="12.00">&#45;3</text>
<text text-anchor="start" x="378.85" y="-286.93" font-family="Courier,monospace" font-size="12.00">      ...     </text>
<text text-anchor="start" x="489.85" y="-286.93" font-family="Courier,monospace" font-size="12.00">8</text>
<text text-anchor="start" x="503.35" y="-286.93" font-family="Courier,monospace" font-size="12.00">      ...     </text>
<text text-anchor="start" x="614.35" y="-286.93" font-family="Courier,monospace" font-size="12.00">2</text>
<polygon fill="none" stroke="black" points="228.35,-279.07 228.35,-303.32 626.85,-303.32 626.85,-279.07 228.35,-279.07"/>
</g>
<!-- stream&#45;&gt;thestream -->
<g id="edge5" class="edge">
<title>stream&#45;&gt;thestream</title>
<path fill="none" stroke="maroon" d="M187.08,-291.2C195.75,-291.2 204.75,-291.2 213.96,-291.2"/>
<polygon fill="maroon" stroke="maroon" points="213.85,-294.7 223.85,-291.2 213.85,-287.7 213.85,-294.7"/>
<text text-anchor="middle" x="205.98" y="-295.55" font-family="Helvetica,sans-Serif" font-size="12.00" fill="navy"> &#160;&#160;&#160;&#160;&#160;&#160;&#160;</text>
</g>
<!-- updateplus1 -->
<g id="node2" class="node">
<title>updateplus1</title>
<polygon fill="orange" stroke="none" points="273.95,-382.2 199.25,-382.2 199.25,-346.2 273.95,-346.2 273.95,-382.2"/>
<text text-anchor="middle" x="236.6" y="-359.93" font-family="Courier,monospace" font-size="12.00">update(5)</text>
</g>
<!-- updateplus1&#45;&gt;thestream -->
<g id="edge1" class="edge">
<title>updateplus1&#45;&gt;thestream:plusone</title>
<path fill="none" stroke="maroon" d="M236.6,-346.36C236.6,-336.71 236.6,-324.12 236.6,-311.83"/>
<polygon fill="maroon" stroke="maroon" points="240.1,-312.2 236.6,-302.2 233.1,-312.2 240.1,-312.2"/>
</g>
<!-- updateplus3 -->
<g id="node3" class="node">
<title>updateplus3</title>
<polygon fill="orange" stroke="none" points="406.7,-382.2 324.5,-382.2 324.5,-346.2 406.7,-346.2 406.7,-382.2"/>
<text text-anchor="middle" x="365.6" y="-359.93" font-family="Courier,monospace" font-size="12.00">update(&#45;3)</text>
</g>
<!-- updateplus3&#45;&gt;thestream -->
<g id="edge2" class="edge">
<title>updateplus3&#45;&gt;thestream:plusthree</title>
<path fill="none" stroke="maroon" d="M365.6,-346.36C365.6,-336.71 365.6,-324.12 365.6,-311.83"/>
<polygon fill="maroon" stroke="maroon" points="369.1,-312.2 365.6,-302.2 362.1,-312.2 369.1,-312.2"/>
</g>
<!-- updateplus4 -->
<g id="node4" class="node">
<title>updateplus4</title>
<polygon fill="orange" stroke="none" points="530.95,-382.2 456.25,-382.2 456.25,-346.2 530.95,-346.2 530.95,-382.2"/>
<text text-anchor="middle" x="493.6" y="-359.93" font-family="Courier,monospace" font-size="12.00">update(8)</text>
</g>
<!-- updateplus4&#45;&gt;thestream -->
<g id="edge3" class="edge">
<title>updateplus4&#45;&gt;thestream:plusfour</title>
<path fill="none" stroke="maroon" d="M493.6,-346.36C493.6,-336.71 493.6,-324.12 493.6,-311.83"/>
<polygon fill="maroon" stroke="maroon" points="497.1,-312.2 493.6,-302.2 490.1,-312.2 497.1,-312.2"/>
</g>
<!-- updateplus2 -->
<g id="node5" class="node">
<title>updateplus2</title>
<polygon fill="orange" stroke="none" points="655.95,-382.2 581.25,-382.2 581.25,-346.2 655.95,-346.2 655.95,-382.2"/>
<text text-anchor="middle" x="618.6" y="-359.93" font-family="Courier,monospace" font-size="12.00">update(2)</text>
</g>
<!-- updateplus2&#45;&gt;thestream -->
<g id="edge4" class="edge">
<title>updateplus2&#45;&gt;thestream:plustwo</title>
<path fill="none" stroke="maroon" d="M618.6,-346.36C618.6,-336.71 618.6,-324.12 618.6,-311.83"/>
<polygon fill="maroon" stroke="maroon" points="622.1,-312.2 618.6,-302.2 615.1,-312.2 622.1,-312.2"/>
</g>
<!-- scan1 -->
<g id="node10" class="node">
<title>scan1</title>
<polygon fill="orange" stroke="none" points="273.95,-236.2 199.25,-236.2 199.25,-200.2 273.95,-200.2 273.95,-236.2"/>
<text text-anchor="middle" x="236.6" y="-213.92" font-family="Courier,monospace" font-size="12.00">0 + 5 = 5</text>
</g>
<!-- thestream&#45;&gt;scan1 -->
<g id="edge16" class="edge">
<title>thestream:plusone&#45;&gt;scan1</title>
<path fill="none" stroke="maroon" d="M236.6,-270.57C236.6,-258.28 236.6,-245.69 236.6,-236.04"/>
<polygon fill="maroon" stroke="maroon" points="233.1,-270.2 236.6,-280.2 240.1,-270.2 233.1,-270.2"/>
</g>
<!-- scan2 -->
<g id="node11" class="node">
<title>scan2</title>
<polygon fill="orange" stroke="none" points="406.7,-236.2 324.5,-236.2 324.5,-200.2 406.7,-200.2 406.7,-236.2"/>
<text text-anchor="middle" x="365.6" y="-213.92" font-family="Courier,monospace" font-size="12.00">5 + &#45;3 = 2</text>
</g>
<!-- thestream&#45;&gt;scan2 -->
<g id="edge17" class="edge">
<title>thestream:plusthree&#45;&gt;scan2</title>
<path fill="none" stroke="maroon" d="M365.6,-270.57C365.6,-258.28 365.6,-245.69 365.6,-236.04"/>
<polygon fill="maroon" stroke="maroon" points="362.1,-270.2 365.6,-280.2 369.1,-270.2 362.1,-270.2"/>
</g>
<!-- scan3 -->
<g id="node12" class="node">
<title>scan3</title>
<polygon fill="orange" stroke="none" points="534.7,-236.2 452.5,-236.2 452.5,-200.2 534.7,-200.2 534.7,-236.2"/>
<text text-anchor="middle" x="493.6" y="-213.92" font-family="Courier,monospace" font-size="12.00">2 + 8 = 10</text>
</g>
<!-- thestream&#45;&gt;scan3 -->
<g id="edge18" class="edge">
<title>thestream:plusfour&#45;&gt;scan3</title>
<path fill="none" stroke="maroon" d="M493.6,-270.57C493.6,-258.28 493.6,-245.69 493.6,-236.04"/>
<polygon fill="maroon" stroke="maroon" points="490.1,-270.2 493.6,-280.2 497.1,-270.2 490.1,-270.2"/>
</g>
<!-- scan4 -->
<g id="node13" class="node">
<title>scan4</title>
<polygon fill="orange" stroke="none" points="663.45,-236.2 573.75,-236.2 573.75,-200.2 663.45,-200.2 663.45,-236.2"/>
<text text-anchor="middle" x="618.6" y="-213.92" font-family="Courier,monospace" font-size="12.00">10 + 2 = 12</text>
</g>
<!-- thestream&#45;&gt;scan4 -->
<g id="edge19" class="edge">
<title>thestream:plustwo&#45;&gt;scan4</title>
<path fill="none" stroke="maroon" d="M618.6,-270.57C618.6,-258.28 618.6,-245.69 618.6,-236.04"/>
<polygon fill="maroon" stroke="maroon" points="615.1,-270.2 618.6,-280.2 622.1,-270.2 615.1,-270.2"/>
</g>
<!-- scan -->
<g id="node7" class="node">
<title>scan</title>
<text text-anchor="start" x="268.6" y="-71.2" font-family="Courier,monospace" font-size="12.00">const otherStream = scan(</text>
<text text-anchor="start" x="268.6" y="-50.95" font-family="Courier,monospace" font-size="12.00"> &#160;&#160;&#160;(latest, next) =&gt; latest + next,</text>
<text text-anchor="start" x="268.6" y="-30.7" font-family="Courier,monospace" font-size="12.00"> &#160;&#160;&#160;0,</text>
<text text-anchor="start" x="268.6" y="-10.45" font-family="Courier,monospace" font-size="12.00"> &#160;&#160;&#160;update);</text>
</g>
<!-- thescanstream -->
<g id="node8" class="node">
<title>thescanstream</title>
<polygon fill="orange" stroke="none" points="672.45,-163.2 134.75,-163.2 134.75,-127.2 672.45,-127.2 672.45,-163.2"/>
<text text-anchor="start" x="143.35" y="-140.92" font-family="Courier,monospace" font-size="12.00">0</text>
<text text-anchor="start" x="156.85" y="-140.92" font-family="Courier,monospace" font-size="12.00">      ...     </text>
<text text-anchor="start" x="267.85" y="-140.92" font-family="Courier,monospace" font-size="12.00">5</text>
<text text-anchor="start" x="281.35" y="-140.92" font-family="Courier,monospace" font-size="12.00">      ...     </text>
<text text-anchor="start" x="392.35" y="-140.92" font-family="Courier,monospace" font-size="12.00">2</text>
<text text-anchor="start" x="405.85" y="-140.92" font-family="Courier,monospace" font-size="12.00">      ...     </text>
<text text-anchor="start" x="516.85" y="-140.92" font-family="Courier,monospace" font-size="12.00">10</text>
<text text-anchor="start" x="537.85" y="-140.92" font-family="Courier,monospace" font-size="12.00">      ...     </text>
<text text-anchor="start" x="648.85" y="-140.92" font-family="Courier,monospace" font-size="12.00">12</text>
<polygon fill="none" stroke="black" points="138.35,-133.07 138.35,-157.32 668.85,-157.32 668.85,-133.07 138.35,-133.07"/>
</g>
<!-- thescanstream&#45;&gt;scan -->
<g id="edge6" class="edge">
<title>thescanstream&#45;&gt;scan</title>
<path fill="none" stroke="maroon" d="M403.6,-116.63C403.6,-108.32 403.6,-98.99 403.6,-89.91"/>
<polygon fill="maroon" stroke="maroon" points="400.1,-116.56 403.6,-126.56 407.1,-116.56 400.1,-116.56"/>
</g>
<!-- scan0 -->
<g id="node9" class="node">
<title>scan0</title>
<polygon fill="orange" stroke="none" points="176.45,-236.2 116.75,-236.2 116.75,-200.2 176.45,-200.2 176.45,-236.2"/>
<text text-anchor="middle" x="146.6" y="-213.92" font-family="Courier,monospace" font-size="12.00">initial</text>
</g>
<!-- scan0&#45;&gt;thescanstream -->
<g id="edge7" class="edge">
<title>scan0&#45;&gt;thescanstream:initial</title>
<path fill="none" stroke="maroon" d="M146.6,-200.36C146.6,-190.71 146.6,-178.12 146.6,-165.83"/>
<polygon fill="maroon" stroke="maroon" points="150.1,-166.2 146.6,-156.2 143.1,-166.2 150.1,-166.2"/>
</g>
<!-- scan1&#45;&gt;thescanstream -->
<g id="edge8" class="edge">
<title>scan1&#45;&gt;thescanstream:one</title>
<path fill="none" stroke="maroon" d="M252.26,-200.44C259.61,-191.18 267.4,-178.91 270.36,-165.83"/>
<polygon fill="maroon" stroke="maroon" points="273.92,-166.54 271.6,-156.2 266.97,-165.73 273.92,-166.54"/>
</g>
<!-- scan1&#45;&gt;thescanstream -->
<g id="edge12" class="edge">
<title>scan1&#45;&gt;thescanstream:initial</title>
<path fill="none" stroke="maroon" d="M200.77,-200.23C181.36,-190.11 159.57,-176.96 150.69,-165.14"/>
<polygon fill="maroon" stroke="maroon" points="153.64,-164.11 146.6,-156.2 147.17,-166.78 153.64,-164.11"/>
</g>
<!-- scan2&#45;&gt;thescanstream -->
<g id="edge9" class="edge">
<title>scan2&#45;&gt;thescanstream:four</title>
<path fill="none" stroke="maroon" d="M378.85,-200.34C385.12,-191.04 391.82,-178.79 394.45,-166.01"/>
<polygon fill="maroon" stroke="maroon" points="398.02,-166.51 395.6,-156.2 391.06,-165.77 398.02,-166.51"/>
</g>
<!-- scan2&#45;&gt;thescanstream -->
<g id="edge13" class="edge">
<title>scan2&#45;&gt;thescanstream:one</title>
<path fill="none" stroke="maroon" d="M324.64,-207.21C302.87,-199.57 279.35,-186.72 273.16,-166.01"/>
<polygon fill="maroon" stroke="maroon" points="276.49,-165.6 271.6,-156.2 269.56,-166.6 276.49,-165.6"/>
</g>
<!-- scan3&#45;&gt;thescanstream -->
<g id="edge10" class="edge">
<title>scan3&#45;&gt;thescanstream:eight</title>
<path fill="none" stroke="maroon" d="M507.29,-200.41C513.78,-191.13 520.69,-178.89 523.41,-166.06"/>
<polygon fill="maroon" stroke="maroon" points="526.99,-166.52 524.6,-156.2 520.03,-165.76 526.99,-166.52"/>
</g>
<!-- scan3&#45;&gt;thescanstream -->
<g id="edge14" class="edge">
<title>scan3&#45;&gt;thescanstream:four</title>
<path fill="none" stroke="maroon" d="M452.61,-208.27C429.32,-200.87 403.55,-187.89 397.12,-165.93"/>
<polygon fill="maroon" stroke="maroon" points="400.47,-165.61 395.6,-156.2 393.53,-166.59 400.47,-165.61"/>
</g>
<!-- scan4&#45;&gt;thescanstream -->
<g id="edge11" class="edge">
<title>scan4&#45;&gt;thescanstream:ten</title>
<path fill="none" stroke="maroon" d="M635.82,-200.42C643.75,-191.25 652.11,-179.09 655.28,-165.93"/>
<polygon fill="maroon" stroke="maroon" points="658.85,-166.55 656.6,-156.2 651.9,-165.7 658.85,-166.55"/>
</g>
<!-- scan4&#45;&gt;thescanstream -->
<g id="edge15" class="edge">
<title>scan4&#45;&gt;thescanstream:eight</title>
<path fill="none" stroke="maroon" d="M573.8,-205.82C553.19,-198.04 532,-185.52 526.17,-166.03"/>
<polygon fill="maroon" stroke="maroon" points="529.5,-165.6 524.6,-156.2 522.57,-166.6 529.5,-165.6"/>
</g>
</g>
</svg>
