<?xml version="1.0" encoding="UTF-8" standalone="no"?>
<!DOCTYPE svg PUBLIC "-//W3C//DTD SVG 1.1//EN"
 "http://www.w3.org/Graphics/SVG/1.1/DTD/svg11.dtd">
<!-- Generated by graphviz version 7.0.1 (20221109.1506)
 -->
<!-- Title: meiosisdocs Pages: 1 -->
<svg width="440pt" height="275pt"
 viewBox="0.00 0.00 440.00 275.00" xmlns="http://www.w3.org/2000/svg" xmlns:xlink="http://www.w3.org/1999/xlink">
<g id="graph0" class="graph" transform="scale(1 1) rotate(0) translate(4 271)">
<title>meiosisdocs</title>
<polygon fill="white" stroke="none" points="-4,4 -4,-271 436,-271 436,4 -4,4"/>
<!-- stream -->
<g id="node1" class="node">
<title>stream</title>
<text text-anchor="middle" x="94.5" y="-172.9" font-family="Courier,monospace" font-size="12.00">const update = stream();</text>
</g>
<!-- thestream -->
<g id="node4" class="node">
<title>thestream</title>
<polygon fill="lightblue" stroke="none" points="387.5,-194 227.5,-194 227.5,-158 387.5,-158 387.5,-194"/>
<text text-anchor="start" x="236.5" y="-172.4" font-family="Courier,monospace" font-size="12.00">1</text>
<text text-anchor="start" x="250.5" y="-172.4" font-family="Courier,monospace" font-size="12.00">      ...     </text>
<text text-anchor="start" x="362.5" y="-172.4" font-family="Courier,monospace" font-size="12.00">&#45;1</text>
<polygon fill="none" stroke="black" points="231.5,-164.5 231.5,-187.5 383.5,-187.5 383.5,-164.5 231.5,-164.5"/>
</g>
<!-- stream&#45;&gt;thestream -->
<g id="edge3" class="edge">
<title>stream&#45;&gt;thestream</title>
<path fill="none" stroke="maroon" d="M188.86,-176C197.93,-176 207.13,-176 216.17,-176"/>
<polygon fill="maroon" stroke="maroon" points="216.02,-179.5 226.02,-176 216.02,-172.5 216.02,-179.5"/>
<text text-anchor="middle" x="208.25" y="-182.4" font-family="Helvetica,sans-Serif" font-size="12.00" fill="navy"> &#160;&#160;&#160;&#160;&#160;&#160;&#160;</text>
</g>
<!-- updateplus1 -->
<g id="node2" class="node">
<title>updateplus1</title>
<polygon fill="orange" stroke="none" points="278.5,-267 202.5,-267 202.5,-231 278.5,-231 278.5,-267"/>
<text text-anchor="middle" x="240.5" y="-245.9" font-family="Courier,monospace" font-size="12.00">update(1)</text>
</g>
<!-- updateplus1&#45;&gt;thestream -->
<g id="edge1" class="edge">
<title>updateplus1&#45;&gt;thestream:plusone</title>
<path fill="none" stroke="maroon" d="M240.5,-231.15C240.5,-221.44 240.5,-208.71 240.5,-196.26"/>
<polygon fill="maroon" stroke="maroon" points="244,-196.51 240.5,-186.51 237,-196.51 244,-196.51"/>
</g>
<!-- updateminus1 -->
<g id="node3" class="node">
<title>updateminus1</title>
<polygon fill="orange" stroke="none" points="412.5,-267 328.5,-267 328.5,-231 412.5,-231 412.5,-267"/>
<text text-anchor="middle" x="370.5" y="-245.9" font-family="Courier,monospace" font-size="12.00">update(&#45;1)</text>
</g>
<!-- updateminus1&#45;&gt;thestream -->
<g id="edge2" class="edge">
<title>updateminus1&#45;&gt;thestream:minusone</title>
<path fill="none" stroke="maroon" d="M370.5,-231.15C370.5,-221.44 370.5,-208.71 370.5,-196.26"/>
<polygon fill="maroon" stroke="maroon" points="374,-196.51 370.5,-186.51 367,-196.51 374,-196.51"/>
</g>
<!-- map -->
<g id="node5" class="node">
<title>map</title>
<text text-anchor="start" x="191.5" y="-103.4" font-family="Courier,monospace" font-size="12.00">const otherStream = update.map(</text>
<text text-anchor="start" x="191.5" y="-84.4" font-family="Courier,monospace" font-size="12.00"> &#160;&#160;&#160;(value) =&gt; value * 10);</text>
</g>
<!-- thestream&#45;&gt;map -->
<g id="edge4" class="edge">
<title>thestream&#45;&gt;map</title>
<path fill="none" stroke="maroon" d="M307.5,-146.86C307.5,-138.29 307.5,-128.98 307.5,-120.81"/>
<polygon fill="maroon" stroke="maroon" points="304,-146.78 307.5,-156.78 311,-146.78 304,-146.78"/>
</g>
<!-- themapstream -->
<g id="node6" class="node">
<title>themapstream</title>
<polygon fill="orange" stroke="none" points="395,-36 220,-36 220,0 395,0 395,-36"/>
<text text-anchor="start" x="229.5" y="-14.4" font-family="Courier,monospace" font-size="12.00">10</text>
<text text-anchor="start" x="251.5" y="-14.4" font-family="Courier,monospace" font-size="12.00">      ...     </text>
<text text-anchor="start" x="363.5" y="-14.4" font-family="Courier,monospace" font-size="12.00">&#45;10</text>
<polygon fill="none" stroke="black" points="224,-6.5 224,-29.5 391,-29.5 391,-6.5 224,-6.5"/>
</g>
<!-- map&#45;&gt;themapstream -->
<g id="edge5" class="edge">
<title>map&#45;&gt;themapstream</title>
<path fill="none" stroke="maroon" d="M307.5,-73.31C307.5,-65.11 307.5,-55.75 307.5,-47.14"/>
<polygon fill="maroon" stroke="maroon" points="311,-47.17 307.5,-37.17 304,-47.17 311,-47.17"/>
</g>
<!-- otherStream -->
<g id="node7" class="node">
<title>otherStream</title>
<text text-anchor="middle" x="135.5" y="-14.9" font-family="Courier,monospace" font-size="12.00">otherStream</text>
</g>
<!-- otherStream&#45;&gt;themapstream -->
<g id="edge6" class="edge">
<title>otherStream&#45;&gt;themapstream</title>
<path fill="none" stroke="maroon" d="M180.69,-18C189.59,-18 199.24,-18 209.11,-18"/>
<polygon fill="maroon" stroke="maroon" points="208.82,-21.5 218.82,-18 208.82,-14.5 208.82,-21.5"/>
<text text-anchor="middle" x="200.5" y="-24.4" font-family="Helvetica,sans-Serif" font-size="12.00" fill="navy"> &#160;&#160;&#160;&#160;&#160;&#160;&#160;</text>
</g>
</g>
</svg>
